<svg width="70" height="73" viewBox="0 0 70 73" fill="none" xmlns="http://www.w3.org/2000/svg">
<g filter="url(#filter0_d_1233_14126)">
<path d="M32.7777 1.98083C33.8117 0.941963 35.5515 0.977266 36.5385 2.08533L37.142 2.74548C37.8017 3.44798 38.6223 4.26081 39.5219 5.01599C40.7389 6.03768 42.0155 6.88005 43.1732 7.25623C44.331 7.63234 45.8586 7.70122 47.4437 7.59021C49.0063 7.48076 50.5161 7.20559 51.5804 6.97302C53.0293 6.6573 54.4554 7.6499 54.682 9.09705L54.7006 9.23865V9.23962C54.8083 10.3239 55.0126 11.8445 55.391 13.3646C55.7749 14.9067 56.3115 16.3388 57.0267 17.3236C57.742 18.3081 58.9386 19.2605 60.2865 20.1019C61.615 20.9312 62.9973 21.5959 63.9955 22.0336C65.3997 22.6492 65.9611 24.3826 65.1879 25.7045C64.6377 26.6449 63.9099 27.9954 63.3226 29.4476C62.7268 30.9211 62.3188 32.3955 62.3187 33.6127C62.3189 34.8298 62.7269 36.3038 63.3226 37.7767C63.9099 39.2285 64.6377 40.5784 65.1879 41.5189C65.9611 42.8408 65.3997 44.5742 63.9955 45.1898C62.9973 45.6275 61.615 46.2922 60.2865 47.1215C58.9386 47.9629 57.742 48.9152 57.0267 49.8998C56.3114 50.8846 55.7749 52.3167 55.391 53.8588C55.0126 55.3789 54.8083 56.8994 54.7006 57.9838V57.9847C54.5483 59.5058 53.0789 60.578 51.5814 60.2523H51.5804C50.5158 60.0197 49.0062 59.7442 47.4437 59.6342C45.8587 59.5226 44.3307 59.5903 43.1732 59.9662C42.0155 60.3424 40.7389 61.1857 39.5219 62.2074C38.3223 63.2144 37.2629 64.3242 36.5385 65.1381C35.5196 66.2823 33.6989 66.2825 32.6801 65.1381C31.9556 64.3242 30.8963 63.2145 29.6967 62.2074C28.4797 61.1858 27.2039 60.3424 26.0463 59.9662C24.8888 59.5902 23.3609 59.5226 21.7758 59.6342C20.2133 59.7442 18.7037 60.0197 17.639 60.2523H17.6381C16.1406 60.5781 14.6712 59.5059 14.5189 57.9847V57.9838C14.4112 56.8994 14.2059 55.3789 13.8275 53.8588C13.4436 52.3166 12.9071 50.8845 12.1918 49.8998C11.4765 48.9153 10.2807 47.9628 8.93298 47.1215C7.60438 46.2921 6.22123 45.6275 5.22302 45.1898C3.81896 44.5742 3.25752 42.8408 4.03064 41.5189C4.58082 40.5784 5.30961 39.2286 5.89685 37.7767C6.49263 36.3038 6.8996 34.8298 6.89978 33.6127C6.89974 32.3955 6.49265 30.9211 5.89685 29.4476C5.30956 27.9953 4.58081 26.645 4.03064 25.7045C3.25748 24.3826 3.81896 22.6492 5.22302 22.0336C6.22125 21.5959 7.60438 20.9313 8.93298 20.1019C10.2808 19.2605 11.4765 18.308 12.1918 17.3236C12.9071 16.3388 13.4436 14.9067 13.8275 13.3646C14.2059 11.8445 14.4112 10.3239 14.5189 9.23962V9.23865C14.6717 7.71542 16.1425 6.64725 17.6381 6.97302H17.639C18.7033 7.20558 20.2123 7.48076 21.7748 7.59021C23.36 7.70124 24.8884 7.6324 26.0463 7.25623C27.2039 6.88 28.4798 6.03753 29.6967 5.01599C30.8963 4.00891 31.9556 2.8992 32.6801 2.08533L32.7777 1.98083ZM31.4974 24.7504H31.4965C31.1597 25.0269 30.7336 25.1629 30.306 25.1381H30.3051L27.4359 24.9672L26.7113 27.7484C26.6018 28.168 26.3372 28.5287 25.974 28.7611L25.975 28.7621L23.5551 30.309L24.6029 32.9857C24.7608 33.389 24.7596 33.8354 24.6029 34.2367V34.2377L23.5551 36.9135L25.975 38.4613H25.974C26.2925 38.6651 26.5348 38.9677 26.6635 39.3207L26.7113 39.475L27.4359 42.2552L30.3051 42.0853H30.306C30.7334 42.0605 31.1596 42.1964 31.4965 42.473H31.4974L33.7162 44.2953L35.9359 42.473L36.0668 42.3754C36.38 42.1645 36.7531 42.0638 37.1263 42.0853H37.1283L39.9965 42.2552L40.722 39.475L40.7699 39.3207C40.8986 38.9677 41.1402 38.665 41.4584 38.4613L43.8773 36.9135L42.8304 34.2377L42.8295 34.2367C42.6728 33.8355 42.6726 33.3889 42.8304 32.9857L43.8773 30.309L41.4584 28.7621C41.0953 28.5297 40.8315 28.1679 40.722 27.7484L39.9965 24.9672L37.1283 25.1381H37.1263C36.6996 25.1627 36.2729 25.0271 35.9359 24.7504L33.7162 22.9271L31.4974 24.7504Z" fill="white" stroke="white" stroke-width="2.45443"/>
<circle cx="34.3625" cy="34.3609" r="12.2721" fill="white"/>
<path d="M33.5515 3.62354C34.0698 3.04136 35.0118 3.04133 35.53 3.62354C36.989 5.26253 39.8368 8.14133 42.532 9.01709C45.2272 9.89283 49.2232 9.23747 51.3669 8.76904C52.1284 8.60266 52.8904 9.15656 52.9675 9.93213C53.1845 12.1157 53.7969 16.1189 55.4626 18.4116C57.1285 20.7042 60.7461 22.5228 62.7556 23.4038C63.4695 23.7168 63.7604 24.6128 63.3669 25.2856C62.259 27.1797 60.4011 30.7779 60.4011 33.6118C60.4011 36.4458 62.259 40.044 63.3669 41.938C63.7604 42.6108 63.4695 43.5069 62.7556 43.8198C60.7461 44.7009 57.1285 46.5195 55.4626 48.812C53.7969 51.1047 53.1845 55.108 52.9675 57.2915C52.8904 58.0671 52.1284 58.621 51.3669 58.4546C49.2232 57.9862 45.2272 57.3308 42.532 58.2065C39.8367 59.0823 36.989 61.9611 35.53 63.6001C35.0118 64.1823 34.0698 64.1823 33.5515 63.6001C32.0926 61.9611 29.2448 59.0823 26.5496 58.2065C23.8544 57.3308 19.8583 57.9862 17.7146 58.4546C16.9532 58.621 16.1912 58.0671 16.114 57.2915C15.8971 55.108 15.2847 51.1047 13.6189 48.812C11.9531 46.5195 8.33551 44.7009 6.32593 43.8198C5.61207 43.5069 5.32107 42.6108 5.7146 41.938C6.82254 40.044 8.68042 36.4458 8.68042 33.6118C8.68042 30.7779 6.82254 27.1797 5.7146 25.2856C5.32107 24.6128 5.61207 23.7168 6.32593 23.4038C8.33551 22.5227 11.9531 20.7042 13.6189 18.4116C15.2847 16.1189 15.8971 12.1157 16.114 9.93213C16.1912 9.15657 16.9532 8.60266 17.7146 8.76904C19.8583 9.23747 23.8544 9.89281 26.5496 9.01709C29.2448 8.14129 32.0926 5.26251 33.5515 3.62354ZM34.0281 21.5942C33.847 21.4457 33.586 21.4456 33.405 21.5942L30.7175 23.8013C30.622 23.8797 30.5001 23.9189 30.3767 23.9116L26.906 23.7065C26.6721 23.6927 26.4612 23.846 26.4021 24.0728L25.5251 27.437C25.494 27.5566 25.4183 27.6604 25.3142 27.7271L22.3845 29.6011C22.1873 29.7274 22.1067 29.9758 22.1921 30.1938L23.4607 33.4312C23.5058 33.5462 23.5057 33.6745 23.4607 33.7896L22.1921 37.0278C22.1068 37.2459 22.1872 37.4944 22.3845 37.6206L25.3142 39.4937C25.4183 39.5603 25.494 39.6641 25.5251 39.7837L26.4021 43.1489C26.4612 43.3756 26.6721 43.529 26.906 43.5151L30.3767 43.3091C30.5001 43.3018 30.622 43.342 30.7175 43.4204L33.405 45.6274C33.586 45.7759 33.8471 45.7758 34.0281 45.6274L36.7156 43.4204C36.8111 43.342 36.933 43.3018 37.0564 43.3091L40.5281 43.5151C40.7618 43.5288 40.9729 43.3755 41.032 43.1489L41.9089 39.7837C41.9401 39.6642 42.0148 39.5602 42.1189 39.4937L45.0486 37.6206C45.2459 37.4944 45.3264 37.246 45.241 37.0278L43.9724 33.7896C43.9274 33.6745 43.9273 33.5462 43.9724 33.4312L45.241 30.1938C45.3264 29.9757 45.246 29.7273 45.0486 29.6011L42.1189 27.7271C42.0149 27.6604 41.9401 27.5565 41.9089 27.437L41.032 24.0728C40.9729 23.8461 40.7618 23.6928 40.5281 23.7065L37.0564 23.9116C36.933 23.9189 36.8111 23.8797 36.7156 23.8013L34.0281 21.5942Z" fill="url(#paint0_radial_1233_14126)"/>
<path d="M30.7209 15.078C31.1908 14.6084 31.9523 14.6082 32.4221 15.078C32.8918 15.5478 32.8917 16.3093 32.4221 16.7792L31.5881 17.6132L32.4221 18.4471C32.8917 18.917 32.8918 19.6785 32.4221 20.1483C31.9523 20.6181 31.1908 20.618 30.7209 20.1483L29.887 19.3143L29.053 20.1483C28.5831 20.6179 27.8216 20.618 27.3518 20.1483C26.882 19.6785 26.8822 18.917 27.3518 18.4471L28.1858 17.6132L27.3518 16.7792C26.882 16.3093 26.8819 15.5479 27.3518 15.078C27.8217 14.6082 28.5831 14.6082 29.053 15.078L29.887 15.912L30.7209 15.078Z" fill="#252525"/>
<path d="M37.2177 15.078C37.6875 14.6082 38.449 14.6082 38.9188 15.078C39.3886 15.5478 39.3886 16.3093 38.9188 16.7792L38.0848 17.6132L38.9188 18.4471C39.3885 18.917 39.3886 19.6785 38.9188 20.1483C38.449 20.6181 37.6875 20.6179 37.2177 20.1483L36.3837 19.3143L35.5497 20.1483C35.0798 20.618 34.3183 20.6181 33.8485 20.1483C33.3787 19.6785 33.3789 18.917 33.8485 18.4471L34.6825 17.6132L33.8485 16.7792C33.3788 16.3093 33.3787 15.5478 33.8485 15.078C34.3183 14.6082 35.0798 14.6083 35.5497 15.078L36.3837 15.912L37.2177 15.078Z" fill="#252525"/>
<circle cx="33.015" cy="24.8327" r="3.85018" fill="#252525"/>
</g>
<defs>
<filter id="filter0_d_1233_14126" x="4.07696e-05" y="0" width="69.2188" height="72.1324" filterUnits="userSpaceOnUse" color-interpolation-filters="sRGB">
<feFlood flood-opacity="0" result="BackgroundImageFix"/>
<feColorMatrix in="SourceAlpha" type="matrix" values="0 0 0 0 0 0 0 0 0 0 0 0 0 0 0 0 0 0 127 0" result="hardAlpha"/>
<feOffset dy="2.45443"/>
<feGaussianBlur stdDeviation="1.22721"/>
<feComposite in2="hardAlpha" operator="out"/>
<feColorMatrix type="matrix" values="0 0 0 0 0 0 0 0 0 0 0 0 0 0 0 0 0 0 0.35 0"/>
<feBlend mode="normal" in2="BackgroundImageFix" result="effect1_dropShadow_1233_14126"/>
<feBlend mode="normal" in="SourceGraphic" in2="effect1_dropShadow_1233_14126" result="shape"/>
</filter>
<radialGradient id="paint0_radial_1233_14126" cx="0" cy="0" r="1" gradientUnits="userSpaceOnUse" gradientTransform="translate(34.5404 33.6119) rotate(90) scale(30.4249 29.0026)">
<stop offset="0.336538" stop-color="#FF0000"/>
<stop offset="1" stop-color="#FFFD79"/>
</radialGradient>
</defs>
</svg>
