<svg width="74" height="74" viewBox="0 0 74 74" fill="none" xmlns="http://www.w3.org/2000/svg">
<g filter="url(#filter0_d_1894_9668)">
<mask id="path-1-outside-1_1894_9668" maskUnits="userSpaceOnUse" x="1.90881" y="-0.545532" width="70" height="70" fill="black">
<rect fill="white" x="1.90881" y="-0.545532" width="70" height="70"/>
<path d="M35.8278 3.29354C36.0121 2.17478 37.6211 2.17478 37.8054 3.29354L40.394 19.0143C40.7167 20.9746 42.8185 22.0881 44.6216 21.254L50.4538 18.5562C51.3 18.1648 52.1754 19.0401 51.7839 19.8863L48.7848 26.368C47.9506 28.171 49.0638 30.273 51.0241 30.5959L67.8855 33.3736C69.0042 33.5579 69.0042 35.1669 67.8855 35.3512L51.7451 38.009C49.7848 38.3318 48.6713 40.4338 49.5056 42.2369L51.7839 47.1607C52.1754 48.0069 51.3 48.8823 50.4538 48.4908L44.8786 45.9115C43.0755 45.0773 40.9735 46.1908 40.6507 48.1511L37.8054 65.4312C37.621 66.5498 36.0122 66.5498 35.8278 65.4312L32.9817 48.151C32.6588 46.1907 30.5568 45.0774 28.7538 45.9116L23.1794 48.4908C22.3332 48.8823 21.4579 48.0069 21.8493 47.1607L24.1271 42.2367C24.9612 40.4336 23.8478 38.3318 21.8875 38.009L5.74777 35.3512C4.62914 35.1668 4.62918 33.558 5.74777 33.3736L22.6085 30.5959C24.5687 30.273 25.6819 28.1712 24.8479 26.3682L21.8493 19.8863C21.4579 19.0401 22.3332 18.1648 23.1794 18.5562L29.0107 21.2539C30.8138 22.088 32.9156 20.9746 33.2385 19.0144L35.8278 3.29354Z"/>
</mask>
<path d="M35.8278 3.29354C36.0121 2.17478 37.6211 2.17478 37.8054 3.29354L40.394 19.0143C40.7167 20.9746 42.8185 22.0881 44.6216 21.254L50.4538 18.5562C51.3 18.1648 52.1754 19.0401 51.7839 19.8863L48.7848 26.368C47.9506 28.171 49.0638 30.273 51.0241 30.5959L67.8855 33.3736C69.0042 33.5579 69.0042 35.1669 67.8855 35.3512L51.7451 38.009C49.7848 38.3318 48.6713 40.4338 49.5056 42.2369L51.7839 47.1607C52.1754 48.0069 51.3 48.8823 50.4538 48.4908L44.8786 45.9115C43.0755 45.0773 40.9735 46.1908 40.6507 48.1511L37.8054 65.4312C37.621 66.5498 36.0122 66.5498 35.8278 65.4312L32.9817 48.151C32.6588 46.1907 30.5568 45.0774 28.7538 45.9116L23.1794 48.4908C22.3332 48.8823 21.4579 48.0069 21.8493 47.1607L24.1271 42.2367C24.9612 40.4336 23.8478 38.3318 21.8875 38.009L5.74777 35.3512C4.62914 35.1668 4.62918 33.558 5.74777 33.3736L22.6085 30.5959C24.5687 30.273 25.6819 28.1712 24.8479 26.3682L21.8493 19.8863C21.4579 19.0401 22.3332 18.1648 23.1794 18.5562L29.0107 21.2539C30.8138 22.088 32.9156 20.9746 33.2385 19.0144L35.8278 3.29354Z" fill="url(#paint0_radial_1894_9668)"/>
<path fill-rule="evenodd" clip-rule="evenodd" d="M35.8278 3.29354L33.4061 2.89463L33.406 2.89465L35.8278 3.29354ZM37.8054 3.29354L40.2272 2.89477L40.2272 2.89463L37.8054 3.29354ZM50.4538 18.5562L51.4843 20.7839L51.4843 20.7839L50.4538 18.5562ZM51.7839 19.8863L54.0114 20.917L54.0115 20.9168L51.7839 19.8863ZM67.8855 33.3736L67.4865 35.7954L67.4866 35.7954L67.8855 33.3736ZM67.8855 35.3512L68.2843 37.773L68.2844 37.773L67.8855 35.3512ZM51.7839 47.1607L54.0115 46.1302L54.0114 46.13L51.7839 47.1607ZM50.4538 48.4908L49.4233 50.7184L49.4233 50.7184L50.4538 48.4908ZM37.8054 65.4312L40.2271 65.8305L40.2272 65.83L37.8054 65.4312ZM35.8278 65.4312L33.406 65.8301L33.4061 65.8304L35.8278 65.4312ZM23.1794 48.4908L24.2099 50.7184L24.2101 50.7184L23.1794 48.4908ZM21.8493 47.1607L24.077 48.1912L24.077 48.1912L21.8493 47.1607ZM5.74777 35.3512L5.34868 37.7729L5.34895 37.773L5.74777 35.3512ZM5.74777 33.3736L5.34879 30.9518L5.34856 30.9519L5.74777 33.3736ZM21.8493 19.8863L19.6217 20.9168L19.6217 20.9168L21.8493 19.8863ZM23.1794 18.5562L24.2099 16.3286L24.2099 16.3286L23.1794 18.5562ZM22.6085 30.5959L22.2095 28.1741L22.6085 30.5959ZM24.8479 26.3682L22.6203 27.3987L24.8479 26.3682ZM24.1271 42.2367L21.8995 41.2062L24.1271 42.2367ZM21.8875 38.009L22.2863 35.5872L21.8875 38.009ZM32.9817 48.151L35.4035 47.7522L32.9817 48.151ZM28.7537 45.9116L27.7231 43.6841L28.7537 45.9116ZM44.8786 45.9115L43.848 48.1391L44.8786 45.9115ZM40.6507 48.1511L38.2289 47.7523L40.6507 48.1511ZM51.7451 38.009L51.3463 35.5872L51.7451 38.009ZM49.5056 42.2369L51.7332 41.2063L49.5056 42.2369ZM48.7848 26.368L46.5573 25.3373L48.7848 26.368ZM44.6216 21.254L43.5912 19.0264L44.6216 21.254ZM35.8278 3.29354L38.2496 3.69245C37.9825 5.31438 35.6507 5.31438 35.3836 3.69245L37.8054 3.29354L40.2272 2.89463C39.5915 -0.964823 34.0418 -0.964823 33.4061 2.89463L35.8278 3.29354ZM37.8054 3.29354L35.3836 3.69231L37.9721 19.4131L40.394 19.0143L42.8158 18.6156L40.2272 2.89477L37.8054 3.29354ZM44.6216 21.254L45.6521 23.4817L51.4843 20.7839L50.4538 18.5562L49.4234 16.3286L43.5912 19.0264L44.6216 21.254ZM50.4538 18.5562L51.4843 20.7839C50.2575 21.3514 48.9888 20.0826 49.5563 18.8558L51.7839 19.8863L54.0115 20.9168C55.3619 17.9976 52.3425 14.9782 49.4233 16.3286L50.4538 18.5562ZM51.7839 19.8863L49.5564 18.8556L46.5573 25.3373L48.7848 26.368L51.0124 27.3987L54.0114 20.917L51.7839 19.8863ZM51.0241 30.5959L50.6252 33.0177L67.4865 35.7954L67.8855 33.3736L68.2844 30.9518L51.4231 28.1741L51.0241 30.5959ZM67.8855 33.3736L67.4866 35.7954C65.8646 35.5283 65.8646 33.1965 67.4866 32.9294L67.8855 35.3512L68.2844 37.773C72.1438 37.1372 72.1438 31.5875 68.2844 30.9518L67.8855 33.3736ZM67.8855 35.3512L67.4867 32.9293L51.3463 35.5872L51.7451 38.009L52.1439 40.4308L68.2843 37.773L67.8855 35.3512ZM49.5056 42.2369L47.2781 43.2676L49.5564 48.1914L51.7839 47.1607L54.0114 46.13L51.7332 41.2063L49.5056 42.2369ZM51.7839 47.1607L49.5563 48.1912C48.9888 46.9644 50.2575 45.6957 51.4843 46.2632L50.4538 48.4908L49.4233 50.7184C52.3425 52.0688 55.3619 49.0494 54.0115 46.1302L51.7839 47.1607ZM50.4538 48.4908L51.4844 46.2632L45.9092 43.6839L44.8786 45.9115L43.848 48.1391L49.4233 50.7184L50.4538 48.4908ZM40.6507 48.1511L38.2289 47.7523L35.3836 65.0325L37.8054 65.4312L40.2272 65.83L43.0726 48.5499L40.6507 48.1511ZM37.8054 65.4312L35.3836 65.032C35.6509 63.4108 37.9822 63.4098 38.2496 65.0321L35.8278 65.4312L33.4061 65.8304C34.0422 69.6899 39.5911 69.6888 40.2271 65.8305L37.8054 65.4312ZM35.8278 65.4312L38.2496 65.0323L35.4035 47.7522L32.9817 48.151L30.5599 48.5499L33.406 65.8301L35.8278 65.4312ZM28.7537 45.9116L27.7231 43.6841L22.1488 46.2633L23.1794 48.4908L24.2101 50.7184L29.7844 48.1392L28.7537 45.9116ZM23.1794 48.4908L22.1489 46.2632C23.3757 45.6957 24.6445 46.9644 24.077 48.1912L21.8493 47.1607L19.6217 46.1302C18.2713 49.0494 21.2907 52.0688 24.2099 50.7184L23.1794 48.4908ZM21.8493 47.1607L24.077 48.1912L26.3547 43.2672L24.1271 42.2367L21.8995 41.2062L19.6217 46.1303L21.8493 47.1607ZM21.8875 38.009L22.2863 35.5872L6.14658 32.9293L5.74777 35.3512L5.34895 37.773L21.4887 40.4308L21.8875 38.009ZM5.74777 35.3512L6.14686 32.9294C7.76933 33.1968 7.76804 35.5281 6.14698 35.7954L5.74777 33.3736L5.34856 30.9519C1.49033 31.5879 1.48896 37.1369 5.34868 37.7729L5.74777 35.3512ZM5.74777 33.3736L6.14675 35.7954L23.0075 33.0177L22.6085 30.5959L22.2095 28.1741L5.34879 30.9518L5.74777 33.3736ZM24.8479 26.3682L27.0755 25.3377L24.0769 18.8558L21.8493 19.8863L19.6217 20.9168L22.6203 27.3987L24.8479 26.3682ZM21.8493 19.8863L24.077 18.8558C24.6445 20.0826 23.3757 21.3514 22.1489 20.7839L23.1794 18.5562L24.2099 16.3286C21.2907 14.9782 18.2713 17.9976 19.6217 20.9168L21.8493 19.8863ZM23.1794 18.5562L22.1489 20.7838L27.9802 23.4815L29.0107 21.2539L30.0412 19.0263L24.2099 16.3286L23.1794 18.5562ZM33.2385 19.0144L35.6603 19.4133L38.2496 3.69243L35.8278 3.29354L33.406 2.89465L30.8167 18.6155L33.2385 19.0144ZM29.0107 21.2539L27.9802 23.4815C31.2556 24.9967 35.0738 22.9742 35.6603 19.4133L33.2385 19.0144L30.8167 18.6155C30.7575 18.9751 30.3719 19.1793 30.0412 19.0263L29.0107 21.2539ZM22.6085 30.5959L23.0075 33.0177C26.5683 32.431 28.5907 28.613 27.0755 25.3377L24.8479 26.3682L22.6203 27.3987C22.7732 27.7294 22.569 28.1149 22.2095 28.1741L22.6085 30.5959ZM24.1271 42.2367L26.3547 43.2672C27.8699 39.9918 25.8473 36.1736 22.2863 35.5872L21.8875 38.009L21.4887 40.4308C21.8483 40.49 22.0525 40.8755 21.8995 41.2062L24.1271 42.2367ZM32.9817 48.151L35.4035 47.7522C34.8169 44.1911 30.9985 42.1686 27.7231 43.6841L28.7537 45.9116L29.7844 48.1392C30.1151 47.9862 30.5007 48.1904 30.5599 48.5499L32.9817 48.151ZM44.8786 45.9115L45.9092 43.6839C42.6337 42.1685 38.8153 44.1912 38.2289 47.7523L40.6507 48.1511L43.0726 48.5499C43.1318 48.1903 43.5173 47.9861 43.848 48.1391L44.8786 45.9115ZM51.7451 38.009L51.3463 35.5872C47.7851 36.1736 45.7625 39.9921 47.2781 43.2676L49.5056 42.2369L51.7332 41.2063C51.5802 40.8755 51.7844 40.49 52.1439 40.4308L51.7451 38.009ZM48.7848 26.368L46.5573 25.3373C45.0418 28.6126 47.0642 32.4311 50.6252 33.0177L51.0241 30.5959L51.4231 28.1741C51.0635 28.1149 50.8593 27.7294 51.0124 27.3987L48.7848 26.368ZM40.394 19.0143L37.9721 19.4131C38.5585 22.9741 42.3766 24.9968 45.6521 23.4817L44.6216 21.254L43.5912 19.0264C43.2605 19.1793 42.875 18.9751 42.8158 18.6156L40.394 19.0143Z" fill="white" mask="url(#path-1-outside-1_1894_9668)"/>
</g>
<path d="M41.4534 24.7717C42.7084 24.7718 43.7258 25.7891 43.7258 27.0442C43.7258 28.2992 42.7084 29.3166 41.4534 29.3167C40.1983 29.3167 39.181 28.2993 39.1809 27.0442C39.1809 25.7891 40.1982 24.7717 41.4534 24.7717Z" fill="#252525" stroke="#252525" stroke-width="0.454524"/>
<path d="M33.2703 27.2706H37.361" stroke="#252525" stroke-width="2.27262" stroke-linecap="round"/>
<path d="M31.9077 29.9983C31.9077 29.9983 31.9077 36.1344 38.0438 36.1344C44.1798 36.1344 44.1798 29.9983 44.1798 29.9983" stroke="#252525" stroke-width="2.27262" stroke-linecap="round"/>
<defs>
<filter id="filter0_d_1894_9668" x="-8.13007e-05" y="0" width="73.6335" height="73.6335" filterUnits="userSpaceOnUse" color-interpolation-filters="sRGB">
<feFlood flood-opacity="0" result="BackgroundImageFix"/>
<feColorMatrix in="SourceAlpha" type="matrix" values="0 0 0 0 0 0 0 0 0 0 0 0 0 0 0 0 0 0 127 0" result="hardAlpha"/>
<feOffset dy="2.45443"/>
<feGaussianBlur stdDeviation="1.22721"/>
<feComposite in2="hardAlpha" operator="out"/>
<feColorMatrix type="matrix" values="0 0 0 0 0 0 0 0 0 0 0 0 0 0 0 0 0 0 0.35 0"/>
<feBlend mode="normal" in2="BackgroundImageFix" result="effect1_dropShadow_1894_9668"/>
<feBlend mode="normal" in="SourceGraphic" in2="effect1_dropShadow_1894_9668" result="shape"/>
</filter>
<radialGradient id="paint0_radial_1894_9668" cx="0" cy="0" r="1" gradientUnits="userSpaceOnUse" gradientTransform="translate(36.8167 34.3623) rotate(90) scale(18.4084 18.4084)">
<stop stop-color="#00FFE6"/>
<stop offset="1" stop-color="#FFEE00"/>
</radialGradient>
</defs>
</svg>
