<svg width="71" height="71" viewBox="0 0 71 71" fill="none" xmlns="http://www.w3.org/2000/svg">
<g filter="url(#filter0_d_1233_14055)">
<path d="M5.37524 2.92078C7.64811 0.647948 11.0509 1.01358 13.8157 1.98621C16.6644 2.98842 19.4259 4.82135 20.9954 6.3905V6.39148C21.0082 6.40436 21.0207 6.41761 21.0334 6.43054C25.3197 4.15382 30.2084 2.85828 35.3987 2.85828C40.5235 2.85831 45.3533 4.12235 49.5999 6.34558C51.1767 4.78647 53.9129 2.97886 56.7346 1.98621C59.4993 1.01361 62.9022 0.647995 65.175 2.92078C67.4478 5.19364 67.0822 8.59653 66.1096 11.3612C65.1678 14.0382 63.4912 16.6369 61.9905 18.243C64.5869 22.746 66.0781 27.9679 66.0784 33.538C66.0784 38.7495 64.7686 43.655 62.4749 47.953C63.8628 49.596 65.3224 51.9839 66.1584 54.4296C67.091 57.1574 67.4101 60.4855 65.175 62.7206C62.9796 64.9159 59.7283 64.6455 57.0383 63.7557C54.6314 62.9596 52.2716 61.5491 50.6067 60.1864C46.1229 62.7509 40.9313 64.2186 35.3987 64.2186C29.8053 64.2186 24.561 62.7181 20.0442 60.1014C18.3926 61.4749 16.0242 62.9073 13.6028 63.7245C10.8905 64.6398 7.59421 64.9394 5.37524 62.7206C3.10241 60.4477 3.46807 57.0449 4.44067 54.2802C5.31221 51.8028 6.81167 49.3911 8.21997 47.7723C5.98676 43.5175 4.71802 38.6747 4.71802 33.538C4.71831 28.0345 6.1695 22.8669 8.70923 18.3993C7.17169 16.8091 5.41376 14.1271 4.44067 11.3612C3.46805 8.59648 3.10239 5.19364 5.37524 2.92078Z" fill="#D9D9D9"/>
<path d="M5.37524 2.92078C7.64811 0.647948 11.0509 1.01358 13.8157 1.98621C16.6644 2.98842 19.4259 4.82135 20.9954 6.3905V6.39148C21.0082 6.40436 21.0207 6.41761 21.0334 6.43054C25.3197 4.15382 30.2084 2.85828 35.3987 2.85828C40.5235 2.85831 45.3533 4.12235 49.5999 6.34558C51.1767 4.78647 53.9129 2.97886 56.7346 1.98621C59.4993 1.01361 62.9022 0.647995 65.175 2.92078C67.4478 5.19364 67.0822 8.59653 66.1096 11.3612C65.1678 14.0382 63.4912 16.6369 61.9905 18.243C64.5869 22.746 66.0781 27.9679 66.0784 33.538C66.0784 38.7495 64.7686 43.655 62.4749 47.953C63.8628 49.596 65.3224 51.9839 66.1584 54.4296C67.091 57.1574 67.4101 60.4855 65.175 62.7206C62.9796 64.9159 59.7283 64.6455 57.0383 63.7557C54.6314 62.9596 52.2716 61.5491 50.6067 60.1864C46.1229 62.7509 40.9313 64.2186 35.3987 64.2186C29.8053 64.2186 24.561 62.7181 20.0442 60.1014C18.3926 61.4749 16.0242 62.9073 13.6028 63.7245C10.8905 64.6398 7.59421 64.9394 5.37524 62.7206C3.10241 60.4477 3.46807 57.0449 4.44067 54.2802C5.31221 51.8028 6.81167 49.3911 8.21997 47.7723C5.98676 43.5175 4.71802 38.6747 4.71802 33.538C4.71831 28.0345 6.1695 22.8669 8.70923 18.3993C7.17169 16.8091 5.41376 14.1271 4.44067 11.3612C3.46805 8.59648 3.10239 5.19364 5.37524 2.92078Z" fill="white"/>
<path d="M5.37524 2.92078C7.64811 0.647948 11.0509 1.01358 13.8157 1.98621C16.6644 2.98842 19.4259 4.82135 20.9954 6.3905V6.39148C21.0082 6.40436 21.0207 6.41761 21.0334 6.43054C25.3197 4.15382 30.2084 2.85828 35.3987 2.85828C40.5235 2.85831 45.3533 4.12235 49.5999 6.34558C51.1767 4.78647 53.9129 2.97886 56.7346 1.98621C59.4993 1.01361 62.9022 0.647995 65.175 2.92078C67.4478 5.19364 67.0822 8.59653 66.1096 11.3612C65.1678 14.0382 63.4912 16.6369 61.9905 18.243C64.5869 22.746 66.0781 27.9679 66.0784 33.538C66.0784 38.7495 64.7686 43.655 62.4749 47.953C63.8628 49.596 65.3224 51.9839 66.1584 54.4296C67.091 57.1574 67.4101 60.4855 65.175 62.7206C62.9796 64.9159 59.7283 64.6455 57.0383 63.7557C54.6314 62.9596 52.2716 61.5491 50.6067 60.1864C46.1229 62.7509 40.9313 64.2186 35.3987 64.2186C29.8053 64.2186 24.561 62.7181 20.0442 60.1014C18.3926 61.4749 16.0242 62.9073 13.6028 63.7245C10.8905 64.6398 7.59421 64.9394 5.37524 62.7206C3.10241 60.4477 3.46807 57.0449 4.44067 54.2802C5.31221 51.8028 6.81167 49.3911 8.21997 47.7723C5.98676 43.5175 4.71802 38.6747 4.71802 33.538C4.71831 28.0345 6.1695 22.8669 8.70923 18.3993C7.17169 16.8091 5.41376 14.1271 4.44067 11.3612C3.46805 8.59648 3.10239 5.19364 5.37524 2.92078Z" stroke="white" stroke-width="2.45443"/>
<path d="M6.24292 3.78906C9.7141 0.31837 17.2512 4.38526 20.1267 7.26074C20.3549 7.48899 20.5636 7.72954 20.7556 7.97852C25.0687 5.50255 30.0683 4.08691 35.3982 4.08691C40.6571 4.08695 45.5934 5.46674 49.8669 7.88184C50.0382 7.66715 50.2229 7.45953 50.4216 7.26074C53.2971 4.38523 60.8353 0.318141 64.3064 3.78906C67.7775 7.26014 63.7112 14.7983 60.8357 17.6738C60.7087 17.8008 60.5758 17.9194 60.4421 18.0352C63.2362 22.5387 64.8513 27.8505 64.8513 33.54C64.8513 38.8478 63.4459 43.8271 60.989 48.1279C63.8522 51.1127 67.7154 58.4433 64.3064 61.8525C60.9563 65.2027 53.8187 61.5308 50.74 58.6855C46.2716 61.4177 41.0191 62.9931 35.3982 62.9932C29.7144 62.9932 24.4075 61.3815 19.907 58.5928C16.8848 61.4498 9.62933 65.239 6.24292 61.8525C2.77191 58.3815 6.83809 50.8444 9.71362 47.9688C9.71439 47.968 9.71481 47.9666 9.71558 47.9658C7.31552 43.7021 5.94507 38.7814 5.94507 33.54C5.94508 27.9088 7.52498 22.6465 10.2664 18.1729C10.0761 18.0173 9.89115 17.8513 9.71362 17.6738C6.83808 14.7983 2.77184 7.26015 6.24292 3.78906Z" fill="#D9D9D9"/>
<path d="M6.24292 3.78906C9.7141 0.31837 17.2512 4.38526 20.1267 7.26074C20.3549 7.48899 20.5636 7.72954 20.7556 7.97852C25.0687 5.50255 30.0683 4.08691 35.3982 4.08691C40.6571 4.08695 45.5934 5.46674 49.8669 7.88184C50.0382 7.66715 50.2229 7.45953 50.4216 7.26074C53.2971 4.38523 60.8353 0.318141 64.3064 3.78906C67.7775 7.26014 63.7112 14.7983 60.8357 17.6738C60.7087 17.8008 60.5758 17.9194 60.4421 18.0352C63.2362 22.5387 64.8513 27.8505 64.8513 33.54C64.8513 38.8478 63.4459 43.8271 60.989 48.1279C63.8522 51.1127 67.7154 58.4433 64.3064 61.8525C60.9563 65.2027 53.8187 61.5308 50.74 58.6855C46.2716 61.4177 41.0191 62.9931 35.3982 62.9932C29.7144 62.9932 24.4075 61.3815 19.907 58.5928C16.8848 61.4498 9.62933 65.239 6.24292 61.8525C2.77191 58.3815 6.83809 50.8444 9.71362 47.9688C9.71439 47.968 9.71481 47.9666 9.71558 47.9658C7.31552 43.7021 5.94507 38.7814 5.94507 33.54C5.94508 27.9088 7.52498 22.6465 10.2664 18.1729C10.0761 18.0173 9.89115 17.8513 9.71362 17.6738C6.83808 14.7983 2.77184 7.26015 6.24292 3.78906Z" fill="url(#paint0_linear_1233_14055)"/>
<path d="M26.9969 14.7253L30.3312 18.0596C30.692 18.4204 31.2502 18.4939 31.6921 18.2388L37.0283 15.1579C37.4703 14.9028 38.0284 14.9762 38.3893 15.3371L41.7235 18.6713" stroke="#252525" stroke-width="2.81855" stroke-linecap="round"/>
<circle cx="31.2237" cy="25.1541" r="3.10041" fill="#252525"/>
<circle cx="37.9882" cy="25.1541" r="3.10041" fill="#252525"/>
</g>
<defs>
<filter id="filter0_d_1233_14055" x="4.07696e-05" y="0" width="70.55" height="70.5486" filterUnits="userSpaceOnUse" color-interpolation-filters="sRGB">
<feFlood flood-opacity="0" result="BackgroundImageFix"/>
<feColorMatrix in="SourceAlpha" type="matrix" values="0 0 0 0 0 0 0 0 0 0 0 0 0 0 0 0 0 0 127 0" result="hardAlpha"/>
<feOffset dy="2.45443"/>
<feGaussianBlur stdDeviation="1.22721"/>
<feComposite in2="hardAlpha" operator="out"/>
<feColorMatrix type="matrix" values="0 0 0 0 0 0 0 0 0 0 0 0 0 0 0 0 0 0 0.35 0"/>
<feBlend mode="normal" in2="BackgroundImageFix" result="effect1_dropShadow_1233_14055"/>
<feBlend mode="normal" in="SourceGraphic" in2="effect1_dropShadow_1233_14055" result="shape"/>
</filter>
<linearGradient id="paint0_linear_1233_14055" x1="8.41181" y1="5.95795" x2="65.6413" y2="63.1875" gradientUnits="userSpaceOnUse">
<stop stop-color="#C5FFD2"/>
<stop offset="1" stop-color="#83E9FF"/>
</linearGradient>
</defs>
</svg>
