<svg width="74" height="76" viewBox="0 0 74 76" fill="none" xmlns="http://www.w3.org/2000/svg">
<g filter="url(#filter0_d_1233_14016)">
<circle cx="38.0418" cy="38.0437" r="20.8626" fill="white"/>
<path d="M33.3368 1.23865C35.7579 1.35024 37.6561 2.29775 38.7137 4.14587C39.0787 4.78386 39.2892 5.45821 39.411 6.0824C39.5338 5.86057 39.6546 5.65418 39.7733 5.46619L39.9921 5.1322C40.0659 5.02344 40.1367 4.92063 40.2059 4.82556L40.1278 4.74744L40.9315 3.94373C40.9392 3.93523 40.9532 3.92051 40.9706 3.90271L40.9852 3.88708L41.1278 3.74353L41.1346 3.73962L41.8036 3.07068L41.9999 3.23962C42.9768 2.88183 44.1153 3.09085 44.9012 3.87537H44.9022C45.1711 4.14428 45.37 4.45446 45.5038 4.78357C51.9928 1.9863 59.8984 1.51493 65.5487 7.16443C69.8017 11.4187 70.5879 16.9983 69.5145 22.2347C68.446 27.4476 65.5207 32.4586 62.1171 35.8627C62.112 35.868 62.1054 35.8776 62.1053 35.8969C62.1053 35.9065 62.1071 35.9148 62.1093 35.9203C62.1111 35.9248 62.1134 35.9283 62.1171 35.932L62.4344 36.2552C65.7017 39.6488 68.4803 44.5089 69.5155 49.559C70.5554 54.6318 69.8492 60.0268 65.9374 64.2269L65.5487 64.6302C61.2944 68.8834 55.7143 69.6707 50.4774 68.598C45.4267 67.5634 40.5655 64.7853 37.1718 61.5179L36.8485 61.2006C36.8441 61.1962 36.8403 61.1936 36.8358 61.1918C36.8303 61.1896 36.8225 61.1879 36.8134 61.1879C36.8044 61.1879 36.797 61.1897 36.7919 61.1918C36.7876 61.1935 36.7835 61.1962 36.7792 61.2006C33.3749 64.6043 28.3636 67.5298 23.1503 68.598C17.9132 69.671 12.3322 68.8843 8.078 64.6302C3.82519 60.3759 3.0388 54.7954 4.11218 49.559C5.18079 44.3462 8.10711 39.336 11.5106 35.932L11.5194 35.9193C11.5216 35.9138 11.5233 35.9055 11.5233 35.8959C11.5233 35.8864 11.5216 35.878 11.5194 35.8724C11.5176 35.868 11.5146 35.8648 11.5106 35.8607V35.8597C8.10721 32.4558 5.18163 27.4456 4.11316 22.2328C3.03989 16.9964 3.82583 11.4168 8.078 7.16248V7.1615C13.5136 1.72603 21.0518 1.96004 27.3759 4.47009C27.6997 3.79573 28.1844 3.09443 28.9149 2.5072H28.9159C29.9832 1.64983 31.3295 1.22693 32.8456 1.22693L33.3368 1.23865ZM29.451 19.9418C24.7071 19.9424 20.8613 23.7887 20.8612 28.5326C20.8613 30.5288 21.5412 32.3643 22.6835 33.8226L22.9178 34.1088L22.9188 34.1097C23.789 35.1295 23.7899 36.6624 22.9178 37.683C21.6348 39.184 20.8613 41.1299 20.8612 43.2592C20.8615 48.003 24.7073 51.8484 29.451 51.849C31.5793 51.8489 33.5239 51.0742 35.0253 49.7904C35.9822 48.9722 37.3921 48.9217 38.4052 49.6371L38.6024 49.7904L38.8885 50.0258C40.3468 51.1687 42.1817 51.8488 44.1776 51.849C48.9216 51.8487 52.7682 48.0031 52.7684 43.2592C52.7684 41.1302 51.9936 39.1851 50.7098 37.684L50.7089 37.683C49.837 36.6626 49.8365 35.1262 50.7089 34.1058H50.7098C51.9935 32.6045 52.7683 30.6608 52.7684 28.5326C52.7683 24.1928 49.5494 20.6059 45.369 20.0258C45.3907 20.1994 45.4051 20.3763 45.4052 20.556C45.4051 22.8542 43.6 24.7299 41.3309 24.8451L41.1102 24.851C39.5459 24.851 38.1749 24.0146 37.4227 22.7631C36.7032 23.9621 35.4191 24.7845 33.9296 24.847L33.7469 24.851C31.3748 24.851 29.4521 22.9282 29.452 20.556C29.4521 20.3484 29.4665 20.1434 29.495 19.9427C29.4805 19.9427 29.4656 19.9418 29.451 19.9418ZM34.12 8.28357C34.3883 8.48797 34.6511 8.69621 34.9081 8.90662L34.6132 9.26599C34.6189 9.26972 34.6249 9.27305 34.6307 9.27673C34.8137 9.0475 34.9628 8.84059 35.0741 8.66052L35.1757 8.48474C35.2262 8.38961 35.2521 8.32315 35.2665 8.28357H34.12ZM32.8456 6.74939C32.6024 6.74939 32.4695 6.78152 32.412 6.80017C32.3976 6.80486 32.3863 6.80767 32.3788 6.81091C32.3662 6.82871 32.3378 6.87714 32.3055 6.97791C32.3026 6.98714 32.3005 6.99674 32.2977 7.00623C32.8645 7.37192 33.4134 7.7541 33.9413 8.14978C33.9849 8.08613 34.02 8.02986 34.0487 7.98181C34.0447 7.68462 34.0362 7.45297 34.0126 7.26306C33.9868 7.05554 33.9498 6.95469 33.9286 6.90857C33.9254 6.90689 33.9217 6.90559 33.9178 6.90369C33.8268 6.85853 33.533 6.74957 32.8456 6.74939Z" fill="white" stroke="white" stroke-width="2.45443"/>
<path d="M8.94629 7.9469C16.711 0.180831 29.4106 4.8807 35.9082 11.3795C36.4029 11.8741 37.2261 11.8781 37.7207 11.3834C44.2183 4.88457 56.9178 0.184683 64.6826 7.95081C72.4466 15.7171 67.7485 28.4189 61.251 34.9176C60.7594 35.4093 60.7633 36.2267 61.2549 36.7184C67.752 43.2174 72.4503 55.9191 64.6865 63.6852C56.9219 71.4512 44.2223 66.7513 37.7246 60.2526C37.2282 59.756 36.4056 59.756 35.9092 60.2526C29.4116 66.7514 16.712 71.4511 8.94727 63.6852C1.18355 55.919 5.88167 43.2173 12.3789 36.7184C12.8722 36.225 12.8711 35.4071 12.3779 34.9137C5.88051 28.4149 1.18224 15.7131 8.94629 7.9469ZM44.1777 18.6354C41.7448 18.6355 39.5195 19.521 37.8047 20.9869C37.2434 21.4667 36.3856 21.4666 35.8242 20.9869C34.1094 19.5211 31.884 18.6354 29.4512 18.6354C24.0293 18.6356 19.634 23.0308 19.6338 28.4528C19.6339 30.8853 20.5197 33.1101 21.9854 34.8248C22.4652 35.3862 22.4652 36.2449 21.9854 36.8063C20.5195 38.521 19.6338 40.7465 19.6338 43.1793C19.634 48.6012 24.0292 52.9965 29.4512 52.9967C31.8841 52.9967 34.1095 52.1101 35.8242 50.6442C36.3855 50.1647 37.2435 50.1647 37.8047 50.6442C39.5194 52.1101 41.7448 52.9966 44.1777 52.9967C49.5998 52.9967 53.9959 48.6013 53.9961 43.1793C53.9961 40.7464 53.1097 38.521 51.6436 36.8063C51.1636 36.2449 51.1636 35.3862 51.6436 34.8248C53.1095 33.1102 53.996 30.8855 53.9961 28.4528C53.996 23.0307 49.5998 18.6354 44.1777 18.6354Z" fill="url(#paint0_linear_1233_14016)"/>
<path d="M29.4852 8.204C29.4852 8.204 28.8744 3.90869 32.8446 3.90869C36.8148 3.90869 36.8148 6.55196 36.8148 8.204C36.8148 9.28713 35.1082 11.0601 33.9328 12.1528C33.2598 12.7784 32.8446 13.6456 32.8446 14.5644V15.5674" stroke="#252525" stroke-width="3.06808" stroke-linecap="round"/>
<path d="M40.8036 15.5672C40.8036 15.5672 40.19 12.806 40.8036 10.0447C41.4172 7.28343 42.9513 5.74939 42.9513 5.74939" stroke="#252525" stroke-width="3.06808" stroke-linecap="round"/>
<circle cx="33.7465" cy="20.4759" r="3.06808" fill="#252525"/>
<circle cx="41.1098" cy="20.4759" r="3.06808" fill="#252525"/>
</g>
<defs>
<filter id="filter0_d_1233_14016" x="4.07696e-05" y="0" width="73.6276" height="75.1647" filterUnits="userSpaceOnUse" color-interpolation-filters="sRGB">
<feFlood flood-opacity="0" result="BackgroundImageFix"/>
<feColorMatrix in="SourceAlpha" type="matrix" values="0 0 0 0 0 0 0 0 0 0 0 0 0 0 0 0 0 0 127 0" result="hardAlpha"/>
<feOffset dy="2.45443"/>
<feGaussianBlur stdDeviation="1.22721"/>
<feComposite in2="hardAlpha" operator="out"/>
<feColorMatrix type="matrix" values="0 0 0 0 0 0 0 0 0 0 0 0 0 0 0 0 0 0 0.35 0"/>
<feBlend mode="normal" in2="BackgroundImageFix" result="effect1_dropShadow_1233_14016"/>
<feBlend mode="normal" in="SourceGraphic" in2="effect1_dropShadow_1233_14016" result="shape"/>
</filter>
<linearGradient id="paint0_linear_1233_14016" x1="8.58815" y1="7.58781" x2="68.7262" y2="67.7255" gradientUnits="userSpaceOnUse">
<stop offset="0.45" stop-color="#FAC1FF"/>
<stop offset="1" stop-color="#FFAAAC"/>
</linearGradient>
</defs>
</svg>
