<svg width="74" height="74" viewBox="0 0 74 74" fill="none" xmlns="http://www.w3.org/2000/svg">
<g filter="url(#filter0_d_1233_14105)">
<path d="M36.8162 1.22693C41.1157 1.22693 44.8622 3.58347 46.8396 7.06873C47.245 7.78323 48.234 8.19265 49.0261 7.974C52.8894 6.90764 57.2054 7.89196 60.2458 10.932C63.2862 13.9724 64.2685 18.2873 63.2019 22.1498C62.9833 22.9417 63.3933 23.9309 64.1082 24.3363C67.5945 26.3138 69.9508 30.0616 69.9509 34.3617C69.9509 38.6618 67.5941 42.4081 64.1082 44.3851C63.3936 44.7904 62.9835 45.7796 63.2019 46.5717C64.2689 50.4348 63.2863 54.7507 60.2458 57.7914C57.2051 60.8321 52.8893 61.8145 49.0261 60.7474C48.2341 60.5289 47.2449 60.9391 46.8396 61.6537C44.8626 65.1397 41.1163 67.4965 36.8162 67.4965C32.5161 67.4963 28.7683 65.14 26.7908 61.6537C26.3853 60.9389 25.3962 60.5288 24.6042 60.7474C20.7418 61.814 16.4268 60.8315 13.3865 57.7914C10.3462 54.7509 9.36296 50.435 10.4294 46.5717C10.6481 45.7796 10.2377 44.7905 9.52319 44.3851C6.03791 42.4078 3.6814 38.6612 3.6814 34.3617C3.68152 30.0622 6.03764 26.3142 9.52319 24.3363C10.2378 23.9308 10.648 22.9417 10.4294 22.1498C9.36364 18.2871 10.3466 13.9721 13.3865 10.932C16.4266 7.89184 20.7424 6.90893 24.6052 7.97498C25.3968 8.19319 26.3852 7.78382 26.7908 7.0697C28.7686 3.58403 32.5166 1.22705 36.8162 1.22693ZM36.9695 18.8929C36.8633 18.8163 36.7119 18.8297 36.6208 18.932L34.1501 21.7113C33.4963 22.4469 32.4957 22.7702 31.5369 22.5599L27.906 21.764C27.7711 21.7345 27.6402 21.8146 27.5994 21.9388L27.5876 21.9945L27.2234 25.6957H27.2224C27.1317 26.6112 26.5852 27.4154 25.7751 27.8373L25.6091 27.9174L22.2009 29.4066C22.0593 29.4689 22.0017 29.6429 22.0818 29.7797H22.0828L23.9617 32.9896C24.4269 33.7844 24.4558 34.7567 24.0486 35.5736L23.9617 35.7347L22.0828 38.9437L22.0818 38.9447C22.0022 39.0809 22.0594 39.253 22.2 39.3158H22.2009L25.6091 40.807C26.5098 41.2012 27.1255 42.0511 27.2224 43.0277L27.2234 43.0287L27.5876 46.7299C27.6032 46.8846 27.7519 46.9941 27.906 46.9603V46.9594L31.5369 46.1644C32.4956 45.9542 33.4963 46.2768 34.1501 47.0121L36.6208 49.7924L36.6638 49.8304C36.77 49.9071 36.9214 49.8947 37.0125 49.7924L39.4822 47.0121C40.136 46.2765 41.1376 45.9542 42.0964 46.1644H42.0955L45.7273 46.9594V46.9603C45.8814 46.9941 46.0301 46.8846 46.0457 46.7299L46.4099 43.0287V43.0277C46.5068 42.0511 47.1234 41.2012 48.0242 40.807L51.4324 39.3158C51.5734 39.2532 51.6305 39.0812 51.5505 38.9447V38.9437L49.6716 35.7347C49.1752 34.887 49.1753 33.8374 49.6716 32.9896L51.5505 29.7797L51.575 29.7269C51.6156 29.6013 51.5554 29.4621 51.4314 29.4076V29.4066L48.0242 27.9174C47.1796 27.5477 46.585 26.7771 46.4343 25.8773L46.4099 25.6957L46.0457 21.9945C46.0322 21.859 45.9168 21.7587 45.7849 21.7582L45.7273 21.764L42.0955 22.559L42.0964 22.5599C41.1376 22.7702 40.136 22.4469 39.4822 21.7113L37.0125 18.932L36.9695 18.8929Z" fill="white" stroke="white" stroke-width="2.45443"/>
<circle cx="36.8165" cy="34.362" r="17.181" fill="white"/>
<path d="M36.8171 2.45447C40.6571 2.45454 44.005 4.55765 45.7736 7.67472C46.4564 8.87828 48.0198 9.52586 49.3537 9.15775C52.8085 8.20436 56.6634 9.08488 59.3787 11.8002C62.094 14.5155 62.9736 18.3699 62.0198 21.8245C61.6514 23.1586 62.2992 24.7224 63.503 25.4052C66.6207 27.1738 68.7244 30.5223 68.7244 34.3627C68.7243 38.2028 66.6208 41.5506 63.5035 43.3191C62.2998 44.002 61.6522 45.5655 62.0204 46.8995C62.9741 50.3542 62.094 54.2089 59.3787 56.9242C56.6633 59.6395 52.8089 60.5191 49.3542 59.5653C48.0201 59.1969 46.4565 59.8446 45.7736 61.0484C44.0052 64.1657 40.6573 66.2689 36.8171 66.2689C32.9769 66.2689 29.6284 64.1658 27.8598 61.0485C27.1769 59.8447 25.6131 59.197 24.279 59.5653C20.8244 60.5193 16.9701 59.6396 14.2546 56.9242C11.5393 54.2088 10.6587 50.354 11.6122 46.8992C11.9803 45.5653 11.3328 44.0019 10.1292 43.319C7.01219 41.5504 4.90901 38.2026 4.90894 34.3627C4.90894 30.5225 7.01234 27.174 10.1297 25.4053C11.3334 24.7224 11.9811 23.1588 11.6128 21.8248C10.6592 18.3701 11.5394 14.5155 14.2546 11.8002C16.97 9.08484 20.8245 8.20472 24.2792 9.15834C25.6133 9.52658 27.1768 8.87887 27.8598 7.67516C29.6284 4.55778 32.9769 2.45447 36.8171 2.45447ZM37.9294 18.1166C37.3371 17.4505 36.2962 17.4504 35.7039 18.1166L33.2332 20.8969C32.8753 21.2993 32.3276 21.4769 31.8015 21.3617L28.1687 20.5648C27.2978 20.3739 26.4556 20.9862 26.3679 21.8734L26.0027 25.5746C25.9498 26.1108 25.6106 26.5763 25.1169 26.7924L21.7107 28.2836C20.8939 28.641 20.5715 29.6314 21.0222 30.4008L22.9021 33.6097C23.1745 34.0747 23.1745 34.6507 22.9021 35.1156L21.0222 38.3236C20.5715 39.0929 20.8938 40.0834 21.7107 40.4408L25.1169 41.932C25.6105 42.148 25.9497 42.6136 26.0027 43.1498L26.3679 46.851C26.4554 47.7383 27.2977 48.3505 28.1687 48.1595L31.8015 47.3627C32.3277 47.2475 32.8753 47.4259 33.2332 47.8285L35.7039 50.6078C36.2962 51.2742 37.337 51.2741 37.9294 50.6078L40.4001 47.8285C40.7581 47.4258 41.3064 47.2473 41.8328 47.3627L45.4656 48.1595C46.3364 48.3503 47.1788 47.7382 47.2664 46.851L47.6316 43.1498C47.6846 42.6136 48.0228 42.148 48.5164 41.932L51.9236 40.4408C52.7402 40.0832 53.0618 39.0928 52.6111 38.3236L50.7312 35.1156C50.4588 34.6507 50.4589 34.0746 50.7312 33.6097L52.6111 30.4008C53.0618 29.6315 52.7403 28.6411 51.9236 28.2836L48.5164 26.7924C48.0227 26.5763 47.6845 26.1108 47.6316 25.5746L47.2664 21.8734C47.1788 20.9863 46.3363 20.3741 45.4656 20.5648L41.8328 21.3617C41.3064 21.4771 40.7581 21.2996 40.4001 20.8969L37.9294 18.1166Z" fill="url(#paint0_radial_1233_14105)"/>
<path d="M36.1226 22.3571C36.1226 22.3571 38.9218 22.2594 40.1243 20.7564C41.1916 19.4224 41.1916 17.5549 41.1916 17.5549" stroke="#252525" stroke-width="2.66786" stroke-linecap="round"/>
<circle cx="32.3879" cy="12.7524" r="2.93464" fill="#252525"/>
<circle cx="38.7907" cy="12.7524" r="2.93464" fill="#252525"/>
</g>
<defs>
<filter id="filter0_d_1233_14105" x="4.07696e-05" y="0" width="73.6329" height="73.6329" filterUnits="userSpaceOnUse" color-interpolation-filters="sRGB">
<feFlood flood-opacity="0" result="BackgroundImageFix"/>
<feColorMatrix in="SourceAlpha" type="matrix" values="0 0 0 0 0 0 0 0 0 0 0 0 0 0 0 0 0 0 127 0" result="hardAlpha"/>
<feOffset dy="2.45443"/>
<feGaussianBlur stdDeviation="1.22721"/>
<feComposite in2="hardAlpha" operator="out"/>
<feColorMatrix type="matrix" values="0 0 0 0 0 0 0 0 0 0 0 0 0 0 0 0 0 0 0.35 0"/>
<feBlend mode="normal" in2="BackgroundImageFix" result="effect1_dropShadow_1233_14105"/>
<feBlend mode="normal" in="SourceGraphic" in2="effect1_dropShadow_1233_14105" result="shape"/>
</filter>
<radialGradient id="paint0_radial_1233_14105" cx="0" cy="0" r="1" gradientUnits="userSpaceOnUse" gradientTransform="translate(36.8167 34.3617) rotate(90) scale(31.9072 31.9077)">
<stop stop-color="#00FFD9"/>
<stop offset="1" stop-color="#CCFFA1"/>
</radialGradient>
</defs>
</svg>
