<svg width="89" height="89" viewBox="0 0 89 89" fill="none" xmlns="http://www.w3.org/2000/svg">
<g filter="url(#filter0_d_1233_14069)">
<path d="M43.6713 5.62708C44.6297 4.66883 46.1835 4.66894 47.142 5.62708C48.1004 6.58554 48.1003 8.13925 47.142 9.09778L46.3529 9.88586C46.4852 9.89412 46.6175 9.9015 46.7494 9.91125L48.5804 8.08118C49.539 7.12266 51.0926 7.12266 52.0511 8.08118C52.7981 8.82841 52.9591 9.93534 52.5414 10.8419C67.4776 14.5764 78.5413 28.0845 78.5414 44.1779C78.5414 63.1555 63.1567 78.5402 44.1791 78.5402C25.2017 78.5399 9.81775 63.1553 9.81775 44.1779C9.81788 26.8076 22.7069 12.4494 39.4427 10.1417C39.5625 9.8386 39.7445 9.55388 39.9896 9.30872L43.6713 5.62708Z" fill="white"/>
<path d="M74.1917 44.6929C74.8694 44.7044 75.4306 44.1642 75.4155 43.4866C75.3754 41.6869 75.1799 39.894 74.831 38.1279C74.6996 37.463 74.0351 37.0565 73.3759 37.2139L53.6314 41.9268C52.2283 42.2618 52.4531 44.323 53.8955 44.3476L74.1917 44.6929Z" fill="url(#paint0_linear_1233_14069)"/>
<path d="M72.6164 34.5757C73.2585 34.3587 73.6055 33.6613 73.3636 33.0282C72.7208 31.3467 71.934 29.7238 71.0118 28.1778C70.6646 27.5957 69.9021 27.4362 69.3341 27.806L52.3227 38.8816C51.1137 39.6687 52.0184 41.5344 53.3851 41.0727L72.6164 34.5757Z" fill="url(#paint1_linear_1233_14069)"/>
<path d="M67.9908 25.9089C68.5285 25.4962 68.6317 24.7241 68.1982 24.2031C67.047 22.8191 65.7782 21.5373 64.4062 20.3719C63.8896 19.9331 63.1165 20.0283 62.6984 20.5618L50.1746 36.5371C49.2846 37.6724 50.7432 39.1461 51.8876 38.2678L67.9908 25.9089Z" fill="url(#paint2_linear_1233_14069)"/>
<path d="M60.8911 19.2491C61.2684 18.6861 61.1191 17.9216 60.5417 17.5667C59.008 16.624 57.3957 15.8157 55.7229 15.1507C55.093 14.9003 54.3911 15.238 54.1656 15.8772L47.4138 35.0206C46.934 36.381 48.7875 37.3103 49.5906 36.112L60.8911 19.2491Z" fill="url(#paint3_linear_1233_14069)"/>
<path d="M52.0055 15.2059C52.1822 14.5516 51.7954 13.8754 51.1347 13.7246C49.3796 13.3239 47.5932 13.0757 45.7954 12.9827C45.1186 12.9477 44.5621 13.4928 44.5537 14.1705L44.302 34.4681C44.2841 35.9106 46.3379 36.196 46.7139 34.8033L52.0055 15.2059Z" fill="url(#paint4_linear_1233_14069)"/>
<path d="M42.3196 14.2255C42.2775 13.549 41.6947 13.0322 41.0204 13.1008C39.2294 13.2829 37.4576 13.6195 35.7246 14.1068C35.0721 14.2903 34.7194 14.9848 34.9283 15.6296L41.1865 34.94C41.6312 36.3124 43.6682 35.9254 43.5787 34.4856L42.3196 14.2255Z" fill="url(#paint5_linear_1233_14069)"/>
<path d="M32.7472 16.4318C32.4889 15.8051 31.7704 15.5042 31.1544 15.7868C29.5182 16.5375 27.9499 17.4283 26.4671 18.449C25.9089 18.8334 25.7993 19.6046 26.2053 20.1473L38.3636 36.4026C39.2276 37.5578 41.0306 36.5338 40.481 35.2L32.7472 16.4318Z" fill="url(#paint6_linear_1233_14069)"/>
<path d="M24.4654 21.5502C24.0202 21.0392 23.2432 20.9841 22.75 21.449C21.4402 22.6839 20.2395 24.0297 19.1614 25.4714C18.7555 26.0142 18.8985 26.7799 19.4569 27.1642L36.1783 38.6729C37.3666 39.4907 38.747 37.9435 37.7994 36.8558L24.4654 21.5502Z" fill="url(#paint7_linear_1233_14069)"/>
<path d="M18.037 29.4351C17.4466 29.1021 16.6958 29.3098 16.3863 29.9128C15.5643 31.5143 14.8822 33.1839 14.3478 34.9029C14.1465 35.5501 14.5372 36.2241 15.1918 36.3997L34.7974 41.6607C36.1906 42.0346 36.9748 40.1151 35.7183 39.4065L18.037 29.4351Z" fill="url(#paint8_linear_1233_14069)"/>
<path d="M14.6935 38.5791C14.0276 38.4526 13.3828 38.8897 13.2825 39.56C13.0163 41.3404 12.9045 43.1405 12.9484 44.9401C12.9649 45.6177 13.5507 46.1311 14.2271 46.088L34.4852 44.7973C35.9248 44.7055 36.0534 42.636 34.6361 42.3669L14.6935 38.5791Z" fill="url(#paint9_linear_1233_14069)"/>
<path d="M14.466 48.4009C13.795 48.4962 13.3258 49.118 13.4474 49.7848C13.7704 51.5558 14.2458 53.2955 14.8684 54.9846C15.1028 55.6206 15.823 55.9174 16.4493 55.6582L35.2054 47.8951C36.5383 47.3434 35.9917 45.3433 34.5635 45.5461L14.466 48.4009Z" fill="url(#paint10_linear_1233_14069)"/>
<path d="M17.3782 57.6891C16.773 57.9942 16.5275 58.7334 16.8561 59.3262C17.7289 60.9007 18.7362 62.3968 19.8667 63.7977C20.2923 64.3252 21.0696 64.3759 21.58 63.9299L36.8647 50.572C37.951 49.6227 36.793 47.9027 35.5048 48.5521L17.3782 57.6891Z" fill="url(#paint11_linear_1233_14069)"/>
<path d="M23.131 65.5757C22.6557 66.0589 22.6604 66.8378 23.1619 67.2938C24.4938 68.5049 25.9279 69.5986 27.4481 70.5627C28.0205 70.9257 28.773 70.7243 29.1132 70.1381L39.3031 52.5818C40.0272 51.3341 38.3785 50.0767 37.3669 51.1051L23.131 65.5757Z" fill="url(#paint12_linear_1233_14069)"/>
<path d="M31.0883 71.1871C30.7926 71.797 31.0464 72.5334 31.6675 72.8049C33.3169 73.526 35.0256 74.1032 36.7745 74.53C37.4329 74.6907 38.0813 74.259 38.216 73.5948L42.2508 53.7006C42.5375 52.2868 40.5731 51.6232 39.9438 52.9213L31.0883 71.1871Z" fill="url(#paint13_linear_1233_14069)"/>
<path d="M40.5089 73.9681C40.426 74.6408 40.904 75.2558 41.5795 75.3122C43.3734 75.4621 45.177 75.4566 46.97 75.2959C47.645 75.2353 48.1193 74.6174 48.0323 73.9452L45.427 53.8139C45.2418 52.3833 43.1684 52.3896 42.9919 53.8213L40.5089 73.9681Z" fill="url(#paint14_linear_1233_14069)"/>
<path d="M50.2372 73.5761C50.374 74.2399 51.0237 74.6696 51.6816 74.5069C53.4292 74.0747 55.1361 73.4923 56.7833 72.7661C57.4035 72.4927 57.6551 71.7555 57.3575 71.1465L48.4459 52.9081C47.8126 51.6119 45.8502 52.2815 46.1413 53.6944L50.2372 73.5761Z" fill="url(#paint15_linear_1233_14069)"/>
<path d="M59.7553 69.8334C60.107 70.4128 60.8633 70.5994 61.4284 70.2252C62.9293 69.2312 64.3415 68.1094 65.6493 66.8723C66.1416 66.4065 66.131 65.6276 65.6462 65.1539L51.1277 50.967C50.0959 49.9588 48.4723 51.2485 49.221 52.4816L59.7553 69.8334Z" fill="url(#paint16_linear_1233_14069)"/>
<path d="M67.5487 63.0103C68.0765 63.4356 68.8511 63.354 69.2554 62.8099C70.3291 61.365 71.2758 59.8299 72.0851 58.2219C72.3899 57.6165 72.1151 56.8876 71.4982 56.6069L53.0215 48.2002C51.7085 47.6028 50.62 49.3676 51.7432 50.2728L67.5487 63.0103Z" fill="url(#paint17_linear_1233_14069)"/>
<path d="M72.5026 54.1154C73.1422 54.3398 73.845 54.0038 74.0441 53.356C74.5729 51.6352 74.9519 49.8719 75.1771 48.0859C75.2618 47.4134 74.7592 46.8183 74.0839 46.76L53.8599 45.0144C52.4227 44.8904 51.9869 46.9175 53.3481 47.3951L72.5026 54.1154Z" fill="url(#paint18_linear_1233_14069)"/>
<circle cx="40.1912" cy="26.3419" r="3.37484" fill="#252525"/>
<circle cx="47.5545" cy="26.3419" r="3.37484" fill="#252525"/>
<path d="M39.7275 20.2056C39.7275 20.2056 38.7001 16.4295 39.7275 14.315C40.6961 12.3215 44.1797 10.3879 44.1797 10.3879" stroke="#252525" stroke-width="3.06803" stroke-linecap="round"/>
<path d="M46.842 20.2057C46.842 20.2057 46.3743 17.4615 46.842 15.9104C47.3144 14.3436 49.0886 12.8424 49.0886 12.8424" stroke="#252525" stroke-width="3.06803" stroke-linecap="round"/>
</g>
<defs>
<filter id="filter0_d_1233_14069" x="7.36332" y="4.90845" width="73.6325" height="78.5406" filterUnits="userSpaceOnUse" color-interpolation-filters="sRGB">
<feFlood flood-opacity="0" result="BackgroundImageFix"/>
<feColorMatrix in="SourceAlpha" type="matrix" values="0 0 0 0 0 0 0 0 0 0 0 0 0 0 0 0 0 0 127 0" result="hardAlpha"/>
<feOffset dy="2.45443"/>
<feGaussianBlur stdDeviation="1.22721"/>
<feComposite in2="hardAlpha" operator="out"/>
<feColorMatrix type="matrix" values="0 0 0 0 0 0 0 0 0 0 0 0 0 0 0 0 0 0 0.25 0"/>
<feBlend mode="normal" in2="BackgroundImageFix" result="effect1_dropShadow_1233_14069"/>
<feBlend mode="normal" in="SourceGraphic" in2="effect1_dropShadow_1233_14069" result="shape"/>
</filter>
<linearGradient id="paint0_linear_1233_14069" x1="29.3588" y1="27.981" x2="59.422" y2="59.0849" gradientUnits="userSpaceOnUse">
<stop stop-color="#FFBF00"/>
<stop offset="1" stop-color="#FF7300"/>
</linearGradient>
<linearGradient id="paint1_linear_1233_14069" x1="24.7747" y1="33.9061" x2="63.5437" y2="53.0949" gradientUnits="userSpaceOnUse">
<stop stop-color="#FFBF00"/>
<stop offset="1" stop-color="#FF7300"/>
</linearGradient>
<linearGradient id="paint2_linear_1233_14069" x1="22.4957" y1="40.7235" x2="65.3841" y2="46.3656" gradientUnits="userSpaceOnUse">
<stop stop-color="#FFBF00"/>
<stop offset="1" stop-color="#FF7300"/>
</linearGradient>
<linearGradient id="paint3_linear_1233_14069" x1="22.5308" y1="47.8458" x2="64.969" y2="39.4641" gradientUnits="userSpaceOnUse">
<stop stop-color="#FFBF00"/>
<stop offset="1" stop-color="#FF7300"/>
</linearGradient>
<linearGradient id="paint4_linear_1233_14069" x1="24.8506" y1="54.6" x2="62.3547" y2="33.0432" gradientUnits="userSpaceOnUse">
<stop stop-color="#FFBF00"/>
<stop offset="1" stop-color="#FF7300"/>
</linearGradient>
<linearGradient id="paint5_linear_1233_14069" x1="29.2017" y1="60.2385" x2="57.8334" y2="27.812" gradientUnits="userSpaceOnUse">
<stop stop-color="#FFBF00"/>
<stop offset="1" stop-color="#FF7300"/>
</linearGradient>
<linearGradient id="paint6_linear_1233_14069" x1="35.1899" y1="64.2158" x2="51.8171" y2="24.281" gradientUnits="userSpaceOnUse">
<stop stop-color="#FFBF00"/>
<stop offset="1" stop-color="#FF7300"/>
</linearGradient>
<linearGradient id="paint7_linear_1233_14069" x1="42.0736" y1="66.0388" x2="45.0445" y2="22.883" gradientUnits="userSpaceOnUse">
<stop stop-color="#FFBF00"/>
<stop offset="1" stop-color="#FF7300"/>
</linearGradient>
<linearGradient id="paint8_linear_1233_14069" x1="49.4965" y1="65.4847" x2="37.8789" y2="23.816" gradientUnits="userSpaceOnUse">
<stop stop-color="#FFBF00"/>
<stop offset="1" stop-color="#FF7300"/>
</linearGradient>
<linearGradient id="paint9_linear_1233_14069" x1="56.0363" y1="62.6633" x2="31.6931" y2="26.905" gradientUnits="userSpaceOnUse">
<stop stop-color="#FFBF00"/>
<stop offset="1" stop-color="#FF7300"/>
</linearGradient>
<linearGradient id="paint10_linear_1233_14069" x1="61.3711" y1="57.8451" x2="26.7854" y2="31.8628" gradientUnits="userSpaceOnUse">
<stop stop-color="#FFBF00"/>
<stop offset="1" stop-color="#FF7300"/>
</linearGradient>
<linearGradient id="paint11_linear_1233_14069" x1="64.8387" y1="51.6239" x2="23.7563" y2="38.078" gradientUnits="userSpaceOnUse">
<stop stop-color="#FFBF00"/>
<stop offset="1" stop-color="#FF7300"/>
</linearGradient>
<linearGradient id="paint12_linear_1233_14069" x1="66.1351" y1="44.6013" x2="22.8786" y2="44.9551" gradientUnits="userSpaceOnUse">
<stop stop-color="#FFBF00"/>
<stop offset="1" stop-color="#FF7300"/>
</linearGradient>
<linearGradient id="paint13_linear_1233_14069" x1="65.1171" y1="37.5519" x2="24.2493" y2="51.732" gradientUnits="userSpaceOnUse">
<stop stop-color="#FFBF00"/>
<stop offset="1" stop-color="#FF7300"/>
</linearGradient>
<linearGradient id="paint14_linear_1233_14069" x1="61.8539" y1="31.1467" x2="27.7541" y2="57.7635" gradientUnits="userSpaceOnUse">
<stop stop-color="#FFBF00"/>
<stop offset="1" stop-color="#FF7300"/>
</linearGradient>
<linearGradient id="paint15_linear_1233_14069" x1="56.7537" y1="26.1755" x2="32.9668" y2="62.3063" gradientUnits="userSpaceOnUse">
<stop stop-color="#FFBF00"/>
<stop offset="1" stop-color="#FF7300"/>
</linearGradient>
<linearGradient id="paint16_linear_1233_14069" x1="49.9764" y1="22.997" x2="39.7033" y2="65.0174" gradientUnits="userSpaceOnUse">
<stop stop-color="#FFBF00"/>
<stop offset="1" stop-color="#FF7300"/>
</linearGradient>
<linearGradient id="paint17_linear_1233_14069" x1="42.4307" y1="22.2873" x2="47.0538" y2="65.2975" gradientUnits="userSpaceOnUse">
<stop stop-color="#FFBF00"/>
<stop offset="1" stop-color="#FF7300"/>
</linearGradient>
<linearGradient id="paint18_linear_1233_14069" x1="35.2151" y1="24.1334" x2="53.9517" y2="63.123" gradientUnits="userSpaceOnUse">
<stop stop-color="#FFBF00"/>
<stop offset="1" stop-color="#FF7300"/>
</linearGradient>
</defs>
</svg>
