<svg width="74" height="74" viewBox="0 0 74 74" fill="none" xmlns="http://www.w3.org/2000/svg">
<g filter="url(#filter0_d_1233_14013)">
<mask id="path-1-outside-1_1233_14013" maskUnits="userSpaceOnUse" x="1.90894" y="-0.54541" width="70" height="70" fill="black">
<rect fill="white" x="1.90894" y="-0.54541" width="70" height="70"/>
<path d="M35.8279 3.29346C36.0122 2.17469 37.6211 2.17469 37.8054 3.29346L40.394 19.0143C40.7168 20.9745 42.8186 22.088 44.6217 21.2539L50.4539 18.5562C51.3001 18.1647 52.1754 19.04 51.7839 19.8862L48.7849 26.3679C47.9506 28.1709 49.0639 30.2729 51.0242 30.5958L67.8855 33.3735C69.0043 33.5578 69.0043 35.1668 67.8855 35.3511L51.7452 38.0089C49.7848 38.3317 48.6714 40.4337 49.5057 42.2369L51.7839 47.1606C52.1754 48.0068 51.3001 48.8822 50.4539 48.4907L44.8786 45.9114C43.0755 45.0772 40.9736 46.1907 40.6508 48.151L37.8054 65.4312C37.621 66.5497 36.0122 66.5498 35.8279 65.4312L32.9817 48.151C32.6588 46.1907 30.5569 45.0773 28.7538 45.9115L23.1794 48.4907C22.3332 48.8822 21.4579 48.0068 21.8494 47.1606L24.1272 42.2366C24.9612 40.4336 23.8478 38.3317 21.8876 38.0089L5.7478 35.3511C4.62918 35.1667 4.62922 33.5579 5.7478 33.3735L22.6085 30.5958C24.5687 30.2729 25.682 28.1711 24.8479 26.3681L21.8494 19.8862C21.4579 19.04 22.3332 18.1647 23.1794 18.5562L29.0107 21.2538C30.8138 22.0879 32.9156 20.9746 33.2385 19.0143L35.8279 3.29346Z"/>
</mask>
<path d="M35.8279 3.29346C36.0122 2.17469 37.6211 2.17469 37.8054 3.29346L40.394 19.0143C40.7168 20.9745 42.8186 22.088 44.6217 21.2539L50.4539 18.5562C51.3001 18.1647 52.1754 19.04 51.7839 19.8862L48.7849 26.3679C47.9506 28.1709 49.0639 30.2729 51.0242 30.5958L67.8855 33.3735C69.0043 33.5578 69.0043 35.1668 67.8855 35.3511L51.7452 38.0089C49.7848 38.3317 48.6714 40.4337 49.5057 42.2369L51.7839 47.1606C52.1754 48.0068 51.3001 48.8822 50.4539 48.4907L44.8786 45.9114C43.0755 45.0772 40.9736 46.1907 40.6508 48.151L37.8054 65.4312C37.621 66.5497 36.0122 66.5498 35.8279 65.4312L32.9817 48.151C32.6588 46.1907 30.5569 45.0773 28.7538 45.9115L23.1794 48.4907C22.3332 48.8822 21.4579 48.0068 21.8494 47.1606L24.1272 42.2366C24.9612 40.4336 23.8478 38.3317 21.8876 38.0089L5.7478 35.3511C4.62918 35.1667 4.62922 33.5579 5.7478 33.3735L22.6085 30.5958C24.5687 30.2729 25.682 28.1711 24.8479 26.3681L21.8494 19.8862C21.4579 19.04 22.3332 18.1647 23.1794 18.5562L29.0107 21.2538C30.8138 22.0879 32.9156 20.9746 33.2385 19.0143L35.8279 3.29346Z" fill="url(#paint0_radial_1233_14013)"/>
<path d="M35.8279 3.29346L33.4061 2.89455L33.4061 2.89457L35.8279 3.29346ZM37.8054 3.29346L40.2272 2.89468L40.2272 2.89455L37.8054 3.29346ZM50.4539 18.5562L51.4843 20.7838L51.4844 20.7838L50.4539 18.5562ZM51.7839 19.8862L54.0115 20.9169L54.0116 20.9167L51.7839 19.8862ZM67.8855 33.3735L67.4865 35.7953L67.4866 35.7953L67.8855 33.3735ZM67.8855 35.3511L68.2843 37.7729L68.2844 37.7729L67.8855 35.3511ZM51.7839 47.1606L54.0116 46.1301L54.0115 46.13L51.7839 47.1606ZM50.4539 48.4907L49.4233 50.7183L49.4234 50.7183L50.4539 48.4907ZM37.8054 65.4312L40.2272 65.8304L40.2272 65.8299L37.8054 65.4312ZM35.8279 65.4312L33.4061 65.83L33.4061 65.8303L35.8279 65.4312ZM23.1794 48.4907L24.2099 50.7183L24.2101 50.7183L23.1794 48.4907ZM21.8494 47.1606L24.077 48.1911L24.077 48.1911L21.8494 47.1606ZM5.7478 35.3511L5.34871 37.7728L5.34899 37.7729L5.7478 35.3511ZM5.7478 33.3735L5.34882 30.9518L5.34859 30.9518L5.7478 33.3735ZM21.8494 19.8862L19.6217 20.9167L19.6218 20.9167L21.8494 19.8862ZM23.1794 18.5562L24.21 16.3285L24.2099 16.3285L23.1794 18.5562ZM22.6085 30.5958L22.2096 28.174L22.6085 30.5958ZM24.8479 26.3681L22.6203 27.3986L24.8479 26.3681ZM24.1272 42.2366L21.8995 41.2062L24.1272 42.2366ZM21.8876 38.0089L22.2864 35.5871L21.8876 38.0089ZM32.9817 48.151L35.4035 47.7521L32.9817 48.151ZM28.7538 45.9115L27.7231 43.684L28.7538 45.9115ZM44.8786 45.9114L43.8481 48.139L44.8786 45.9114ZM40.6508 48.151L38.229 47.7522L40.6508 48.151ZM51.7452 38.0089L51.3464 35.5871L51.7452 38.0089ZM49.5057 42.2369L51.7332 41.2062L49.5057 42.2369ZM48.7849 26.3679L46.5573 25.3372L48.7849 26.3679ZM44.6217 21.2539L43.5912 19.0263L44.6217 21.2539ZM35.8279 3.29346L38.2497 3.69236C37.9825 5.31429 35.6508 5.31429 35.3836 3.69236L37.8054 3.29346L40.2272 2.89455C39.5915 -0.964907 34.0418 -0.964907 33.4061 2.89455L35.8279 3.29346ZM37.8054 3.29346L35.3836 3.69223L37.9722 19.413L40.394 19.0143L42.8158 18.6155L40.2272 2.89468L37.8054 3.29346ZM44.6217 21.2539L45.6521 23.4816L51.4843 20.7838L50.4539 18.5562L49.4234 16.3285L43.5912 19.0263L44.6217 21.2539ZM50.4539 18.5562L51.4844 20.7838C50.2576 21.3513 48.9888 20.0825 49.5563 18.8557L51.7839 19.8862L54.0116 20.9167C55.362 17.9975 52.3425 14.9781 49.4234 16.3285L50.4539 18.5562ZM51.7839 19.8862L49.5564 18.8555L46.5573 25.3372L48.7849 26.3679L51.0124 27.3986L54.0115 20.9169L51.7839 19.8862ZM51.0242 30.5958L50.6252 33.0176L67.4865 35.7953L67.8855 33.3735L68.2845 30.9517L51.4231 28.174L51.0242 30.5958ZM67.8855 33.3735L67.4866 35.7953C65.8647 35.5282 65.8647 33.1964 67.4866 32.9293L67.8855 35.3511L68.2844 37.7729C72.1439 37.1372 72.1439 31.5875 68.2844 30.9517L67.8855 33.3735ZM67.8855 35.3511L67.4867 32.9293L51.3464 35.5871L51.7452 38.0089L52.144 40.4307L68.2843 37.7729L67.8855 35.3511ZM49.5057 42.2369L47.2782 43.2675L49.5564 48.1913L51.7839 47.1606L54.0115 46.13L51.7332 41.2062L49.5057 42.2369ZM51.7839 47.1606L49.5563 48.1911C48.9888 46.9644 50.2576 45.6956 51.4844 46.2631L50.4539 48.4907L49.4234 50.7183C52.3425 52.0688 55.362 49.0493 54.0116 46.1301L51.7839 47.1606ZM50.4539 48.4907L51.4844 46.2631L45.9092 43.6838L44.8786 45.9114L43.8481 48.139L49.4233 50.7183L50.4539 48.4907ZM40.6508 48.151L38.229 47.7522L35.3836 65.0324L37.8054 65.4312L40.2272 65.8299L43.0726 48.5498L40.6508 48.151ZM37.8054 65.4312L35.3837 65.0319C35.6509 63.4107 37.9823 63.4097 38.2496 65.032L35.8279 65.4312L33.4061 65.8303C34.0422 69.6898 39.5911 69.6887 40.2272 65.8304L37.8054 65.4312ZM35.8279 65.4312L38.2497 65.0323L35.4035 47.7521L32.9817 48.151L30.5599 48.5498L33.4061 65.83L35.8279 65.4312ZM28.7538 45.9115L27.7231 43.684L22.1488 46.2632L23.1794 48.4907L24.2101 50.7183L29.7844 48.1391L28.7538 45.9115ZM23.1794 48.4907L22.1489 46.2631C23.3757 45.6956 24.6445 46.9644 24.077 48.1911L21.8494 47.1606L19.6217 46.1301C18.2713 49.0493 21.2908 52.0688 24.2099 50.7183L23.1794 48.4907ZM21.8494 47.1606L24.077 48.1911L26.3548 43.2671L24.1272 42.2366L21.8995 41.2062L19.6217 46.1302L21.8494 47.1606ZM21.8876 38.0089L22.2864 35.5871L6.14662 32.9293L5.7478 35.3511L5.34899 37.7729L21.4888 40.4307L21.8876 38.0089ZM5.7478 35.3511L6.14689 32.9293C7.76936 33.1967 7.76807 35.5281 6.14701 35.7953L5.7478 33.3735L5.34859 30.9518C1.49036 31.5878 1.489 37.1368 5.34871 37.7728L5.7478 35.3511ZM5.7478 33.3735L6.14678 35.7953L23.0075 33.0176L22.6085 30.5958L22.2096 28.174L5.34882 30.9518L5.7478 33.3735ZM24.8479 26.3681L27.0755 25.3376L24.077 18.8557L21.8494 19.8862L19.6218 20.9167L22.6203 27.3986L24.8479 26.3681ZM21.8494 19.8862L24.077 18.8557C24.6445 20.0825 23.3757 21.3513 22.1489 20.7838L23.1794 18.5562L24.2099 16.3285C21.2908 14.9781 18.2713 17.9975 19.6217 20.9167L21.8494 19.8862ZM23.1794 18.5562L22.1489 20.7838L27.9802 23.4814L29.0107 21.2538L30.0413 19.0262L24.21 16.3285L23.1794 18.5562ZM33.2385 19.0143L35.6603 19.4132L38.2497 3.69235L35.8279 3.29346L33.4061 2.89457L30.8167 18.6154L33.2385 19.0143ZM29.0107 21.2538L27.9802 23.4814C31.2556 24.9967 35.0738 22.9741 35.6603 19.4132L33.2385 19.0143L30.8167 18.6154C30.7575 18.975 30.372 19.1792 30.0413 19.0262L29.0107 21.2538ZM22.6085 30.5958L23.0075 33.0176C26.5683 32.431 28.5907 28.6129 27.0755 25.3376L24.8479 26.3681L22.6203 27.3986C22.7733 27.7293 22.5691 28.1148 22.2096 28.174L22.6085 30.5958ZM24.1272 42.2366L26.3548 43.2671C27.87 39.9917 25.8473 36.1735 22.2864 35.5871L21.8876 38.0089L21.4888 40.4307C21.8483 40.4899 22.0525 40.8754 21.8995 41.2062L24.1272 42.2366ZM32.9817 48.151L35.4035 47.7521C34.817 44.191 30.9986 42.1685 27.7231 43.684L28.7538 45.9115L29.7844 48.1391C30.1152 47.9861 30.5007 48.1903 30.5599 48.5498L32.9817 48.151ZM44.8786 45.9114L45.9092 43.6838C42.6337 42.1685 38.8153 44.1911 38.229 47.7522L40.6508 48.151L43.0726 48.5498C43.1318 48.1902 43.5173 47.986 43.8481 48.139L44.8786 45.9114ZM51.7452 38.0089L51.3464 35.5871C47.7852 36.1735 45.7626 39.992 47.2782 43.2675L49.5057 42.2369L51.7332 41.2062C51.5802 40.8754 51.7844 40.4899 52.144 40.4307L51.7452 38.0089ZM48.7849 26.3679L46.5573 25.3372C45.0418 28.6126 47.0642 32.431 50.6252 33.0176L51.0242 30.5958L51.4231 28.174C51.0636 28.1148 50.8594 27.7293 51.0124 27.3986L48.7849 26.3679ZM40.394 19.0143L37.9722 19.413C38.5585 22.974 42.3766 24.9967 45.6521 23.4816L44.6217 21.2539L43.5912 19.0263C43.2605 19.1793 42.875 18.975 42.8158 18.6155L40.394 19.0143Z" fill="white" mask="url(#path-1-outside-1_1233_14013)"/>
</g>
<defs>
<filter id="filter0_d_1233_14013" x="4.07696e-05" y="0" width="73.6333" height="73.6333" filterUnits="userSpaceOnUse" color-interpolation-filters="sRGB">
<feFlood flood-opacity="0" result="BackgroundImageFix"/>
<feColorMatrix in="SourceAlpha" type="matrix" values="0 0 0 0 0 0 0 0 0 0 0 0 0 0 0 0 0 0 127 0" result="hardAlpha"/>
<feOffset dy="2.45443"/>
<feGaussianBlur stdDeviation="1.22721"/>
<feComposite in2="hardAlpha" operator="out"/>
<feColorMatrix type="matrix" values="0 0 0 0 0 0 0 0 0 0 0 0 0 0 0 0 0 0 0.35 0"/>
<feBlend mode="normal" in2="BackgroundImageFix" result="effect1_dropShadow_1233_14013"/>
<feBlend mode="normal" in="SourceGraphic" in2="effect1_dropShadow_1233_14013" result="shape"/>
</filter>
<radialGradient id="paint0_radial_1233_14013" cx="0" cy="0" r="1" gradientUnits="userSpaceOnUse" gradientTransform="translate(36.8168 34.3624) rotate(90) scale(18.4084 18.4084)">
<stop stop-color="#00FFE6"/>
<stop offset="1" stop-color="#FFEE00"/>
</radialGradient>
</defs>
</svg>
