<svg width="74" height="74" viewBox="0 0 74 74" fill="none" xmlns="http://www.w3.org/2000/svg">
<g filter="url(#filter0_d_1233_14141)">
<path d="M69.9509 34.3917C69.9509 38.7426 69.0944 43.0515 67.4294 47.0714C65.7643 51.0915 63.3226 54.7446 60.2458 57.8214C57.169 60.8982 53.516 63.3398 49.4958 65.005C45.8543 66.5133 41.9759 67.3554 38.0437 67.5011V67.7501L36.8015 67.7355L36.0154 67.7257H36.0076L35.9998 67.7247C31.9273 67.6243 27.9055 66.7746 24.1375 65.214C20.1173 63.5488 16.4633 61.1072 13.3865 58.0304C10.3097 54.9536 7.86808 51.2996 6.20288 47.2794C4.53806 43.2597 3.68144 38.9514 3.6814 34.6007V33.3732H4.90894C9.25986 33.3732 13.5687 34.2296 17.5886 35.8947L18.3376 36.2159C22.0628 37.8675 25.4541 40.1937 28.3386 43.0782C31.4153 46.155 33.857 49.8082 35.5222 53.8282C36.0155 55.0193 36.4358 56.2365 36.7859 57.4718C37.1471 56.1646 37.59 54.8784 38.1111 53.6202C39.7763 49.6001 42.2179 45.947 45.2947 42.8702C48.3715 39.7934 52.0245 37.3518 56.0447 35.6866C59.8137 34.1256 63.8365 33.2751 67.9099 33.1749H67.9255L68.7087 33.1652L69.9509 33.1495V34.3917ZM69.9509 2.4845C69.9509 6.83538 69.0944 11.1443 67.4294 15.1642C65.7643 19.1843 63.3226 22.8374 60.2458 25.9142C57.1691 28.991 53.516 31.4326 49.4958 33.0978C45.8543 34.606 41.9758 35.4482 38.0437 35.5939V35.6339L36.8015 35.6193H35.5896V35.5939C31.6574 35.4482 27.779 34.606 24.1375 33.0978C20.1173 31.4326 16.4633 28.991 13.3865 25.9142C10.3098 22.8374 7.86804 19.1842 6.20288 15.1642C4.53794 11.1443 3.6814 6.83538 3.6814 2.4845V1.25696H4.90894C9.25984 1.25698 13.5687 2.11345 17.5886 3.77844C21.6087 5.44361 25.2619 7.88533 28.3386 10.962C31.4154 14.0388 33.857 17.6929 35.5222 21.713C36.0293 22.9375 36.4604 24.189 36.8162 25.4601C37.1719 24.189 37.603 22.9375 38.1101 21.713H38.1111C39.7763 17.6929 42.2169 14.0388 45.2937 10.962C48.3705 7.88522 52.0245 5.44364 56.0447 3.77844L56.7537 3.49426C60.3162 2.11411 64.0909 1.36156 67.9099 1.2677L67.9177 1.26672H67.9255L68.7087 1.25793L69.9509 1.24231V2.4845Z" fill="white" stroke="white" stroke-width="2.45443"/>
<path d="M4.90894 2.48462C9.0991 2.48462 13.2487 3.30982 17.1199 4.91333C20.991 6.51683 24.5086 8.8675 27.4714 11.8303C30.4342 14.7931 32.784 18.3108 34.3875 22.1819C35.9909 26.053 36.8162 30.2018 36.8162 34.3918C32.6262 34.3918 28.4772 33.5666 24.6062 31.9631C20.735 30.3596 17.2175 28.009 14.2546 25.0461C11.2918 22.0833 8.94114 18.5657 7.33765 14.6946C5.73426 10.8235 4.90897 6.67458 4.90894 2.48462Z" fill="url(#paint0_linear_1233_14141)"/>
<path d="M36.8167 34.3921C41.0068 34.3921 45.1564 33.5669 49.0276 31.9634C52.8987 30.3599 56.4163 28.0092 59.3791 25.0464C62.3419 22.0836 64.6917 18.5659 66.2952 14.6948C67.8986 10.8237 68.7238 6.67488 68.7239 2.48486C64.5339 2.4849 60.385 3.31015 56.5139 4.91357C52.6427 6.51708 49.1252 8.86767 46.1624 11.8306C43.1995 14.7934 40.8488 18.311 39.2454 22.1821C37.642 26.0532 36.8167 30.2021 36.8167 34.3921Z" fill="url(#paint1_linear_1233_14141)"/>
<path d="M36.8167 66.2996C41.0068 66.2996 45.1564 65.4744 49.0276 63.8708C52.8987 62.2673 56.4163 59.9167 59.3791 56.9539C62.3419 53.991 64.6917 50.4734 66.2952 46.6023C67.8986 42.7312 68.7238 38.5823 68.7239 34.3923C64.5339 34.3924 60.385 35.2176 56.5139 36.821C52.6428 38.4245 49.1252 40.7743 46.1624 43.7371C43.1995 46.6999 40.8489 50.2175 39.2454 54.0886C37.6419 57.9598 36.8166 62.1094 36.8167 66.2996Z" fill="url(#paint2_linear_1233_14141)"/>
<path d="M4.90906 34.6006C9.09922 34.6006 13.2488 35.4258 17.12 37.0293C20.9911 38.6328 24.5087 40.9834 27.4716 43.9463C30.4343 46.9091 32.7841 50.4267 34.3876 54.2979C35.991 58.1689 36.8162 62.3178 36.8163 66.5078C32.6263 66.5078 28.4774 65.6825 24.6063 64.0791C20.7352 62.4756 17.2176 60.1259 14.2548 57.1631C11.2919 54.2003 8.94127 50.6826 7.33777 46.8115C5.73426 42.9403 4.90906 38.7907 4.90906 34.6006Z" fill="url(#paint3_linear_1233_14141)"/>
<path d="M37.2622 24.5742C37.2622 23.9232 37.0037 23.2989 36.5434 22.8386C36.0831 22.3783 35.4588 22.1198 34.8078 22.1198C34.1569 22.1198 33.5326 22.3783 33.0723 22.8386C32.612 23.2989 32.3534 23.9232 32.3534 24.5742L34.8078 24.5742H37.2622Z" fill="#252525"/>
<path d="M42.6174 24.5742C42.6174 23.9232 42.3588 23.2989 41.8985 22.8386C41.4382 22.3783 40.8139 22.1198 40.1629 22.1198C39.512 22.1198 38.8877 22.3783 38.4274 22.8386C37.9671 23.2989 37.7085 23.9232 37.7085 24.5742L40.1629 24.5742H42.6174Z" fill="#252525"/>
<path d="M31.9076 26.5828C31.9076 26.5828 31.9076 31.9379 37.2627 31.9379C42.6178 31.9379 42.6178 26.5828 42.6178 26.5828" stroke="#252525" stroke-width="2.2313" stroke-linecap="round"/>
</g>
<defs>
<filter id="filter0_d_1233_14141" x="4.07696e-05" y="0" width="73.6329" height="73.9013" filterUnits="userSpaceOnUse" color-interpolation-filters="sRGB">
<feFlood flood-opacity="0" result="BackgroundImageFix"/>
<feColorMatrix in="SourceAlpha" type="matrix" values="0 0 0 0 0 0 0 0 0 0 0 0 0 0 0 0 0 0 127 0" result="hardAlpha"/>
<feOffset dy="2.45443"/>
<feGaussianBlur stdDeviation="1.22721"/>
<feComposite in2="hardAlpha" operator="out"/>
<feColorMatrix type="matrix" values="0 0 0 0 0 0 0 0 0 0 0 0 0 0 0 0 0 0 0.35 0"/>
<feBlend mode="normal" in2="BackgroundImageFix" result="effect1_dropShadow_1233_14141"/>
<feBlend mode="normal" in="SourceGraphic" in2="effect1_dropShadow_1233_14141" result="shape"/>
</filter>
<linearGradient id="paint0_linear_1233_14141" x1="4.90894" y1="2.48462" x2="36.8161" y2="34.3918" gradientUnits="userSpaceOnUse">
<stop stop-color="#7AFFAD"/>
<stop offset="1" stop-color="#00AAFF"/>
</linearGradient>
<linearGradient id="paint1_linear_1233_14141" x1="68.7239" y1="3.71208" x2="36.8167" y2="34.3921" gradientUnits="userSpaceOnUse">
<stop stop-color="#7AFFAD"/>
<stop offset="1" stop-color="#00AAFF"/>
</linearGradient>
<linearGradient id="paint2_linear_1233_14141" x1="68.7239" y1="35.6195" x2="36.8167" y2="66.2996" gradientUnits="userSpaceOnUse">
<stop stop-color="#7AFFAD"/>
<stop offset="1" stop-color="#00AAFF"/>
</linearGradient>
<linearGradient id="paint3_linear_1233_14141" x1="4.90906" y1="34.6006" x2="36.8163" y2="66.5078" gradientUnits="userSpaceOnUse">
<stop stop-color="#7AFFAD"/>
<stop offset="1" stop-color="#00AAFF"/>
</linearGradient>
</defs>
</svg>
