<svg width="289" height="565" viewBox="0 0 289 565" fill="none" xmlns="http://www.w3.org/2000/svg">
<g filter="url(#filter0_d_854_5142)">
<mask id="path-1-outside-1_854_5142" maskUnits="userSpaceOnUse" x="9.27197" y="249.897" width="70" height="70" fill="black">
<rect fill="white" x="9.27197" y="249.897" width="70" height="70"/>
<path d="M43.1909 253.736C43.3752 252.617 44.9842 252.617 45.1685 253.736L47.757 269.457C48.0798 271.417 50.1816 272.531 51.9847 271.697L57.8169 268.999C58.6631 268.607 59.5384 269.483 59.147 270.329L56.1479 276.811C55.3136 278.614 56.4269 280.716 58.3872 281.039L75.2485 283.816C76.3673 284.001 76.3673 285.61 75.2485 285.794L59.1082 288.452C57.1478 288.774 56.0344 290.876 56.8687 292.68L59.147 297.603C59.5384 298.45 58.6631 299.325 57.8169 298.933L52.2417 296.354C50.4386 295.52 48.3366 296.633 48.0138 298.594L45.1685 315.874C44.9841 316.992 43.3753 316.993 43.1909 315.874L40.3447 298.594C40.0219 296.633 37.9199 295.52 36.1168 296.354L30.5425 298.933C29.6963 299.325 28.8209 298.45 29.2124 297.603L31.4902 292.679C32.3243 290.876 31.2108 288.774 29.2506 288.452L13.1108 285.794C11.9922 285.609 11.9923 284.001 13.1108 283.816L29.9716 281.039C31.9317 280.716 33.045 278.614 32.2109 276.811L29.2124 270.329C28.8209 269.483 29.6963 268.607 30.5425 268.999L36.3738 271.697C38.1768 272.531 40.2787 271.417 40.6016 269.457L43.1909 253.736Z"/>
</mask>
<path d="M43.1909 253.736C43.3752 252.617 44.9842 252.617 45.1685 253.736L47.757 269.457C48.0798 271.417 50.1816 272.531 51.9847 271.697L57.8169 268.999C58.6631 268.607 59.5384 269.483 59.147 270.329L56.1479 276.811C55.3136 278.614 56.4269 280.716 58.3872 281.039L75.2485 283.816C76.3673 284.001 76.3673 285.61 75.2485 285.794L59.1082 288.452C57.1478 288.774 56.0344 290.876 56.8687 292.68L59.147 297.603C59.5384 298.45 58.6631 299.325 57.8169 298.933L52.2417 296.354C50.4386 295.52 48.3366 296.633 48.0138 298.594L45.1685 315.874C44.9841 316.992 43.3753 316.993 43.1909 315.874L40.3447 298.594C40.0219 296.633 37.9199 295.52 36.1168 296.354L30.5425 298.933C29.6963 299.325 28.8209 298.45 29.2124 297.603L31.4902 292.679C32.3243 290.876 31.2108 288.774 29.2506 288.452L13.1108 285.794C11.9922 285.609 11.9923 284.001 13.1108 283.816L29.9716 281.039C31.9317 280.716 33.045 278.614 32.2109 276.811L29.2124 270.329C28.8209 269.483 29.6963 268.607 30.5425 268.999L36.3738 271.697C38.1768 272.531 40.2787 271.417 40.6016 269.457L43.1909 253.736Z" fill="url(#paint0_radial_854_5142)"/>
<path d="M43.1909 253.736L40.7691 253.337L40.7691 253.337L43.1909 253.736ZM45.1685 253.736L47.5903 253.337L47.5903 253.337L45.1685 253.736ZM57.8169 268.999L58.8473 271.227L58.8474 271.227L57.8169 268.999ZM59.147 270.329L61.3745 271.36L61.3746 271.359L59.147 270.329ZM75.2485 283.816L74.8496 286.238L74.8496 286.238L75.2485 283.816ZM75.2485 285.794L75.6473 288.216L75.6474 288.216L75.2485 285.794ZM59.147 297.603L61.3746 296.573L61.3745 296.573L59.147 297.603ZM57.8169 298.933L56.7863 301.161L56.7864 301.161L57.8169 298.933ZM45.1685 315.874L47.5902 316.273L47.5903 316.273L45.1685 315.874ZM43.1909 315.874L40.7691 316.273L40.7692 316.273L43.1909 315.874ZM30.5425 298.933L31.573 301.161L31.5731 301.161L30.5425 298.933ZM29.2124 297.603L31.44 298.634L31.44 298.634L29.2124 297.603ZM13.1108 285.794L12.7118 288.216L12.712 288.216L13.1108 285.794ZM13.1108 283.816L12.7119 281.395L12.7116 281.395L13.1108 283.816ZM29.2124 270.329L26.9848 271.359L26.9848 271.359L29.2124 270.329ZM30.5425 268.999L31.573 266.771L31.573 266.771L30.5425 268.999ZM29.9716 281.039L29.5726 278.617L29.9716 281.039ZM32.2109 276.811L29.9833 277.841L32.2109 276.811ZM31.4902 292.679L29.2626 291.649L31.4902 292.679ZM29.2506 288.452L29.6494 286.03L29.2506 288.452ZM40.3447 298.594L42.7665 298.195L40.3447 298.594ZM36.1168 296.354L35.0862 294.127L36.1168 296.354ZM52.2417 296.354L51.2111 298.582L52.2417 296.354ZM48.0138 298.594L45.592 298.195L48.0138 298.594ZM59.1082 288.452L58.7094 286.03L59.1082 288.452ZM56.8687 292.68L59.0963 291.649L56.8687 292.68ZM56.1479 276.811L53.9204 275.78L56.1479 276.811ZM51.9847 271.697L50.9543 269.469L51.9847 271.697ZM43.1909 253.736L45.6127 254.135C45.3456 255.757 43.0138 255.757 42.7467 254.135L45.1685 253.736L47.5903 253.337C46.9545 249.478 41.4048 249.478 40.7691 253.337L43.1909 253.736ZM45.1685 253.736L42.7466 254.135L45.3352 269.856L47.757 269.457L50.1788 269.058L47.5903 253.337L45.1685 253.736ZM51.9847 271.697L53.0151 273.924L58.8473 271.227L57.8169 268.999L56.7865 266.771L50.9543 269.469L51.9847 271.697ZM57.8169 268.999L58.8474 271.227C57.6206 271.794 56.3518 270.525 56.9194 269.298L59.147 270.329L61.3746 271.359C62.725 268.44 59.7056 265.421 56.7864 266.771L57.8169 268.999ZM59.147 270.329L56.9194 269.298L53.9204 275.78L56.1479 276.811L58.3754 277.841L61.3745 271.36L59.147 270.329ZM58.3872 281.039L57.9882 283.46L74.8496 286.238L75.2485 283.816L75.6475 281.394L58.7862 278.617L58.3872 281.039ZM75.2485 283.816L74.8496 286.238C73.2277 285.971 73.2277 283.639 74.8496 283.372L75.2485 285.794L75.6474 288.216C79.5069 287.58 79.5069 282.03 75.6474 281.394L75.2485 283.816ZM75.2485 285.794L74.8497 283.372L58.7094 286.03L59.1082 288.452L59.507 290.873L75.6473 288.216L75.2485 285.794ZM56.8687 292.68L54.6412 293.71L56.9194 298.634L59.147 297.603L61.3745 296.573L59.0963 291.649L56.8687 292.68ZM59.147 297.603L56.9194 298.634C56.3518 297.407 57.6206 296.138 58.8474 296.706L57.8169 298.933L56.7864 301.161C59.7056 302.512 62.725 299.492 61.3746 296.573L59.147 297.603ZM57.8169 298.933L58.8475 296.706L53.2722 294.127L52.2417 296.354L51.2111 298.582L56.7863 301.161L57.8169 298.933ZM48.0138 298.594L45.592 298.195L42.7466 315.475L45.1685 315.874L47.5903 316.273L50.4356 298.993L48.0138 298.594ZM45.1685 315.874L42.7467 315.475C43.014 313.853 45.3453 313.852 45.6127 315.475L43.1909 315.874L40.7692 316.273C41.4053 320.133 46.9541 320.131 47.5902 316.273L45.1685 315.874ZM43.1909 315.874L45.6127 315.475L42.7665 298.195L40.3447 298.594L37.923 298.993L40.7691 316.273L43.1909 315.874ZM36.1168 296.354L35.0862 294.127L29.5118 296.706L30.5425 298.933L31.5731 301.161L37.1475 298.582L36.1168 296.354ZM30.5425 298.933L29.512 296.706C30.7388 296.138 32.0075 297.407 31.44 298.634L29.2124 297.603L26.9848 296.573C25.6344 299.492 28.6538 302.512 31.573 301.161L30.5425 298.933ZM29.2124 297.603L31.44 298.634L33.7178 293.71L31.4902 292.679L29.2626 291.649L26.9848 296.573L29.2124 297.603ZM29.2506 288.452L29.6494 286.03L13.5097 283.372L13.1108 285.794L12.712 288.216L28.8518 290.873L29.2506 288.452ZM13.1108 285.794L13.5099 283.372C15.1324 283.639 15.1311 285.971 13.51 286.238L13.1108 283.816L12.7116 281.395C8.8534 282.031 8.85203 287.58 12.7118 288.216L13.1108 285.794ZM13.1108 283.816L13.5098 286.238L30.3705 283.46L29.9716 281.039L29.5726 278.617L12.7119 281.395L13.1108 283.816ZM32.2109 276.811L34.4386 275.78L31.44 269.298L29.2124 270.329L26.9848 271.359L29.9833 277.841L32.2109 276.811ZM29.2124 270.329L31.44 269.298C32.0075 270.525 30.7388 271.794 29.512 271.227L30.5425 268.999L31.573 266.771C28.6538 265.421 25.6344 268.44 26.9848 271.359L29.2124 270.329ZM30.5425 268.999L29.512 271.227L35.3433 273.924L36.3738 271.697L37.4043 269.469L31.573 266.771L30.5425 268.999ZM40.6016 269.457L43.0233 269.856L45.6127 254.135L43.1909 253.736L40.7691 253.337L38.1798 269.058L40.6016 269.457ZM36.3738 271.697L35.3433 273.924C38.6186 275.439 42.4368 273.417 43.0233 269.856L40.6016 269.457L38.1798 269.058C38.1205 269.418 37.735 269.622 37.4043 269.469L36.3738 271.697ZM29.9716 281.039L30.3705 283.46C33.9313 282.874 35.9537 279.056 34.4386 275.78L32.2109 276.811L29.9833 277.841C30.1363 278.172 29.9321 278.558 29.5726 278.617L29.9716 281.039ZM31.4902 292.679L33.7178 293.71C35.233 290.434 33.2104 286.616 29.6494 286.03L29.2506 288.452L28.8518 290.873C29.2113 290.933 29.4156 291.318 29.2626 291.649L31.4902 292.679ZM40.3447 298.594L42.7665 298.195C42.18 294.634 38.3616 292.611 35.0862 294.127L36.1168 296.354L37.1475 298.582C37.4782 298.429 37.8637 298.633 37.923 298.993L40.3447 298.594ZM52.2417 296.354L53.2722 294.127C49.9967 292.611 46.1784 294.634 45.592 298.195L48.0138 298.594L50.4356 298.993C50.4948 298.633 50.8804 298.429 51.2111 298.582L52.2417 296.354ZM59.1082 288.452L58.7094 286.03C55.1482 286.616 53.1256 290.435 54.6412 293.71L56.8687 292.68L59.0963 291.649C58.9432 291.318 59.1474 290.933 59.507 290.873L59.1082 288.452ZM56.1479 276.811L53.9204 275.78C52.4048 279.055 54.4272 282.874 57.9882 283.46L58.3872 281.039L58.7862 278.617C58.4266 278.558 58.2224 278.172 58.3754 277.841L56.1479 276.811ZM47.757 269.457L45.3352 269.856C45.9216 273.417 49.7397 275.439 53.0151 273.924L51.9847 271.697L50.9543 269.469C50.6236 269.622 50.238 269.418 50.1788 269.058L47.757 269.457Z" fill="white" mask="url(#path-1-outside-1_854_5142)"/>
</g>
<g filter="url(#filter1_d_854_5142)">
<circle cx="42.1355" cy="38.0437" r="20.8626" fill="white"/>
<path d="M37.4304 1.23865C39.8515 1.35024 41.7498 2.29775 42.8074 4.14587C43.1723 4.78386 43.3828 5.45821 43.5046 6.0824C43.6274 5.86057 43.7482 5.65418 43.8669 5.46619L44.0857 5.1322C44.1596 5.02344 44.2303 4.92063 44.2996 4.82556L44.2214 4.74744L45.0251 3.94373C45.0328 3.93523 45.0468 3.92051 45.0642 3.90271L45.0789 3.88708L45.2214 3.74353L45.2283 3.73962L45.8972 3.07068L46.0935 3.23962C47.0704 2.88183 48.209 3.09085 48.9949 3.87537H48.9958C49.2648 4.14428 49.4636 4.45446 49.5974 4.78357C56.0865 1.9863 63.992 1.51493 69.6423 7.16443C73.8953 11.4187 74.6815 16.9983 73.6082 22.2347C72.5396 27.4476 69.6144 32.4586 66.2107 35.8627C66.2056 35.868 66.1991 35.8776 66.199 35.8969C66.199 35.9065 66.2007 35.9148 66.2029 35.9203C66.2047 35.9248 66.207 35.9283 66.2107 35.932L66.5281 36.2552C69.7953 39.6488 72.5739 44.5089 73.6091 49.559C74.649 54.6318 73.9428 60.0268 70.031 64.2269L69.6423 64.6302C65.388 68.8834 59.808 69.6707 54.571 68.598C49.5204 67.5634 44.6591 64.7853 41.2654 61.5179L40.9421 61.2006C40.9377 61.1962 40.9339 61.1936 40.9294 61.1918C40.924 61.1896 40.9161 61.1879 40.907 61.1879C40.8981 61.1879 40.8907 61.1897 40.8855 61.1918C40.8812 61.1935 40.8772 61.1962 40.8728 61.2006C37.4685 64.6043 32.4573 67.5298 27.2439 68.598C22.0068 69.671 16.4259 68.8843 12.1716 64.6302C7.91881 60.3759 7.13243 54.7954 8.20581 49.559C9.27442 44.3462 12.2007 39.336 15.6042 35.932L15.613 35.9193C15.6153 35.9138 15.6169 35.9055 15.6169 35.8959C15.6169 35.8864 15.6153 35.878 15.613 35.8724C15.6112 35.868 15.6082 35.8648 15.6042 35.8607V35.8597C12.2008 32.4558 9.27526 27.4456 8.20679 22.2328C7.13351 16.9964 7.91946 11.4168 12.1716 7.16248V7.1615C17.6072 1.72603 25.1454 1.96004 31.4695 4.47009C31.7933 3.79573 32.278 3.09443 33.0085 2.5072H33.0095C34.0769 1.64983 35.4231 1.22693 36.9392 1.22693L37.4304 1.23865ZM33.5447 19.9418C28.8008 19.9424 24.955 23.7887 24.9548 28.5326C24.9549 30.5288 25.6349 32.3643 26.7771 33.8226L27.0115 34.1088L27.0125 34.1097C27.8827 35.1295 27.8835 36.6624 27.0115 37.683C25.7285 39.184 24.9549 41.1299 24.9548 43.2592C24.9551 48.003 28.8009 51.8484 33.5447 51.849C35.6729 51.8489 37.6176 51.0742 39.1189 49.7904C40.0759 48.9722 41.4857 48.9217 42.4988 49.6371L42.696 49.7904L42.9822 50.0258C44.4405 51.1687 46.2754 51.8488 48.2712 51.849C53.0152 51.8487 56.8618 48.0031 56.8621 43.2592C56.862 41.1302 56.0873 39.1851 54.8035 37.684L54.8025 37.683C53.9306 36.6626 53.9302 35.1262 54.8025 34.1058H54.8035C56.0871 32.6045 56.862 30.6608 56.8621 28.5326C56.8619 24.1928 53.6431 20.6059 49.4626 20.0258C49.4843 20.1994 49.4988 20.3763 49.4988 20.556C49.4987 22.8542 47.6936 24.7299 45.4246 24.8451L45.2039 24.851C43.6395 24.851 42.2685 24.0146 41.5164 22.7631C40.7968 23.9621 39.5127 24.7845 38.0232 24.847L37.8406 24.851C35.4684 24.851 33.5457 22.9282 33.5457 20.556C33.5457 20.3484 33.5601 20.1434 33.5886 19.9427C33.5741 19.9427 33.5592 19.9418 33.5447 19.9418ZM38.2136 8.28357C38.4819 8.48797 38.7447 8.69621 39.0017 8.90662L38.7068 9.26599C38.7125 9.26972 38.7185 9.27305 38.7244 9.27673C38.9073 9.0475 39.0564 8.84059 39.1677 8.66052L39.2693 8.48474C39.3198 8.38961 39.3458 8.32315 39.3601 8.28357H38.2136ZM36.9392 6.74939C36.696 6.74939 36.5631 6.78152 36.5056 6.80017C36.4912 6.80486 36.4799 6.80767 36.4724 6.81091C36.4598 6.82871 36.4314 6.87714 36.3992 6.97791C36.3962 6.98714 36.3942 6.99674 36.3914 7.00623C36.9581 7.37192 37.507 7.7541 38.0349 8.14978C38.0785 8.08613 38.1137 8.02986 38.1423 7.98181C38.1383 7.68462 38.1298 7.45297 38.1062 7.26306C38.0804 7.05554 38.0434 6.95469 38.0222 6.90857C38.0191 6.90689 38.0153 6.90559 38.0115 6.90369C37.9204 6.85853 37.6266 6.74957 36.9392 6.74939Z" fill="white" stroke="white" stroke-width="2.45443"/>
<path d="M13.0399 8.9469C20.8046 1.18083 33.5042 5.8807 40.0018 12.3795C40.4965 12.8741 41.3198 12.8781 41.8143 12.3834C48.312 5.88457 61.0115 1.18468 68.7762 8.95081C76.5402 16.7171 71.8421 29.4189 65.3446 35.9176C64.853 36.4093 64.8569 37.2267 65.3485 37.7184C71.8456 44.2174 76.5439 56.9191 68.7802 64.6852C61.0156 72.4512 48.3159 67.7513 41.8182 61.2526C41.3218 60.756 40.4992 60.756 40.0028 61.2526C33.5053 67.7514 20.8056 72.4511 13.0409 64.6852C5.27717 56.919 9.9753 44.2173 16.4725 37.7184C16.9658 37.225 16.9647 36.4071 16.4716 35.9137C9.97414 29.4149 5.27587 16.7131 13.0399 8.9469ZM48.2714 19.6354C45.8385 19.6355 43.6131 20.521 41.8983 21.9869C41.337 22.4667 40.4792 22.4666 39.9178 21.9869C38.2031 20.5211 35.9776 19.6354 33.5448 19.6354C28.1229 19.6356 23.7276 24.0308 23.7274 29.4528C23.7275 31.8853 24.6133 34.1101 26.079 35.8248C26.5588 36.3862 26.5589 37.2449 26.079 37.8063C24.6131 39.521 23.7275 41.7465 23.7274 44.1793C23.7276 49.6012 28.1229 53.9965 33.5448 53.9967C35.9777 53.9967 38.2031 53.1101 39.9178 51.6442C40.4791 51.1647 41.3371 51.1647 41.8983 51.6442C43.6131 53.1101 45.8384 53.9966 48.2714 53.9967C53.6934 53.9967 58.0896 49.6013 58.0897 44.1793C58.0897 41.7464 57.2033 39.521 55.7372 37.8063C55.2572 37.2449 55.2572 36.3862 55.7372 35.8248C57.2031 34.1102 58.0896 31.8855 58.0897 29.4528C58.0896 24.0307 53.6934 19.6354 48.2714 19.6354Z" fill="url(#paint1_linear_854_5142)"/>
<path d="M33.5789 9.204C33.5789 9.204 32.9681 4.90869 36.9382 4.90869C40.9084 4.90869 40.9084 7.55196 40.9084 9.204C40.9084 10.2871 39.2018 12.0601 38.0264 13.1528C37.3535 13.7784 36.9382 14.6456 36.9382 15.5644V16.5674" stroke="#252525" stroke-width="3.06808" stroke-linecap="round"/>
<path d="M44.8972 16.5672C44.8972 16.5672 44.2836 13.806 44.8972 11.0447C45.5108 8.28343 47.0449 6.74939 47.0449 6.74939" stroke="#252525" stroke-width="3.06808" stroke-linecap="round"/>
<circle cx="37.8402" cy="21.4759" r="3.06808" fill="#252525"/>
<circle cx="45.2035" cy="21.4759" r="3.06808" fill="#252525"/>
</g>
<g filter="url(#filter2_d_854_5142)">
<path d="M10.2856 93.827C12.5585 91.5542 15.9613 91.9198 18.7261 92.8925C21.5748 93.8947 24.3363 95.7276 25.9058 97.2968V97.2977C25.9186 97.3106 25.9311 97.3239 25.9438 97.3368C30.2301 95.0601 35.1188 93.7645 40.3091 93.7645C45.4339 93.7646 50.2637 95.0286 54.5103 97.2518C56.0871 95.6927 58.8233 93.8851 61.645 92.8925C64.4097 91.9199 67.8126 91.5542 70.0854 93.827C72.3582 96.0999 71.9926 99.5028 71.02 102.267C70.0782 104.944 68.4016 107.543 66.9009 109.149C69.4973 113.652 70.9885 118.874 70.9888 124.444C70.9888 129.656 69.679 134.561 67.3853 138.859C68.7732 140.502 70.2328 142.89 71.0688 145.336C72.0014 148.064 72.3205 151.392 70.0854 153.627C67.89 155.822 64.6387 155.552 61.9487 154.662C59.5418 153.866 57.182 152.455 55.5171 151.093C51.0333 153.657 45.8417 155.125 40.3091 155.125C34.7157 155.125 29.4714 153.624 24.9546 151.008C23.303 152.381 20.9346 153.814 18.5132 154.631C15.8009 155.546 12.5046 155.846 10.2856 153.627C8.01281 151.354 8.37847 147.951 9.35107 145.186C10.2226 142.709 11.7221 140.297 13.1304 138.679C10.8972 134.424 9.62842 129.581 9.62842 124.444C9.62871 118.941 11.0799 113.773 13.6196 109.306C12.0821 107.715 10.3242 105.033 9.35107 102.267C8.37845 99.5027 8.01279 96.0999 10.2856 93.827Z" fill="#D9D9D9"/>
<path d="M10.2856 93.827C12.5585 91.5542 15.9613 91.9198 18.7261 92.8925C21.5748 93.8947 24.3363 95.7276 25.9058 97.2968V97.2977C25.9186 97.3106 25.9311 97.3239 25.9438 97.3368C30.2301 95.0601 35.1188 93.7645 40.3091 93.7645C45.4339 93.7646 50.2637 95.0286 54.5103 97.2518C56.0871 95.6927 58.8233 93.8851 61.645 92.8925C64.4097 91.9199 67.8126 91.5542 70.0854 93.827C72.3582 96.0999 71.9926 99.5028 71.02 102.267C70.0782 104.944 68.4016 107.543 66.9009 109.149C69.4973 113.652 70.9885 118.874 70.9888 124.444C70.9888 129.656 69.679 134.561 67.3853 138.859C68.7732 140.502 70.2328 142.89 71.0688 145.336C72.0014 148.064 72.3205 151.392 70.0854 153.627C67.89 155.822 64.6387 155.552 61.9487 154.662C59.5418 153.866 57.182 152.455 55.5171 151.093C51.0333 153.657 45.8417 155.125 40.3091 155.125C34.7157 155.125 29.4714 153.624 24.9546 151.008C23.303 152.381 20.9346 153.814 18.5132 154.631C15.8009 155.546 12.5046 155.846 10.2856 153.627C8.01281 151.354 8.37847 147.951 9.35107 145.186C10.2226 142.709 11.7221 140.297 13.1304 138.679C10.8972 134.424 9.62842 129.581 9.62842 124.444C9.62871 118.941 11.0799 113.773 13.6196 109.306C12.0821 107.715 10.3242 105.033 9.35107 102.267C8.37845 99.5027 8.01279 96.0999 10.2856 93.827Z" fill="white"/>
<path d="M10.2856 93.827C12.5585 91.5542 15.9613 91.9198 18.7261 92.8925C21.5748 93.8947 24.3363 95.7276 25.9058 97.2968V97.2977C25.9186 97.3106 25.9311 97.3239 25.9438 97.3368C30.2301 95.0601 35.1188 93.7645 40.3091 93.7645C45.4339 93.7646 50.2637 95.0286 54.5103 97.2518C56.0871 95.6927 58.8233 93.8851 61.645 92.8925C64.4097 91.9199 67.8126 91.5542 70.0854 93.827C72.3582 96.0999 71.9926 99.5028 71.02 102.267C70.0782 104.944 68.4016 107.543 66.9009 109.149C69.4973 113.652 70.9885 118.874 70.9888 124.444C70.9888 129.656 69.679 134.561 67.3853 138.859C68.7732 140.502 70.2328 142.89 71.0688 145.336C72.0014 148.064 72.3205 151.392 70.0854 153.627C67.89 155.822 64.6387 155.552 61.9487 154.662C59.5418 153.866 57.182 152.455 55.5171 151.093C51.0333 153.657 45.8417 155.125 40.3091 155.125C34.7157 155.125 29.4714 153.624 24.9546 151.008C23.303 152.381 20.9346 153.814 18.5132 154.631C15.8009 155.546 12.5046 155.846 10.2856 153.627C8.01281 151.354 8.37847 147.951 9.35107 145.186C10.2226 142.709 11.7221 140.297 13.1304 138.679C10.8972 134.424 9.62842 129.581 9.62842 124.444C9.62871 118.941 11.0799 113.773 13.6196 109.306C12.0821 107.715 10.3242 105.033 9.35107 102.267C8.37845 99.5027 8.01279 96.0999 10.2856 93.827Z" stroke="white" stroke-width="2.45443"/>
<path d="M11.1533 94.6953C14.6245 91.2246 22.1616 95.2915 25.0371 98.167C25.2653 98.3952 25.474 98.6358 25.666 98.8848C29.9791 96.4088 34.9787 94.9932 40.3086 94.9932C45.5675 94.9932 50.5038 96.373 54.7773 98.7881C54.9486 98.5734 55.1333 98.3658 55.332 98.167C58.2075 95.2915 65.7457 91.2244 69.2168 94.6953C72.6879 98.1664 68.6216 105.705 65.7461 108.58C65.6191 108.707 65.4862 108.826 65.3525 108.941C68.1466 113.445 69.7617 118.757 69.7617 124.446C69.7617 129.754 68.3563 134.733 65.8994 139.034C68.7626 142.019 72.6258 149.35 69.2168 152.759C65.8667 156.109 58.7291 152.437 55.6504 149.592C51.182 152.324 45.9295 153.899 40.3086 153.899C34.6248 153.899 29.3179 152.288 24.8174 149.499C21.7952 152.356 14.5397 156.145 11.1533 152.759C7.68231 149.288 11.7485 141.751 14.624 138.875C14.6248 138.874 14.6252 138.873 14.626 138.872C12.2259 134.608 10.8555 129.688 10.8555 124.446C10.8555 118.815 12.4354 113.553 15.1768 109.079C14.9865 108.924 14.8015 108.758 14.624 108.58C11.7485 105.705 7.68224 98.1664 11.1533 94.6953Z" fill="#D9D9D9"/>
<path d="M11.1533 94.6953C14.6245 91.2246 22.1616 95.2915 25.0371 98.167C25.2653 98.3952 25.474 98.6358 25.666 98.8848C29.9791 96.4088 34.9787 94.9932 40.3086 94.9932C45.5675 94.9932 50.5038 96.373 54.7773 98.7881C54.9486 98.5734 55.1333 98.3658 55.332 98.167C58.2075 95.2915 65.7457 91.2244 69.2168 94.6953C72.6879 98.1664 68.6216 105.705 65.7461 108.58C65.6191 108.707 65.4862 108.826 65.3525 108.941C68.1466 113.445 69.7617 118.757 69.7617 124.446C69.7617 129.754 68.3563 134.733 65.8994 139.034C68.7626 142.019 72.6258 149.35 69.2168 152.759C65.8667 156.109 58.7291 152.437 55.6504 149.592C51.182 152.324 45.9295 153.899 40.3086 153.899C34.6248 153.899 29.3179 152.288 24.8174 149.499C21.7952 152.356 14.5397 156.145 11.1533 152.759C7.68231 149.288 11.7485 141.751 14.624 138.875C14.6248 138.874 14.6252 138.873 14.626 138.872C12.2259 134.608 10.8555 129.688 10.8555 124.446C10.8555 118.815 12.4354 113.553 15.1768 109.079C14.9865 108.924 14.8015 108.758 14.624 108.58C11.7485 105.705 7.68224 98.1664 11.1533 94.6953Z" fill="url(#paint2_linear_854_5142)"/>
<path d="M31.9073 105.632L35.2416 108.966C35.6024 109.327 36.1606 109.4 36.6025 109.145L41.9387 106.064C42.3807 105.809 42.9388 105.882 43.2997 106.243L46.6339 109.578" stroke="#252525" stroke-width="2.81855" stroke-linecap="round"/>
<circle cx="36.1341" cy="116.06" r="3.10041" fill="#252525"/>
<circle cx="42.8986" cy="116.06" r="3.10041" fill="#252525"/>
</g>
<g filter="url(#filter3_d_854_5142)">
<path d="M43.6713 167.711C44.6297 166.753 46.1835 166.753 47.142 167.711C48.1004 168.669 48.1003 170.223 47.142 171.182L46.3529 171.97C46.4852 171.978 46.6175 171.985 46.7494 171.995L48.5804 170.165C49.539 169.207 51.0926 169.207 52.0511 170.165C52.7981 170.912 52.9591 172.019 52.5414 172.926C67.4776 176.66 78.5413 190.168 78.5414 206.262C78.5414 225.239 63.1567 240.624 44.1791 240.624C25.2017 240.624 9.81775 225.239 9.81775 206.262C9.81788 188.891 22.7069 174.533 39.4427 172.226C39.5625 171.922 39.7445 171.638 39.9896 171.393L43.6713 167.711Z" fill="white"/>
<path d="M74.1917 206.777C74.8694 206.788 75.4306 206.248 75.4155 205.571C75.3754 203.771 75.1799 201.978 74.831 200.212C74.6996 199.547 74.0351 199.14 73.3759 199.298L53.6314 204.011C52.2283 204.346 52.4531 206.407 53.8955 206.431L74.1917 206.777Z" fill="url(#paint3_linear_854_5142)"/>
<path d="M72.6164 196.66C73.2585 196.443 73.6055 195.745 73.3636 195.112C72.7208 193.431 71.934 191.808 71.0118 190.262C70.6646 189.68 69.9021 189.52 69.3341 189.89L52.3227 200.965C51.1137 201.753 52.0184 203.618 53.3851 203.157L72.6164 196.66Z" fill="url(#paint4_linear_854_5142)"/>
<path d="M67.9908 187.993C68.5285 187.58 68.6317 186.808 68.1982 186.287C67.047 184.903 65.7782 183.621 64.4062 182.456C63.8896 182.017 63.1165 182.112 62.6984 182.646L50.1746 198.621C49.2846 199.756 50.7432 201.23 51.8876 200.352L67.9908 187.993Z" fill="url(#paint5_linear_854_5142)"/>
<path d="M60.8911 181.333C61.2684 180.77 61.1191 180.005 60.5417 179.651C59.008 178.708 57.3957 177.9 55.7229 177.235C55.093 176.984 54.3911 177.322 54.1656 177.961L47.4138 197.104C46.934 198.465 48.7875 199.394 49.5906 198.196L60.8911 181.333Z" fill="url(#paint6_linear_854_5142)"/>
<path d="M52.0055 177.29C52.1822 176.635 51.7954 175.959 51.1347 175.808C49.3796 175.408 47.5932 175.16 45.7954 175.067C45.1186 175.032 44.5621 175.577 44.5537 176.254L44.302 196.552C44.2841 197.994 46.3379 198.28 46.7139 196.887L52.0055 177.29Z" fill="url(#paint7_linear_854_5142)"/>
<path d="M42.3196 176.309C42.2775 175.633 41.6947 175.116 41.0204 175.185C39.2294 175.367 37.4576 175.703 35.7246 176.191C35.0721 176.374 34.7194 177.069 34.9283 177.713L41.1865 197.024C41.6312 198.396 43.6682 198.009 43.5787 196.569L42.3196 176.309Z" fill="url(#paint8_linear_854_5142)"/>
<path d="M32.7472 178.516C32.4889 177.889 31.7704 177.588 31.1544 177.871C29.5182 178.621 27.9499 179.512 26.4671 180.533C25.9089 180.917 25.7993 181.688 26.2053 182.231L38.3636 198.486C39.2276 199.642 41.0306 198.618 40.481 197.284L32.7472 178.516Z" fill="url(#paint9_linear_854_5142)"/>
<path d="M24.4654 183.634C24.0202 183.123 23.2432 183.068 22.75 183.533C21.4402 184.768 20.2395 186.114 19.1614 187.555C18.7555 188.098 18.8985 188.864 19.4569 189.248L36.1783 200.757C37.3666 201.575 38.747 200.027 37.7994 198.94L24.4654 183.634Z" fill="url(#paint10_linear_854_5142)"/>
<path d="M18.037 191.519C17.4466 191.186 16.6958 191.394 16.3863 191.997C15.5643 193.598 14.8822 195.268 14.3478 196.987C14.1465 197.634 14.5372 198.308 15.1918 198.484L34.7974 203.745C36.1906 204.118 36.9748 202.199 35.7183 201.49L18.037 191.519Z" fill="url(#paint11_linear_854_5142)"/>
<path d="M14.6935 200.663C14.0276 200.537 13.3828 200.974 13.2825 201.644C13.0163 203.424 12.9045 205.224 12.9484 207.024C12.9649 207.702 13.5507 208.215 14.2271 208.172L34.4852 206.881C35.9248 206.789 36.0534 204.72 34.6361 204.451L14.6935 200.663Z" fill="url(#paint12_linear_854_5142)"/>
<path d="M14.466 210.485C13.795 210.58 13.3258 211.202 13.4474 211.869C13.7704 213.64 14.2458 215.379 14.8684 217.069C15.1028 217.704 15.823 218.001 16.4493 217.742L35.2054 209.979C36.5383 209.427 35.9917 207.427 34.5635 207.63L14.466 210.485Z" fill="url(#paint13_linear_854_5142)"/>
<path d="M17.3782 219.773C16.773 220.078 16.5275 220.817 16.8561 221.41C17.7289 222.985 18.7362 224.481 19.8667 225.882C20.2923 226.409 21.0696 226.46 21.58 226.014L36.8647 212.656C37.951 211.707 36.793 209.987 35.5048 210.636L17.3782 219.773Z" fill="url(#paint14_linear_854_5142)"/>
<path d="M23.131 227.66C22.6557 228.143 22.6604 228.922 23.1619 229.378C24.4938 230.589 25.9279 231.682 27.4481 232.647C28.0205 233.01 28.773 232.808 29.1132 232.222L39.3031 214.666C40.0272 213.418 38.3785 212.161 37.3669 213.189L23.131 227.66Z" fill="url(#paint15_linear_854_5142)"/>
<path d="M31.0883 233.271C30.7926 233.881 31.0464 234.617 31.6675 234.889C33.3169 235.61 35.0256 236.187 36.7745 236.614C37.4329 236.775 38.0813 236.343 38.216 235.679L42.2508 215.784C42.5375 214.371 40.5731 213.707 39.9438 215.005L31.0883 233.271Z" fill="url(#paint16_linear_854_5142)"/>
<path d="M40.5089 236.052C40.426 236.725 40.904 237.34 41.5795 237.396C43.3734 237.546 45.177 237.54 46.97 237.38C47.645 237.319 48.1193 236.701 48.0323 236.029L45.427 215.898C45.2418 214.467 43.1684 214.473 42.9919 215.905L40.5089 236.052Z" fill="url(#paint17_linear_854_5142)"/>
<path d="M50.2372 235.66C50.374 236.324 51.0237 236.753 51.6816 236.591C53.4292 236.159 55.1361 235.576 56.7833 234.85C57.4035 234.577 57.6551 233.839 57.3575 233.23L48.4459 214.992C47.8126 213.696 45.8502 214.365 46.1413 215.778L50.2372 235.66Z" fill="url(#paint18_linear_854_5142)"/>
<path d="M59.7553 231.917C60.107 232.497 60.8633 232.683 61.4284 232.309C62.9293 231.315 64.3415 230.193 65.6493 228.956C66.1416 228.49 66.131 227.711 65.6462 227.238L51.1277 213.051C50.0959 212.043 48.4723 213.332 49.221 214.565L59.7553 231.917Z" fill="url(#paint19_linear_854_5142)"/>
<path d="M67.5487 225.094C68.0765 225.519 68.8511 225.438 69.2554 224.894C70.3291 223.449 71.2758 221.914 72.0851 220.306C72.3899 219.7 72.1151 218.971 71.4982 218.691L53.0215 210.284C51.7085 209.687 50.62 211.451 51.7432 212.357L67.5487 225.094Z" fill="url(#paint20_linear_854_5142)"/>
<path d="M72.5026 216.199C73.1422 216.424 73.845 216.088 74.0441 215.44C74.5729 213.719 74.9519 211.956 75.1771 210.17C75.2618 209.497 74.7592 208.902 74.0839 208.844L53.8599 207.098C52.4227 206.974 51.9869 209.001 53.3481 209.479L72.5026 216.199Z" fill="url(#paint21_linear_854_5142)"/>
<circle cx="40.1912" cy="188.426" r="3.37484" fill="#252525"/>
<circle cx="47.5545" cy="188.426" r="3.37484" fill="#252525"/>
<path d="M39.7275 182.29C39.7275 182.29 38.7001 178.513 39.7275 176.399C40.6961 174.405 44.1797 172.472 44.1797 172.472" stroke="#252525" stroke-width="3.06803" stroke-linecap="round"/>
<path d="M46.842 182.29C46.842 182.29 46.3743 179.545 46.842 177.994C47.3144 176.428 49.0886 174.926 49.0886 174.926" stroke="#252525" stroke-width="3.06803" stroke-linecap="round"/>
</g>
<path d="M48.8165 275.215C50.0716 275.215 51.089 276.232 51.089 277.487C51.0889 278.742 50.0716 279.759 48.8165 279.76C47.5614 279.76 46.5441 278.742 46.5441 277.487C46.5441 276.232 47.5614 275.215 48.8165 275.215Z" fill="#252525" stroke="#252525" stroke-width="0.454524"/>
<path d="M40.6334 277.714H44.7241" stroke="#252525" stroke-width="2.27262" stroke-linecap="round"/>
<path d="M39.2709 280.441C39.2709 280.441 39.2709 286.577 45.4069 286.577C51.543 286.577 51.543 280.441 51.543 280.441" stroke="#252525" stroke-width="2.27262" stroke-linecap="round"/>
<g filter="url(#filter4_d_854_5142)">
<path d="M46.6338 330.211C50.9333 330.211 54.6798 332.568 56.6572 336.053C57.0626 336.768 58.0517 337.177 58.8438 336.958C62.7071 335.892 67.023 336.876 70.0635 339.916C73.1038 342.957 74.0861 347.272 73.0195 351.134C72.8009 351.926 73.211 352.915 73.9258 353.321C77.4121 355.298 79.7684 359.046 79.7686 363.346C79.7686 367.646 77.4118 371.392 73.9258 373.37C73.2112 373.775 72.8011 374.764 73.0195 375.556C74.0866 379.419 73.104 383.735 70.0635 386.776C67.0227 389.816 62.7069 390.799 58.8438 389.732C58.0517 389.513 57.0625 389.923 56.6572 390.638C54.6802 394.124 50.9339 396.481 46.6338 396.481C42.3337 396.481 38.5859 394.124 36.6084 390.638C36.203 389.923 35.2138 389.513 34.4219 389.732C30.5594 390.798 26.2445 389.816 23.2041 386.776C20.1638 383.735 19.1806 379.419 20.2471 375.556C20.4657 374.764 20.0553 373.775 19.3408 373.37C15.8555 371.392 13.499 367.646 13.499 363.346C13.4991 359.047 15.8553 355.299 19.3408 353.321C20.0554 352.915 20.4656 351.926 20.2471 351.134C19.1813 347.271 20.1642 342.956 23.2041 339.916C26.2443 336.876 30.56 335.893 34.4229 336.959C35.2145 337.178 36.2028 336.768 36.6084 336.054C38.5863 332.568 42.3342 330.211 46.6338 330.211ZM46.7871 347.877C46.681 347.801 46.5295 347.814 46.4385 347.916L43.9678 350.696C43.3139 351.431 42.3134 351.755 41.3545 351.544L37.7236 350.748C37.5887 350.719 37.4579 350.799 37.417 350.923L37.4053 350.979L37.041 354.68H37.04C36.9493 355.596 36.4028 356.4 35.5928 356.822L35.4268 356.902L32.0186 358.391C31.8769 358.453 31.8194 358.627 31.8994 358.764H31.9004L33.7793 361.974C34.2446 362.769 34.2735 363.741 33.8662 364.558L33.7793 364.719L31.9004 367.928L31.8994 367.929C31.8198 368.065 31.8771 368.237 32.0176 368.3H32.0186L35.4268 369.791C36.3275 370.186 36.9431 371.035 37.04 372.012L37.041 372.013L37.4053 375.714C37.4208 375.869 37.5696 375.978 37.7236 375.945V375.944L41.3545 375.149C42.3132 374.939 43.3139 375.261 43.9678 375.996L46.4385 378.777L46.4814 378.815C46.5876 378.891 46.739 378.879 46.8301 378.777L49.2998 375.996C49.9536 375.261 50.9552 374.939 51.9141 375.149H51.9131L55.5449 375.944V375.945C55.699 375.978 55.8477 375.869 55.8633 375.714L56.2275 372.013V372.012C56.3244 371.035 56.9411 370.186 57.8418 369.791L61.25 368.3C61.391 368.238 61.4481 368.066 61.3682 367.929V367.928L59.4893 364.719C58.9928 363.871 58.9929 362.822 59.4893 361.974L61.3682 358.764L61.3926 358.711C61.4333 358.586 61.3731 358.446 61.249 358.392V358.391L57.8418 356.902C56.9972 356.532 56.4026 355.761 56.252 354.862L56.2275 354.68L55.8633 350.979C55.8498 350.843 55.7344 350.743 55.6025 350.743L55.5449 350.748L51.9131 351.543L51.9141 351.544C50.9552 351.755 49.9536 351.431 49.2998 350.696L46.8301 347.916L46.7871 347.877Z" fill="white" stroke="white" stroke-width="2.45443"/>
<circle cx="46.6341" cy="363.346" r="17.181" fill="white"/>
<path d="M46.6348 331.439C50.4747 331.439 53.8226 333.542 55.5912 336.659C56.2741 337.863 57.8374 338.51 59.1713 338.142C62.6262 337.189 66.481 338.069 69.1963 340.785C71.9116 343.5 72.7912 347.354 71.8374 350.809C71.469 352.143 72.1168 353.707 73.3206 354.39C76.4383 356.158 78.542 359.507 78.542 363.347C78.5419 367.187 76.4384 370.535 73.3211 372.303C72.1174 372.986 71.4698 374.55 71.838 375.884C72.7917 379.339 71.9116 383.193 69.1963 385.909C66.4809 388.624 62.6265 389.504 59.1718 388.55C57.8377 388.181 56.2741 388.829 55.5912 390.033C53.8228 393.15 50.4749 395.253 46.6348 395.253C42.7945 395.253 39.4461 393.15 37.6775 390.033C36.9945 388.829 35.4308 388.181 34.0967 388.55C30.642 389.504 26.7877 388.624 24.0723 385.909C21.3569 383.193 20.4763 379.338 21.4298 375.884C21.7979 374.55 21.1504 372.986 19.9468 372.303C16.8298 370.535 14.7266 367.187 14.7266 363.347C14.7266 359.507 16.83 356.158 19.9473 354.39C21.151 353.707 21.7987 352.143 21.4304 350.809C20.4768 347.354 21.357 343.5 24.0723 340.785C26.7876 338.069 30.6421 337.189 34.0968 338.143C35.4309 338.511 36.9945 337.863 37.6774 336.66C39.446 333.542 42.7945 331.439 46.6348 331.439ZM47.7471 347.101C47.1547 346.435 46.1138 346.435 45.5215 347.101L43.0508 349.881C42.6929 350.284 42.1453 350.461 41.6191 350.346L37.9863 349.549C37.1154 349.358 36.2732 349.971 36.1855 350.858L35.8203 354.559C35.7674 355.095 35.4282 355.561 34.9346 355.777L31.5283 357.268C30.7115 357.625 30.3891 358.616 30.8398 359.385L32.7197 362.594C32.9921 363.059 32.9921 363.635 32.7197 364.1L30.8398 367.308C30.3891 368.077 30.7115 369.068 31.5283 369.425L34.9346 370.916C35.4282 371.132 35.7674 371.598 35.8203 372.134L36.1855 375.835C36.2731 376.723 37.1154 377.335 37.9863 377.144L41.6191 376.347C42.1453 376.232 42.6929 376.41 43.0508 376.813L45.5215 379.592C46.1138 380.259 47.1547 380.258 47.7471 379.592L50.2178 376.813C50.5758 376.41 51.1241 376.232 51.6504 376.347L55.2832 377.144C56.154 377.335 56.9965 376.723 57.084 375.835L57.4492 372.134C57.5022 371.598 57.8404 371.132 58.334 370.916L61.7412 369.425C62.5578 369.068 62.8794 368.077 62.4287 367.308L60.5488 364.1C60.2765 363.635 60.2765 363.059 60.5488 362.594L62.4287 359.385C62.8794 358.616 62.5579 357.625 61.7412 357.268L58.334 355.777C57.8403 355.561 57.5021 355.095 57.4492 354.559L57.084 350.858C56.9964 349.971 56.154 349.359 55.2832 349.549L51.6504 350.346C51.1241 350.461 50.5758 350.284 50.2178 349.881L47.7471 347.101Z" fill="url(#paint22_radial_854_5142)"/>
<path d="M45.9402 351.341C45.9402 351.341 48.7394 351.244 49.942 349.741C51.0092 348.407 51.0092 346.539 51.0092 346.539" stroke="#252525" stroke-width="2.66786" stroke-linecap="round"/>
<circle cx="42.2055" cy="341.737" r="2.93464" fill="#252525"/>
<circle cx="48.6083" cy="341.737" r="2.93464" fill="#252525"/>
</g>
<g filter="url(#filter5_d_854_5142)">
<path d="M45.0492 414.417C46.0832 413.378 47.823 413.413 48.8099 414.521L49.4135 415.182C50.0732 415.884 50.8938 416.697 51.7933 417.452C53.0103 418.474 54.287 419.316 55.4447 419.692C56.6025 420.068 58.1301 420.137 59.7152 420.026C61.2778 419.917 62.7876 419.642 63.8519 419.409C65.3008 419.093 66.7269 420.086 66.9535 421.533L66.972 421.675V421.676C67.0798 422.76 67.284 424.281 67.6625 425.801C68.0464 427.343 68.583 428.775 69.2982 429.76C70.0135 430.744 71.2101 431.697 72.558 432.538C73.8865 433.367 75.2688 434.032 76.267 434.47C77.6712 435.085 78.2326 436.819 77.4594 438.141C76.9092 439.081 76.1814 440.431 75.5941 441.884C74.9983 443.357 74.5903 444.832 74.5902 446.049C74.5904 447.266 74.9983 448.74 75.5941 450.213C76.1813 451.664 76.9092 453.014 77.4594 453.955C78.2326 455.277 77.6712 457.01 76.267 457.626C75.2688 458.064 73.8865 458.728 72.558 459.557C71.2101 460.399 70.0135 461.351 69.2982 462.336C68.5829 463.321 68.0463 464.753 67.6625 466.295C67.2841 467.815 67.0798 469.335 66.972 470.42V470.421C66.8198 471.942 65.3504 473.014 63.8529 472.688H63.8519C62.7873 472.456 61.2777 472.18 59.7152 472.07C58.1302 471.959 56.6022 472.026 55.4447 472.402C54.287 472.778 53.0103 473.622 51.7933 474.643C50.5938 475.65 49.5344 476.76 48.8099 477.574C47.7911 478.718 45.9703 478.719 44.9515 477.574C44.2271 476.76 43.1677 475.651 41.9681 474.643C40.7512 473.622 39.4754 472.778 38.3177 472.402C37.1603 472.026 35.6324 471.959 34.0472 472.07C32.4848 472.18 30.9752 472.456 29.9105 472.688H29.9095C28.4121 473.014 26.9427 471.942 26.7904 470.421V470.42C26.6827 469.335 26.4774 467.815 26.099 466.295C25.7151 464.753 25.1786 463.321 24.4633 462.336C23.748 461.351 22.5522 460.399 21.2045 459.557C19.8759 458.728 18.4927 458.064 17.4945 457.626C16.0904 457.01 15.529 455.277 16.3021 453.955C16.8523 453.014 17.5811 451.665 18.1683 450.213C18.7641 448.74 19.1711 447.266 19.1713 446.049C19.1712 443.214 17.3133 439.616 16.2054 437.722C17.5926 437.049 17.8836 435.84 17.4945 434.47C18.4927 434.032 19.8759 433.367 21.2045 432.538C22.5522 431.697 23.748 430.744 24.4633 429.76C25.1786 428.775 25.7151 427.343 26.099 425.801C26.4774 424.281 26.6827 422.76 26.7904 421.676V421.675C26.9432 420.151 28.414 419.083 29.9095 419.409H29.9105C30.9748 419.642 32.4838 419.917 34.0463 420.026C35.6315 420.137 37.1599 420.068 38.3177 419.692C39.4753 419.316 40.7513 418.474 41.9681 417.452C43.1677 416.445 44.2271 415.335 44.9515 414.521L45.0492 414.417ZM43.7689 437.186H43.7679C43.4312 437.463 43.0051 437.599 42.5775 437.574H42.5765L39.7074 437.403L38.9828 440.184C38.8733 440.604 38.6087 440.965 38.2455 441.197L38.2465 441.198L35.8265 442.745L36.8744 445.422C37.0323 445.825 37.0311 446.271 36.8744 446.673V446.674L35.8265 449.349L38.2465 450.897H38.2455C38.564 451.101 38.8063 451.404 38.9349 451.757L38.9828 451.911L39.7074 454.691L42.5765 454.521H42.5775C43.0049 454.497 43.4311 454.632 43.7679 454.909H43.7689L45.9877 456.731L48.2074 454.909L48.3383 454.811C48.6514 454.601 49.0246 454.5 49.3978 454.521H49.3998L52.2679 454.691L52.9935 451.911L53.0414 451.757C53.1701 451.404 53.4116 451.101 53.7299 450.897L56.1488 449.349L55.1019 446.674L55.101 446.673C54.9443 446.272 54.9441 445.825 55.1019 445.422L56.1488 442.745L53.7299 441.198C53.3668 440.966 53.103 440.604 52.9935 440.184L52.2679 437.403L49.3998 437.574H49.3978C48.9711 437.599 48.5444 437.463 48.2074 437.186L45.9877 435.363L43.7689 437.186Z" fill="white" stroke="white" stroke-width="2.45443"/>
<circle cx="46.6339" cy="446.797" r="12.2721" fill="white"/>
<path d="M45.823 416.06C46.3413 415.477 47.2833 415.477 47.8015 416.06C49.2605 417.699 52.1082 420.577 54.8035 421.453C57.4987 422.329 61.4947 421.674 63.6384 421.205C64.3999 421.039 65.1619 421.593 65.239 422.368C65.456 424.552 66.0684 428.555 67.7341 430.848C69.4 433.14 73.0176 434.959 75.0271 435.84C75.7409 436.153 76.0319 437.049 75.6384 437.722C74.5305 439.616 72.6726 443.214 72.6726 446.048C72.6726 448.882 74.5305 452.48 75.6384 454.374C76.0319 455.047 75.7409 455.943 75.0271 456.256C73.0176 457.137 69.4 458.955 67.7341 461.248C66.0684 463.541 65.456 467.544 65.239 469.728C65.1619 470.503 64.3999 471.057 63.6384 470.891C61.4947 470.422 57.4987 469.767 54.8035 470.643C52.1082 471.518 49.2605 474.397 47.8015 476.036C47.2833 476.618 46.3413 476.618 45.823 476.036C44.3641 474.397 41.5163 471.518 38.821 470.643C36.1258 469.767 32.1298 470.422 29.9861 470.891C29.2246 471.057 28.4627 470.503 28.3855 469.728C28.1686 467.544 27.5561 463.541 25.8904 461.248C24.2246 458.956 20.607 457.137 18.5974 456.256C17.8836 455.943 17.5926 455.047 17.9861 454.374C19.094 452.48 20.9519 448.882 20.9519 446.048C20.9519 443.214 19.094 439.616 17.9861 437.722C17.5926 437.049 17.8836 436.153 18.5974 435.84C20.607 434.959 24.2246 433.14 25.8904 430.848C27.5561 428.555 28.1686 424.552 28.3855 422.368C28.4627 421.593 29.2246 421.039 29.9861 421.205C32.1298 421.674 36.1258 422.329 38.821 421.453C41.5163 420.577 44.3641 417.699 45.823 416.06ZM46.2996 434.03C46.1185 433.882 45.8575 433.882 45.6765 434.03L42.989 436.237C42.8935 436.316 42.7716 436.355 42.6482 436.348L39.1775 436.143C38.9436 436.129 38.7327 436.282 38.6736 436.509L37.7966 439.873C37.7655 439.993 37.6898 440.096 37.5857 440.163L34.656 442.037C34.4588 442.163 34.3782 442.412 34.4636 442.63L35.7322 445.867C35.7773 445.982 35.7772 446.111 35.7322 446.226L34.4636 449.464C34.3783 449.682 34.4587 449.93 34.656 450.057L37.5857 451.93C37.6898 451.996 37.7654 452.1 37.7966 452.22L38.6736 455.585C38.7327 455.812 38.9436 455.965 39.1775 455.951L42.6482 455.745C42.7716 455.738 42.8935 455.778 42.989 455.856L45.6765 458.063C45.8575 458.212 46.1185 458.212 46.2996 458.063L48.9871 455.856C49.0826 455.778 49.2045 455.738 49.3279 455.745L52.7996 455.951C53.0333 455.965 53.2444 455.812 53.3035 455.585L54.1804 452.22C54.2116 452.1 54.2863 451.996 54.3904 451.93L57.3201 450.057C57.5174 449.93 57.5978 449.682 57.5125 449.464L56.2439 446.226C56.1989 446.111 56.1988 445.982 56.2439 445.867L57.5125 442.63C57.5979 442.412 57.5174 442.163 57.3201 442.037L54.3904 440.163C54.2864 440.096 54.2116 439.993 54.1804 439.873L53.3035 436.509C53.2444 436.282 53.0333 436.129 52.7996 436.143L49.3279 436.348C49.2045 436.355 49.0826 436.316 48.9871 436.237L46.2996 434.03Z" fill="url(#paint23_radial_854_5142)"/>
<path d="M42.9924 427.514C43.4623 427.044 44.2238 427.044 44.6936 427.514C45.1633 427.984 45.1632 428.745 44.6936 429.215L43.8596 430.049L44.6936 430.883C45.1632 431.353 45.1633 432.115 44.6936 432.584C44.2238 433.054 43.4623 433.054 42.9924 432.584L42.1584 431.75L41.3245 432.584C40.8546 433.054 40.0931 433.054 39.6233 432.584C39.1535 432.115 39.1537 431.353 39.6233 430.883L40.4573 430.049L39.6233 429.215C39.1534 428.745 39.1534 427.984 39.6233 427.514C40.0932 427.044 40.8546 427.044 41.3245 427.514L42.1584 428.348L42.9924 427.514Z" fill="#252525"/>
<path d="M49.4891 427.514C49.959 427.044 50.7205 427.044 51.1903 427.514C51.6601 427.984 51.6601 428.745 51.1903 429.215L50.3563 430.049L51.1903 430.883C51.6599 431.353 51.6601 432.115 51.1903 432.584C50.7205 433.054 49.959 433.054 49.4891 432.584L48.6552 431.75L47.8212 432.584C47.3513 433.054 46.5898 433.054 46.12 432.584C45.6502 432.115 45.6504 431.353 46.12 430.883L46.954 430.049L46.12 429.215C45.6503 428.745 45.6502 427.984 46.12 427.514C46.5898 427.044 47.3513 427.044 47.8212 427.514L48.6552 428.348L49.4891 427.514Z" fill="#252525"/>
<circle cx="45.2865" cy="437.269" r="3.85018" fill="#252525"/>
</g>
<g filter="url(#filter6_d_854_5142)">
<path d="M84.6774 525.338C84.6774 529.689 83.8208 533.998 82.1559 538.018C80.4907 542.038 78.0491 545.691 74.9723 548.768C71.8955 551.845 68.2424 554.286 64.2223 555.952C60.5807 557.46 56.7023 558.302 52.7701 558.448V558.697L51.528 558.682L50.7418 558.672H50.734L50.7262 558.671C46.6538 558.571 42.632 557.721 38.8639 556.161C34.8438 554.495 31.1897 552.054 28.1129 548.977C25.0361 545.9 22.5945 542.246 20.9293 538.226C19.2645 534.206 18.4079 529.898 18.4078 525.547V524.32H19.6354C23.9863 524.32 28.2951 525.176 32.3151 526.841L33.0641 527.162C36.7893 528.814 40.1805 531.14 43.0651 534.025C46.1417 537.101 48.5835 540.755 50.2487 544.775C50.7419 545.966 51.1622 547.183 51.5123 548.418C51.8736 547.111 52.3164 545.825 52.8375 544.567C54.5027 540.547 56.9443 536.894 60.0211 533.817C63.0979 530.74 66.751 528.298 70.7711 526.633C74.5401 525.072 78.5629 524.222 82.6364 524.121H82.652L83.4352 524.112L84.6774 524.096V525.338ZM84.6774 493.431C84.6774 497.782 83.8208 502.091 82.1559 506.111C80.4907 510.131 78.049 513.784 74.9723 516.861C71.8955 519.937 68.2424 522.379 64.2223 524.044C60.5807 525.553 56.7023 526.395 52.7701 526.54V526.58L51.528 526.566H50.316V526.54C46.3839 526.395 42.5054 525.553 38.8639 524.044C34.8437 522.379 31.1897 519.938 28.1129 516.861C25.0362 513.784 22.5945 510.131 20.9293 506.111C19.2644 502.091 18.4078 497.782 18.4078 493.431V492.203H19.6354C23.9863 492.204 28.2951 493.06 32.3151 494.725C36.3351 496.39 39.9883 498.832 43.0651 501.909C46.1418 504.985 48.5835 508.639 50.2487 512.66C50.7558 513.884 51.1868 515.136 51.5426 516.407C51.8983 515.136 52.3294 513.884 52.8365 512.66H52.8375C54.5027 508.639 56.9434 504.985 60.0201 501.909C63.097 498.832 66.751 496.39 70.7711 494.725L71.4801 494.441C75.0427 493.061 78.8173 492.308 82.6364 492.214L82.6442 492.213H82.652L83.4352 492.204L84.6774 492.189V493.431Z" fill="white" stroke="white" stroke-width="2.45443"/>
<path d="M19.6354 493.431C23.8255 493.431 27.9751 494.256 31.8463 495.86C35.7174 497.463 39.2351 499.814 42.1979 502.777C45.1606 505.74 47.5105 509.257 49.1139 513.128C50.7173 517 51.5426 521.148 51.5426 525.338C47.3526 525.338 43.2037 524.513 39.3326 522.91C35.4614 521.306 31.944 518.956 28.9811 515.993C26.0182 513.03 23.6676 509.512 22.0641 505.641C20.4607 501.77 19.6354 497.621 19.6354 493.431Z" fill="url(#paint24_linear_854_5142)"/>
<path d="M51.5431 525.339C55.7333 525.339 59.8828 524.513 63.754 522.91C67.6251 521.306 71.1428 518.956 74.1056 515.993C77.0683 513.03 79.4182 509.512 81.0216 505.641C82.625 501.77 83.4503 497.621 83.4503 493.431C79.2603 493.431 75.1114 494.257 71.2404 495.86C67.3692 497.464 63.8517 499.814 60.8888 502.777C57.926 505.74 55.5753 509.258 53.9718 513.129C52.3684 517 51.5431 521.149 51.5431 525.339Z" fill="url(#paint25_linear_854_5142)"/>
<path d="M51.5431 557.246C55.7333 557.246 59.8828 556.421 63.754 554.817C67.6251 553.214 71.1428 550.863 74.1056 547.9C77.0684 544.938 79.4181 541.42 81.0216 537.549C82.6251 533.678 83.4503 529.529 83.4503 525.339C79.2603 525.339 75.1114 526.164 71.2404 527.768C67.3693 529.371 63.8516 531.721 60.8888 534.684C57.926 537.646 55.5753 541.164 53.9718 545.035C52.3683 548.906 51.5431 553.056 51.5431 557.246Z" fill="url(#paint26_linear_854_5142)"/>
<path d="M19.6355 525.547C23.8257 525.547 27.9752 526.372 31.8464 527.976C35.7176 529.579 39.2351 531.93 42.198 534.893C45.1608 537.856 47.5105 541.373 49.114 545.244C50.7175 549.115 51.5427 553.264 51.5427 557.454C47.3527 557.454 43.2038 556.629 39.3328 555.026C35.4617 553.422 31.944 551.072 28.9812 548.11C26.0184 545.147 23.6677 541.629 22.0642 537.758C20.4607 533.887 19.6355 529.737 19.6355 525.547Z" fill="url(#paint27_linear_854_5142)"/>
<path d="M51.9887 515.521C51.9887 514.87 51.7301 514.245 51.2698 513.785C50.8095 513.325 50.1852 513.066 49.5343 513.066C48.8833 513.066 48.259 513.325 47.7987 513.785C47.3384 514.245 47.0798 514.87 47.0798 515.521L49.5343 515.521H51.9887Z" fill="#252525"/>
<path d="M57.3438 515.521C57.3438 514.87 57.0852 514.245 56.6249 513.785C56.1646 513.325 55.5403 513.066 54.8894 513.066C54.2384 513.066 53.6141 513.325 53.1538 513.785C52.6935 514.245 52.4349 514.87 52.4349 515.521L54.8894 515.521H57.3438Z" fill="#252525"/>
<path d="M46.634 517.529C46.634 517.529 46.634 522.884 51.9891 522.884C57.3443 522.884 57.3443 517.529 57.3443 517.529" stroke="#252525" stroke-width="2.2313" stroke-linecap="round"/>
</g>
<path d="M129.789 27.3738V27.9399C129.762 30.4063 129.688 32.6504 129.566 34.6722C129.445 36.6804 129.182 38.9514 128.778 41.4853L123.683 41.081C124.047 38.7088 124.29 36.5726 124.411 34.6722C124.532 32.7717 124.606 30.7298 124.633 28.5464H110.704V24.4221H129.789V27.3738ZM120.61 45.65C124.613 45.4883 128.171 45.2053 131.285 44.8009L131.608 48.6422C128.508 49.1678 125.253 49.5317 121.843 49.7339C118.433 49.9226 114.868 50.0169 111.148 50.0169H109.248L108.763 45.8926H110.461L115.515 45.8118V34.9754H120.61V45.65ZM138.239 35.5415H143.253V39.8275H138.239V57.5377H133.023V20.7426H138.239V35.5415ZM178.431 39.9488H144.871V35.7841H159.023V33.3985H149.035V21.7939H174.185V33.3985H164.117V35.7841H178.431V39.9488ZM154.09 29.4359H169.05V25.7968H154.09V29.4359ZM174.347 51.1895H153.847V53.4134H175.318V57.2951H148.793V47.5504H169.252V45.65H148.752V41.7684H174.347V51.1895ZM211.466 40.5149H206.29V20.7426H211.466V40.5149ZM191.936 45.5692H206.331V42.1323H211.466V57.1334H186.841V42.1323H191.936V45.5692ZM206.331 52.9686V49.5722H191.936V52.9686H206.331ZM191.289 22.2791C193.189 22.2656 194.901 22.6295 196.424 23.3708C197.961 24.1121 199.167 25.1499 200.043 26.4842C200.919 27.8051 201.357 29.3146 201.357 31.0129C201.357 32.6572 200.919 34.133 200.043 35.4404C199.167 36.7478 197.961 37.7721 196.424 38.5134C194.901 39.2547 193.189 39.6253 191.289 39.6253C189.389 39.6253 187.67 39.2547 186.134 38.5134C184.611 37.7721 183.411 36.7478 182.535 35.4404C181.659 34.133 181.221 32.6572 181.221 31.0129C181.221 29.3146 181.659 27.8051 182.535 26.4842C183.411 25.1499 184.611 24.1121 186.134 23.3708C187.67 22.6295 189.389 22.2656 191.289 22.2791ZM191.289 26.5651C190.305 26.5651 189.429 26.7471 188.661 27.111C187.906 27.4614 187.313 27.9736 186.882 28.6475C186.464 29.3079 186.262 30.0964 186.275 31.0129C186.262 31.9159 186.464 32.6976 186.882 33.358C187.313 34.005 187.906 34.5037 188.661 34.8541C189.429 35.2045 190.305 35.3798 191.289 35.3798C192.246 35.3798 193.102 35.2045 193.857 34.8541C194.611 34.5037 195.198 34.005 195.616 33.358C196.047 32.6976 196.262 31.9159 196.262 31.0129C196.262 30.0964 196.047 29.3079 195.616 28.6475C195.198 27.9736 194.611 27.4614 193.857 27.111C193.102 26.7471 192.246 26.5651 191.289 26.5651ZM247.452 57.6186H242.317V38.2101H236.373V34.005H242.317V20.7426H247.452V57.6186ZM234.311 37.6036H222.868V44.8009C225.712 44.774 228.226 44.6931 230.409 44.5583C232.593 44.4101 234.783 44.1405 236.98 43.7496L237.384 47.9548C234.81 48.3726 232.229 48.6624 229.641 48.8241C227.067 48.9724 224.108 49.0465 220.766 49.0465H217.733V33.5198H229.297V27.9803H217.652V23.8156H234.311V37.6036Z" fill="white"/>
<path d="M130.302 107.966H118.132V110.836H129.534V114.92H118.132V117.912C121.313 117.912 123.948 117.845 126.037 117.71C128.139 117.562 130.222 117.292 132.284 116.901L132.85 120.985C130.666 121.363 128.456 121.619 126.219 121.754C123.981 121.888 121.218 121.956 117.93 121.956H115.989H112.916V103.801H130.302V107.966ZM140.734 138.129H116.676V124.867H140.734V138.129ZM121.771 134.005H135.64V128.87H121.771V134.005ZM140.734 110.351H145.708V114.597H140.734V123.25H135.559V101.739H140.734V110.351ZM176.963 107.197C176.963 109.542 176.91 111.618 176.802 113.424C176.694 115.217 176.431 117.252 176.013 119.53H180.886V123.694H166.531V138.574H161.356V123.694H147.325V119.53H170.797C171.229 117.4 171.505 115.453 171.626 113.687C171.761 111.908 171.828 110.014 171.828 108.006H151.166V103.882H176.963V107.197ZM196.695 111.766C196.682 113.694 197.012 115.628 197.686 117.569C198.373 119.509 199.398 121.289 200.759 122.906C202.12 124.51 203.771 125.757 205.712 126.646L202.841 130.69C200.847 129.773 199.115 128.445 197.646 126.707C196.176 124.955 195.017 122.933 194.168 120.642C193.319 123.162 192.133 125.379 190.61 127.293C189.1 129.207 187.315 130.649 185.252 131.62L182.26 127.536C184.228 126.619 185.906 125.319 187.294 123.634C188.683 121.936 189.727 120.055 190.428 117.993C191.142 115.931 191.506 113.855 191.52 111.766V109.502H183.716V105.297H204.095V109.502H196.695V111.766ZM212.141 115.769H217.559V120.096H212.141V138.534H206.966V101.739H212.141V115.769Z" fill="white"/>
<path d="M148.162 198.897H143.189V209.49H138.013V185.149H143.189V194.691H148.162V198.897ZM133.202 187.939C133.202 191.228 132.528 194.199 131.18 196.855C129.832 199.496 127.858 201.761 125.256 203.648C122.669 205.534 119.522 206.997 115.815 208.035L113.672 203.87C117.769 202.765 120.997 201.188 123.356 199.139C125.728 197.09 127.123 194.732 127.541 192.063H115.694V187.939H133.202ZM134.01 208.035C134.01 209.49 134.448 210.885 135.325 212.22C136.201 213.54 137.515 214.693 139.267 215.677C141.019 216.647 143.149 217.321 145.656 217.698L143.593 221.782C140.763 221.311 138.31 220.455 136.234 219.215C134.172 217.975 132.575 216.438 131.443 214.605C130.297 216.438 128.693 217.975 126.631 219.215C124.569 220.468 122.123 221.338 119.292 221.823L117.19 217.739C119.683 217.361 121.806 216.688 123.558 215.717C125.324 214.747 126.651 213.594 127.541 212.26C128.431 210.926 128.875 209.517 128.875 208.035V206.903H134.01V208.035ZM161.546 191.74C161.546 193.114 161.789 194.435 162.274 195.702C162.773 196.956 163.541 198.095 164.579 199.119C165.617 200.13 166.924 200.932 168.501 201.525L165.751 205.447C164.228 204.867 162.914 204.059 161.809 203.021C160.704 201.983 159.807 200.763 159.12 199.362C158.419 201.019 157.476 202.475 156.29 203.728C155.117 204.968 153.702 205.932 152.044 206.619L149.254 202.657C150.912 201.929 152.28 200.986 153.358 199.827C154.45 198.654 155.252 197.374 155.764 195.985C156.276 194.597 156.532 193.182 156.532 191.74V187.413H161.546V191.74ZM181.399 207.711H176.507V198.371H173.434V206.579H168.622V185.877H173.434V194.206H176.507V185.23H181.399V207.711ZM168.824 208.237C171.399 208.237 173.643 208.513 175.557 209.066C177.484 209.618 178.967 210.414 180.004 211.451C181.056 212.476 181.588 213.695 181.602 215.111C181.588 216.526 181.056 217.746 180.004 218.77C178.967 219.808 177.484 220.603 175.557 221.156C173.643 221.708 171.399 221.984 168.824 221.984C166.237 221.984 163.986 221.708 162.072 221.156C160.158 220.603 158.682 219.808 157.644 218.77C156.606 217.746 156.088 216.526 156.088 215.111C156.088 213.695 156.606 212.476 157.644 211.451C158.682 210.414 160.158 209.618 162.072 209.066C163.986 208.513 166.237 208.237 168.824 208.237ZM168.824 212.078C166.398 212.078 164.525 212.341 163.204 212.867C161.897 213.379 161.25 214.127 161.263 215.111C161.25 216.095 161.897 216.843 163.204 217.355C164.511 217.853 166.385 218.103 168.824 218.103C171.237 218.103 173.097 217.853 174.404 217.355C175.725 216.843 176.386 216.095 176.386 215.111C176.386 214.127 175.725 213.379 174.404 212.867C173.097 212.341 171.237 212.078 168.824 212.078ZM216.577 222.065H211.442V202.657H205.498V198.452H211.442V185.189H216.577V222.065ZM203.436 202.05H191.993V209.248C194.837 209.221 197.351 209.14 199.534 209.005C201.718 208.857 203.908 208.587 206.105 208.196L206.509 212.402C203.935 212.819 201.354 213.109 198.766 213.271C196.192 213.419 193.233 213.493 189.891 213.493H186.858V197.967H198.422V192.427H186.777V188.262H203.436V202.05Z" fill="white"/>
<path d="M144.215 275.9C144.215 278.259 144.188 280.26 144.134 281.905C144.08 283.535 143.925 285.395 143.669 287.484C143.427 289.574 143.043 291.858 142.517 294.338L137.382 293.853C138.015 291.198 138.48 288.448 138.777 285.604L117.448 286.656L116.801 282.531L139.04 281.723C139.067 281.062 139.087 280.287 139.1 279.398C139.127 278.508 139.147 277.666 139.161 276.87V275.9V275.738H117.933V271.614H144.215V275.9ZM147.652 300.767H114.092V296.562H147.652V300.767ZM180.727 305.255H175.592V268.379H180.727V305.255ZM169.325 285.645H157.195V292.397C160.079 292.384 162.768 292.283 165.261 292.094C167.768 291.905 170.336 291.602 172.964 291.184L173.409 295.349C170.551 295.848 167.707 296.191 164.877 296.38C162.047 296.555 158.812 296.643 155.173 296.643H151.857V281.561H164.068V275.617H151.817V271.452H169.325V285.645ZM217.563 305.174H212.63V268.379H217.563V305.174ZM209.88 303.476H205.028V286.089H202.056C201.908 288.489 201.477 290.557 200.762 292.296C200.062 294.035 199.132 295.369 197.972 296.299C196.813 297.229 195.486 297.694 193.99 297.694C192.386 297.694 190.977 297.155 189.764 296.077C188.565 294.998 187.635 293.455 186.974 291.447C186.314 289.425 185.984 287.046 185.984 284.31C185.984 281.588 186.314 279.229 186.974 277.234C187.635 275.226 188.565 273.69 189.764 272.625C190.977 271.547 192.386 271.008 193.99 271.008C195.459 271.008 196.759 271.446 197.892 272.322C199.037 273.198 199.96 274.465 200.661 276.122C201.376 277.767 201.827 279.728 202.016 282.006H205.028V268.905H209.88V303.476ZM193.99 275.86C192.938 275.86 192.13 276.574 191.564 278.003C191.011 279.431 190.741 281.534 190.755 284.31C190.741 287.1 191.011 289.21 191.564 290.638C192.13 292.054 192.938 292.748 193.99 292.721C195.054 292.748 195.877 292.054 196.456 290.638C197.049 289.21 197.346 287.1 197.346 284.31C197.346 281.534 197.049 279.431 196.456 278.003C195.877 276.574 195.054 275.86 193.99 275.86ZM252.255 305.255H247.039V268.379H252.255V305.255ZM232.281 270.967C234.127 270.967 235.778 271.506 237.234 272.584C238.703 273.663 239.856 275.192 240.691 277.174C241.527 279.155 241.945 281.453 241.945 284.068C241.945 286.709 241.527 289.028 240.691 291.022C239.856 293.004 238.703 294.533 237.234 295.612C235.778 296.676 234.127 297.209 232.281 297.209C230.394 297.209 228.709 296.676 227.227 295.612C225.744 294.533 224.585 293.004 223.749 291.022C222.927 289.028 222.523 286.709 222.536 284.068C222.523 281.453 222.927 279.155 223.749 277.174C224.585 275.192 225.744 273.663 227.227 272.584C228.709 271.506 230.394 270.967 232.281 270.967ZM232.281 275.617C231.324 275.617 230.482 275.947 229.754 276.608C229.039 277.255 228.487 278.212 228.096 279.478C227.705 280.745 227.51 282.275 227.51 284.068C227.51 285.874 227.705 287.41 228.096 288.677C228.487 289.944 229.039 290.901 229.754 291.548C230.482 292.195 231.324 292.519 232.281 292.519C233.224 292.519 234.047 292.195 234.747 291.548C235.448 290.888 235.994 289.924 236.385 288.657C236.776 287.39 236.971 285.86 236.971 284.068C236.971 282.289 236.776 280.766 236.385 279.499C235.994 278.218 235.441 277.255 234.727 276.608C234.026 275.947 233.211 275.617 232.281 275.617ZM288.282 305.255H283.188V285.523H276.718V281.359H283.188V268.379H288.282V305.255ZM276.112 275.617H264.062V281.723H274.777V285.766H264.062V292.721C266.839 292.694 269.285 292.62 271.401 292.498C273.517 292.364 275.653 292.128 277.81 291.791L278.335 295.915C275.775 296.306 273.227 296.575 270.693 296.724C268.16 296.858 265.208 296.926 261.838 296.926H258.927V271.452H276.112V275.617Z" fill="white"/>
<path d="M140.285 353.87H145.259V358.116H140.285V366.89H135.11V345.379H140.285V353.87ZM128.155 367.335C130.648 367.322 132.839 367.618 134.726 368.225C136.612 368.831 138.068 369.694 139.092 370.812C140.13 371.931 140.649 373.238 140.649 374.735C140.649 376.284 140.137 377.619 139.113 378.738C138.088 379.856 136.633 380.712 134.746 381.305C132.872 381.912 130.675 382.215 128.155 382.215C125.608 382.215 123.384 381.912 121.483 381.305C119.596 380.712 118.134 379.856 117.096 378.738C116.058 377.619 115.539 376.284 115.539 374.735C115.539 373.238 116.058 371.931 117.096 370.812C118.134 369.694 119.603 368.831 121.504 368.225C123.417 367.618 125.635 367.322 128.155 367.335ZM128.155 371.459C125.729 371.459 123.862 371.736 122.555 372.288C121.261 372.841 120.621 373.656 120.634 374.735C120.621 375.84 121.268 376.682 122.575 377.262C123.882 377.841 125.742 378.131 128.155 378.131C130.487 378.131 132.299 377.841 133.593 377.262C134.901 376.682 135.554 375.84 135.554 374.735C135.554 373.656 134.907 372.841 133.614 372.288C132.32 371.736 130.5 371.459 128.155 371.459ZM117.763 360.38C122.615 360.313 127.4 359.814 132.118 358.884L132.724 363.049C127.468 364.1 121.807 364.626 115.742 364.626H112.588V347.441H117.763V360.38ZM165.637 366.082H147.968V348.412H165.637V366.082ZM153.062 362.038H160.543V352.536H153.062V362.038ZM176.069 355.973H181.043V360.219H176.069V372.228H170.894V345.379H176.069V355.973ZM177.404 381.527H152.213V369.599H157.348V377.403H177.404V381.527ZM213.673 382.255H208.538V362.847H202.594V358.642H208.538V345.379H213.673V382.255ZM200.532 362.24H189.089V369.438C191.933 369.411 194.447 369.33 196.63 369.195C198.814 369.047 201.004 368.777 203.201 368.386L203.605 372.592C201.031 373.009 198.45 373.299 195.862 373.461C193.288 373.609 190.329 373.683 186.987 373.683H183.954V358.156H195.518V352.617H183.873V348.452H200.532V362.24Z" fill="white"/>
<path d="M132.757 434.606H120.586V437.477H131.989V441.561H120.586V444.553C123.767 444.553 126.402 444.486 128.491 444.351C130.594 444.203 132.676 443.933 134.738 443.542L135.304 447.626C133.121 448.003 130.911 448.259 128.673 448.394C126.436 448.529 123.673 448.596 120.384 448.596H118.443H115.37V430.441H132.757V434.606ZM143.189 464.77H119.131V451.508H143.189V464.77ZM124.225 460.646H138.094V455.511H124.225V460.646ZM143.189 436.992H148.162V441.237H143.189V449.89H138.013V428.379H143.189V436.992ZM180.793 450.618H175.658V443.38H170.886V439.175H175.658V428.379H180.793V450.618ZM180.793 464.77H156.047V452.195H180.793V464.77ZM161.223 460.646H175.739V456.238H161.223V460.646ZM171.533 435.698H149.861V431.574H158.19V428.056H163.285V431.574H171.533V435.698ZM160.737 436.911C162.436 436.911 163.952 437.194 165.286 437.76C166.634 438.326 167.679 439.108 168.42 440.105C169.175 441.103 169.552 442.235 169.552 443.502C169.552 444.823 169.175 445.988 168.42 446.999C167.679 447.997 166.641 448.778 165.307 449.344C163.972 449.897 162.449 450.173 160.737 450.173C159.039 450.173 157.516 449.897 156.168 449.344C154.821 448.778 153.769 447.99 153.015 446.979C152.26 445.968 151.882 444.809 151.882 443.502C151.882 442.235 152.26 441.103 153.015 440.105C153.783 439.108 154.841 438.326 156.189 437.76C157.536 437.194 159.053 436.911 160.737 436.911ZM160.737 440.793C159.524 440.793 158.567 441.028 157.867 441.5C157.179 441.972 156.842 442.639 156.856 443.502C156.842 444.418 157.179 445.126 157.867 445.624C158.567 446.123 159.524 446.373 160.737 446.373C161.937 446.373 162.88 446.123 163.568 445.624C164.269 445.126 164.619 444.418 164.619 443.502C164.619 442.639 164.269 441.972 163.568 441.5C162.867 441.028 161.924 440.793 160.737 440.793ZM214.596 442.491H219.812V446.736H214.596V465.094H209.42V428.379H214.596V442.491ZM204.77 432.14C204.743 438.003 203.423 443.185 200.808 447.687C198.206 452.175 193.961 455.861 188.071 458.745L185.16 454.783C189.54 452.586 192.903 449.985 195.248 446.979C197.607 443.973 199.029 440.429 199.514 436.345H187.262V432.14H204.77Z" fill="white"/>
<path d="M129.199 511.018C129.199 512.771 129.125 514.435 128.976 516.012C128.842 517.575 128.505 519.361 127.966 521.37H137.508C137.926 519.766 138.216 518.303 138.377 516.982C138.553 515.648 138.654 514.347 138.681 513.081H131.463V508.997H143.674V511.221C143.674 513.04 143.614 514.718 143.492 516.255C143.384 517.778 143.115 519.483 142.684 521.37H147.556V525.534H133.242V530.305H143.391V543.73H118.079V530.305H128.148V525.534H113.996V521.37H122.77C123.241 519.766 123.578 518.297 123.781 516.962C123.983 515.628 124.111 514.334 124.165 513.081H116.988V508.997H129.199V511.018ZM123.134 539.686H138.256V534.308H123.134V539.686ZM184.028 525.534H178.812V544.094H173.636V507.379H178.812V521.329H184.028V525.534ZM156.088 530.851C161.304 530.757 166.331 530.225 171.169 529.254L171.695 533.54C168.838 534.12 165.953 534.531 163.042 534.773C160.144 535.003 157.179 535.117 154.147 535.117H150.952V510.897H156.088V530.851ZM219.205 532.085H204.811V544.134H199.716V532.085H185.524V527.96H219.205V532.085ZM215.162 523.998H189.486V509.158H215.162V523.998ZM194.581 519.954H210.027V513.242H194.581V519.954Z" fill="white"/>
<defs>
<filter id="filter0_d_854_5142" x="7.36308" y="250.443" width="73.6333" height="73.6333" filterUnits="userSpaceOnUse" color-interpolation-filters="sRGB">
<feFlood flood-opacity="0" result="BackgroundImageFix"/>
<feColorMatrix in="SourceAlpha" type="matrix" values="0 0 0 0 0 0 0 0 0 0 0 0 0 0 0 0 0 0 127 0" result="hardAlpha"/>
<feOffset dy="2.45443"/>
<feGaussianBlur stdDeviation="1.22721"/>
<feComposite in2="hardAlpha" operator="out"/>
<feColorMatrix type="matrix" values="0 0 0 0 0 0 0 0 0 0 0 0 0 0 0 0 0 0 0.35 0"/>
<feBlend mode="normal" in2="BackgroundImageFix" result="effect1_dropShadow_854_5142"/>
<feBlend mode="normal" in="SourceGraphic" in2="effect1_dropShadow_854_5142" result="shape"/>
</filter>
<filter id="filter1_d_854_5142" x="4.09367" y="0" width="73.6276" height="75.1647" filterUnits="userSpaceOnUse" color-interpolation-filters="sRGB">
<feFlood flood-opacity="0" result="BackgroundImageFix"/>
<feColorMatrix in="SourceAlpha" type="matrix" values="0 0 0 0 0 0 0 0 0 0 0 0 0 0 0 0 0 0 127 0" result="hardAlpha"/>
<feOffset dy="2.45443"/>
<feGaussianBlur stdDeviation="1.22721"/>
<feComposite in2="hardAlpha" operator="out"/>
<feColorMatrix type="matrix" values="0 0 0 0 0 0 0 0 0 0 0 0 0 0 0 0 0 0 0.35 0"/>
<feBlend mode="normal" in2="BackgroundImageFix" result="effect1_dropShadow_854_5142"/>
<feBlend mode="normal" in="SourceGraphic" in2="effect1_dropShadow_854_5142" result="shape"/>
</filter>
<filter id="filter2_d_854_5142" x="4.91044" y="90.9062" width="70.55" height="70.5486" filterUnits="userSpaceOnUse" color-interpolation-filters="sRGB">
<feFlood flood-opacity="0" result="BackgroundImageFix"/>
<feColorMatrix in="SourceAlpha" type="matrix" values="0 0 0 0 0 0 0 0 0 0 0 0 0 0 0 0 0 0 127 0" result="hardAlpha"/>
<feOffset dy="2.45443"/>
<feGaussianBlur stdDeviation="1.22721"/>
<feComposite in2="hardAlpha" operator="out"/>
<feColorMatrix type="matrix" values="0 0 0 0 0 0 0 0 0 0 0 0 0 0 0 0 0 0 0.35 0"/>
<feBlend mode="normal" in2="BackgroundImageFix" result="effect1_dropShadow_854_5142"/>
<feBlend mode="normal" in="SourceGraphic" in2="effect1_dropShadow_854_5142" result="shape"/>
</filter>
<filter id="filter3_d_854_5142" x="7.36332" y="166.992" width="73.6325" height="78.5406" filterUnits="userSpaceOnUse" color-interpolation-filters="sRGB">
<feFlood flood-opacity="0" result="BackgroundImageFix"/>
<feColorMatrix in="SourceAlpha" type="matrix" values="0 0 0 0 0 0 0 0 0 0 0 0 0 0 0 0 0 0 127 0" result="hardAlpha"/>
<feOffset dy="2.45443"/>
<feGaussianBlur stdDeviation="1.22721"/>
<feComposite in2="hardAlpha" operator="out"/>
<feColorMatrix type="matrix" values="0 0 0 0 0 0 0 0 0 0 0 0 0 0 0 0 0 0 0.25 0"/>
<feBlend mode="normal" in2="BackgroundImageFix" result="effect1_dropShadow_854_5142"/>
<feBlend mode="normal" in="SourceGraphic" in2="effect1_dropShadow_854_5142" result="shape"/>
</filter>
<filter id="filter4_d_854_5142" x="9.81767" y="328.984" width="73.6329" height="73.6329" filterUnits="userSpaceOnUse" color-interpolation-filters="sRGB">
<feFlood flood-opacity="0" result="BackgroundImageFix"/>
<feColorMatrix in="SourceAlpha" type="matrix" values="0 0 0 0 0 0 0 0 0 0 0 0 0 0 0 0 0 0 127 0" result="hardAlpha"/>
<feOffset dy="2.45443"/>
<feGaussianBlur stdDeviation="1.22721"/>
<feComposite in2="hardAlpha" operator="out"/>
<feColorMatrix type="matrix" values="0 0 0 0 0 0 0 0 0 0 0 0 0 0 0 0 0 0 0.35 0"/>
<feBlend mode="normal" in2="BackgroundImageFix" result="effect1_dropShadow_854_5142"/>
<feBlend mode="normal" in="SourceGraphic" in2="effect1_dropShadow_854_5142" result="shape"/>
</filter>
<filter id="filter5_d_854_5142" x="12.2715" y="412.436" width="69.2188" height="72.1324" filterUnits="userSpaceOnUse" color-interpolation-filters="sRGB">
<feFlood flood-opacity="0" result="BackgroundImageFix"/>
<feColorMatrix in="SourceAlpha" type="matrix" values="0 0 0 0 0 0 0 0 0 0 0 0 0 0 0 0 0 0 127 0" result="hardAlpha"/>
<feOffset dy="2.45443"/>
<feGaussianBlur stdDeviation="1.22721"/>
<feComposite in2="hardAlpha" operator="out"/>
<feColorMatrix type="matrix" values="0 0 0 0 0 0 0 0 0 0 0 0 0 0 0 0 0 0 0.35 0"/>
<feBlend mode="normal" in2="BackgroundImageFix" result="effect1_dropShadow_854_5142"/>
<feBlend mode="normal" in="SourceGraphic" in2="effect1_dropShadow_854_5142" result="shape"/>
</filter>
<filter id="filter6_d_854_5142" x="14.7265" y="490.947" width="73.6329" height="73.9013" filterUnits="useSpaceOnUse" color-interpolation-filters="sRGB">
<feFlood flood-opacity="0" result="BackgroundImageFix"/>
<feColorMatrix in="SourceAlpha" type="matrix" values="0 0 0 0 0 0 0 0 0 0 0 0 0 0 0 0 0 0 127 0" result="hardAlpha"/>
<feOffset dy="2.45443"/>
<feGaussianBlur stdDeviation="1.22721"/>
<feComposite in2="hardAlpha" operator="out"/>
<feColorMatrix type="matrix" values="0 0 0 0 0 0 0 0 0 0 0 0 0 0 0 0 0 0 0.35 0"/>
<feBlend mode="normal" in2="BackgroundImageFix" result="effect1_dropShadow_854_5142"/>
<feBlend mode="normal" in="SourceGraphic" in2="effect1_dropShadow_854_5142" result="shape"/>
</filter>
<radialGradient id="paint0_radial_854_5142" cx="0" cy="0" r="1" gradientUnits="userSpaceOnUse" gradientTransform="translate(44.1798 284.805) rotate(90) scale(18.4084 18.4084)">
<stop stop-color="#00FFE6"/>
<stop offset="1" stop-color="#FFEE00"/>
</radialGradient>
<linearGradient id="paint1_linear_854_5142" x1="12.6818" y1="8.58781" x2="72.8199" y2="68.7255" gradientUnits="userSpaceOnUse">
<stop offset="0.45" stop-color="#FAC1FF"/>
<stop offset="1" stop-color="#FFAAAC"/>
</linearGradient>
<linearGradient id="paint2_linear_854_5142" x1="13.3222" y1="96.8642" x2="70.5517" y2="154.094" gradientUnits="userSpaceOnUse">
<stop stop-color="#C5FFD2"/>
<stop offset="1" stop-color="#83E9FF"/>
</linearGradient>
<linearGradient id="paint3_linear_854_5142" x1="29.3588" y1="190.065" x2="59.422" y2="221.169" gradientUnits="userSpaceOnUse">
<stop stop-color="#FFBF00"/>
<stop offset="1" stop-color="#FF7300"/>
</linearGradient>
<linearGradient id="paint4_linear_854_5142" x1="24.7747" y1="195.99" x2="63.5437" y2="215.179" gradientUnits="userSpaceOnUse">
<stop stop-color="#FFBF00"/>
<stop offset="1" stop-color="#FF7300"/>
</linearGradient>
<linearGradient id="paint5_linear_854_5142" x1="22.4957" y1="202.807" x2="65.3841" y2="208.449" gradientUnits="userSpaceOnUse">
<stop stop-color="#FFBF00"/>
<stop offset="1" stop-color="#FF7300"/>
</linearGradient>
<linearGradient id="paint6_linear_854_5142" x1="22.5308" y1="209.93" x2="64.969" y2="201.548" gradientUnits="userSpaceOnUse">
<stop stop-color="#FFBF00"/>
<stop offset="1" stop-color="#FF7300"/>
</linearGradient>
<linearGradient id="paint7_linear_854_5142" x1="24.8506" y1="216.684" x2="62.3547" y2="195.127" gradientUnits="userSpaceOnUse">
<stop stop-color="#FFBF00"/>
<stop offset="1" stop-color="#FF7300"/>
</linearGradient>
<linearGradient id="paint8_linear_854_5142" x1="29.2017" y1="222.322" x2="57.8334" y2="189.896" gradientUnits="userSpaceOnUse">
<stop stop-color="#FFBF00"/>
<stop offset="1" stop-color="#FF7300"/>
</linearGradient>
<linearGradient id="paint9_linear_854_5142" x1="35.1899" y1="226.3" x2="51.8171" y2="186.365" gradientUnits="userSpaceOnUse">
<stop stop-color="#FFBF00"/>
<stop offset="1" stop-color="#FF7300"/>
</linearGradient>
<linearGradient id="paint10_linear_854_5142" x1="42.0736" y1="228.123" x2="45.0445" y2="184.967" gradientUnits="userSpaceOnUse">
<stop stop-color="#FFBF00"/>
<stop offset="1" stop-color="#FF7300"/>
</linearGradient>
<linearGradient id="paint11_linear_854_5142" x1="49.4965" y1="227.569" x2="37.8789" y2="185.9" gradientUnits="userSpaceOnUse">
<stop stop-color="#FFBF00"/>
<stop offset="1" stop-color="#FF7300"/>
</linearGradient>
<linearGradient id="paint12_linear_854_5142" x1="56.0363" y1="224.747" x2="31.6931" y2="188.989" gradientUnits="userSpaceOnUse">
<stop stop-color="#FFBF00"/>
<stop offset="1" stop-color="#FF7300"/>
</linearGradient>
<linearGradient id="paint13_linear_854_5142" x1="61.3711" y1="219.929" x2="26.7854" y2="193.947" gradientUnits="userSpaceOnUse">
<stop stop-color="#FFBF00"/>
<stop offset="1" stop-color="#FF7300"/>
</linearGradient>
<linearGradient id="paint14_linear_854_5142" x1="64.8387" y1="213.708" x2="23.7563" y2="200.162" gradientUnits="userSpaceOnUse">
<stop stop-color="#FFBF00"/>
<stop offset="1" stop-color="#FF7300"/>
</linearGradient>
<linearGradient id="paint15_linear_854_5142" x1="66.1351" y1="206.685" x2="22.8786" y2="207.039" gradientUnits="userSpaceOnUse">
<stop stop-color="#FFBF00"/>
<stop offset="1" stop-color="#FF7300"/>
</linearGradient>
<linearGradient id="paint16_linear_854_5142" x1="65.1171" y1="199.636" x2="24.2493" y2="213.816" gradientUnits="userSpaceOnUse">
<stop stop-color="#FFBF00"/>
<stop offset="1" stop-color="#FF7300"/>
</linearGradient>
<linearGradient id="paint17_linear_854_5142" x1="61.8539" y1="193.231" x2="27.7541" y2="219.847" gradientUnits="userSpaceOnUse">
<stop stop-color="#FFBF00"/>
<stop offset="1" stop-color="#FF7300"/>
</linearGradient>
<linearGradient id="paint18_linear_854_5142" x1="56.7537" y1="188.259" x2="32.9668" y2="224.39" gradientUnits="userSpaceOnUse">
<stop stop-color="#FFBF00"/>
<stop offset="1" stop-color="#FF7300"/>
</linearGradient>
<linearGradient id="paint19_linear_854_5142" x1="49.9764" y1="185.081" x2="39.7033" y2="227.101" gradientUnits="userSpaceOnUse">
<stop stop-color="#FFBF00"/>
<stop offset="1" stop-color="#FF7300"/>
</linearGradient>
<linearGradient id="paint20_linear_854_5142" x1="42.4307" y1="184.371" x2="47.0538" y2="227.381" gradientUnits="userSpaceOnUse">
<stop stop-color="#FFBF00"/>
<stop offset="1" stop-color="#FF7300"/>
</linearGradient>
<linearGradient id="paint21_linear_854_5142" x1="35.2151" y1="186.217" x2="53.9517" y2="225.207" gradientUnits="userSpaceOnUse">
<stop stop-color="#FFBF00"/>
<stop offset="1" stop-color="#FF7300"/>
</linearGradient>
<radialGradient id="paint22_radial_854_5142" cx="0" cy="0" r="1" gradientUnits="userSpaceOnUse" gradientTransform="translate(46.6343 363.346) rotate(90) scale(31.9072 31.9077)">
<stop stop-color="#00FFD9"/>
<stop offset="1" stop-color="#CCFFA1"/>
</radialGradient>
<radialGradient id="paint23_radial_854_5142" cx="0" cy="0" r="1" gradientUnits="userSpaceOnUse" gradientTransform="translate(46.8119 446.048) rotate(90) scale(30.4249 29.0026)">
<stop offset="0.336538" stop-color="#FF0000"/>
<stop offset="1" stop-color="#FFFD79"/>
</radialGradient>
<linearGradient id="paint24_linear_854_5142" x1="19.6354" y1="493.431" x2="51.5426" y2="525.338" gradientUnits="userSpaceOnUse">
<stop stop-color="#7AFFAD"/>
<stop offset="1" stop-color="#00AAFF"/>
</linearGradient>
<linearGradient id="paint25_linear_854_5142" x1="83.4503" y1="494.659" x2="51.5431" y2="525.339" gradientUnits="userSpaceOnUse">
<stop stop-color="#7AFFAD"/>
<stop offset="1" stop-color="#00AAFF"/>
</linearGradient>
<linearGradient id="paint26_linear_854_5142" x1="83.4503" y1="526.566" x2="51.5431" y2="557.246" gradientUnits="userSpaceOnUse">
<stop stop-color="#7AFFAD"/>
<stop offset="1" stop-color="#00AAFF"/>
</linearGradient>
<linearGradient id="paint27_linear_854_5142" x1="19.6355" y1="525.547" x2="51.5427" y2="557.454" gradientUnits="userSpaceOnUse">
<stop stop-color="#7AFFAD"/>
<stop offset="1" stop-color="#00AAFF"/>
</linearGradient>
</defs>
</svg>
