<svg width="36" height="36" viewBox="0 0 36 36" fill="none" xmlns="http://www.w3.org/2000/svg">
<path d="M30.8045 18.3693C30.3742 18.2639 29.9455 18.1516 29.1506 17.9489C30.3608 17.6153 31.156 17.4469 31.9155 17.1784C35.2473 15.9999 36.6379 13.4579 35.4741 10.152C33.7945 5.38047 30.4744 2.05869 25.6938 0.395787C22.4283 -0.739684 19.9117 0.613562 18.7298 3.86542C18.414 4.73413 18.2365 5.65345 17.9124 6.85849C17.7183 6.00855 17.6035 5.45796 17.4668 4.91296C16.3706 0.540068 13.3266 -1.05213 9.18393 0.755242C5.22559 2.48218 2.32706 5.39788 0.656798 9.3897C-1.00357 13.357 0.536285 16.304 4.6961 17.4372C5.26343 17.592 5.83506 17.7295 6.40497 17.8756C5.96623 18.177 5.57358 18.2597 5.18351 18.351C0.408551 19.4693 -1.18311 22.7421 0.919409 27.1878C1.37801 28.1579 1.96292 29.0677 2.48941 30.0051L5.93009 33.4458C7.11825 34.0657 8.26081 34.8026 9.50317 35.2842C13.4016 36.7964 16.234 35.324 17.3682 31.287C17.5494 30.6421 17.6929 29.9861 17.949 28.9521C18.1212 29.7681 18.2018 30.1624 18.2883 30.5558C19.3717 35.4729 22.7404 37.1388 27.2626 34.8926C30.7192 33.1754 33.3371 30.5499 34.9753 27.0357C37.0057 22.6794 35.4544 19.5086 30.8058 18.368L30.8045 18.3693Z" fill="#355619"/>
</svg>
