<svg width="36" height="36" viewBox="0 0 36 36" fill="none" xmlns="http://www.w3.org/2000/svg">
<path d="M18.3693 5.07491C18.2639 5.50524 18.1516 5.93385 17.9489 6.7288C17.6153 5.5186 17.4469 4.72343 17.1784 3.96385C15.9999 0.632095 13.4579 -0.758535 10.152 0.405262C5.38047 2.08492 2.05869 5.40498 0.395787 10.1856C-0.739684 13.4511 0.613562 15.9677 3.86542 17.1496C4.73413 17.4654 5.65345 17.6429 6.85849 17.967C6.00855 18.1611 5.45796 18.2759 4.91296 18.4126C0.540068 19.5088 -1.05213 22.5528 0.755242 26.6955C2.48218 30.6538 5.39788 33.5523 9.3897 35.2226C13.357 36.883 16.304 35.3431 17.4372 31.1833C17.592 30.616 17.7295 30.0443 17.8756 29.4744C18.177 29.9132 18.2597 30.3058 18.351 30.6959C19.4693 35.4708 22.7421 37.0625 27.1878 34.96C28.1579 34.5014 29.0677 33.9165 30.0051 33.39L33.4458 29.9493C34.0657 28.7611 34.8026 27.6186 35.2842 26.3762C36.7964 22.4778 35.324 19.6454 31.287 18.5112C30.6421 18.33 29.9861 18.1865 28.9521 17.9303C29.7681 17.7582 30.1624 17.6776 30.5558 17.5911C35.4729 16.5077 37.1388 13.139 34.8926 8.61681C33.1754 5.16017 30.5499 2.5423 27.0357 0.904108C22.6794 -1.12632 19.5086 0.424997 18.368 5.07362L18.3693 5.07491Z" fill="#FFDF7D"/>
</svg>
