<svg width="39" height="39" viewBox="0 0 39 39" fill="none" xmlns="http://www.w3.org/2000/svg">
<path d="M32.6166 24.9419C35.6503 30.5508 35.3892 34.5635 31.4866 37.3734C30.1181 38.3589 28.1568 38.8107 26.4415 38.8831C23.4178 39.0106 21.2872 37.0824 19.6376 34.5846C16.2609 39.0939 11.8835 40.2076 8.05895 37.6566C4.12821 35.0351 3.6129 30.5726 6.59984 25.0111C1.17001 22.5722 -0.932468 19.331 0.377987 14.7903C0.840207 13.1883 1.90893 11.5754 3.12007 10.4367C5.61169 8.09587 8.66858 8.28555 11.7005 9.48961C12.1583 3.26168 14.6874 0.0986876 19.091 0.00320844C24.3297 -0.110213 27.0431 2.77979 27.7889 9.26853C33.7246 8.11509 37.6741 9.7754 38.7572 14.2815C39.1888 16.077 39.0133 18.2282 38.4805 20.0192C37.6535 22.8009 35.2668 24.1601 32.6166 24.9419Z" fill="#B9D4A3"/>
</svg>
