<svg width="70" height="70" viewBox="0 0 70 70" fill="none" xmlns="http://www.w3.org/2000/svg">
<g filter="url(#filter0_d_1531_9895)">
<mask id="path-1-outside-1_1531_9895" maskUnits="userSpaceOnUse" x="2.45001" y="0" width="65" height="65" fill="black">
<rect fill="white" x="2.45001" width="65" height="65"/>
<path d="M34.9031 3C51.1696 3.00003 64.3562 16.1867 64.3563 32.4531C64.3563 48.7196 51.1696 61.9062 34.9031 61.9062C18.6366 61.9062 5.45001 48.7196 5.45001 32.4531C5.45004 16.1866 18.6366 3 34.9031 3Z"/>
</mask>
<path d="M34.9031 3C51.1696 3.00003 64.3562 16.1867 64.3563 32.4531C64.3563 48.7196 51.1696 61.9062 34.9031 61.9062C18.6366 61.9062 5.45001 48.7196 5.45001 32.4531C5.45004 16.1866 18.6366 3 34.9031 3Z" fill="#D9D9D9"/>
<path d="M34.9031 3C51.1696 3.00003 64.3562 16.1867 64.3563 32.4531C64.3563 48.7196 51.1696 61.9062 34.9031 61.9062C18.6366 61.9062 5.45001 48.7196 5.45001 32.4531C5.45004 16.1866 18.6366 3 34.9031 3Z" fill="url(#paint0_linear_1531_9895)"/>
<path d="M34.9031 3L34.9031 0H34.9031V3ZM64.3563 32.4531H67.3563V32.4531L64.3563 32.4531ZM34.9031 61.9062V64.9062H34.9031L34.9031 61.9062ZM5.45001 32.4531L2.45001 32.4531V32.4531H5.45001ZM34.9031 3L34.9031 6C49.5127 6.00003 61.3562 17.8435 61.3563 32.4531L64.3563 32.4531L67.3563 32.4531C67.3562 14.5298 52.8265 3.62396e-05 34.9031 0L34.9031 3ZM64.3563 32.4531H61.3563C61.3563 47.0628 49.5128 58.9062 34.9031 58.9062L34.9031 61.9062L34.9031 64.9062C52.8265 64.9062 67.3563 50.3765 67.3563 32.4531H64.3563ZM34.9031 61.9062V58.9062C20.2935 58.9062 8.45001 47.0628 8.45001 32.4531H5.45001H2.45001C2.45001 50.3765 16.9798 64.9062 34.9031 64.9062V61.9062ZM5.45001 32.4531L8.45001 32.4531C8.45004 17.8435 20.2935 6 34.9031 6V3V0C16.9798 0 2.45004 14.5298 2.45001 32.4531L5.45001 32.4531Z" fill="white" mask="url(#path-1-outside-1_1531_9895)"/>
</g>
<path d="M33.6508 31.1004C33.6508 32.8127 32.2627 34.2008 30.5504 34.2008C28.8381 34.2008 27.45 32.8127 27.45 31.1004C27.45 29.3881 28.8381 28 30.5504 28C32.2627 28 33.6508 29.3881 33.6508 31.1004Z" fill="#252525"/>
<path d="M40.8516 31.1004C40.8516 32.8127 39.4635 34.2008 37.7512 34.2008C36.0389 34.2008 34.6508 32.8127 34.6508 31.1004C34.6508 29.3881 36.0389 28 37.7512 28C39.4635 28 40.8516 29.3881 40.8516 31.1004Z" fill="#252525"/>
<path d="M28.6953 37.2008C28.6953 37.2008 28.6953 42.5559 34.0504 42.5559C39.4055 42.5559 39.4055 37.2008 39.4055 37.2008" stroke="#252525" stroke-width="2.2313" stroke-linecap="round"/>
<defs>
<filter id="filter0_d_1531_9895" x="1.21593e-05" y="0" width="69.8063" height="69.8063" filterUnits="userSpaceOnUse" color-interpolation-filters="sRGB">
<feFlood flood-opacity="0" result="BackgroundImageFix"/>
<feColorMatrix in="SourceAlpha" type="matrix" values="0 0 0 0 0 0 0 0 0 0 0 0 0 0 0 0 0 0 127 0" result="hardAlpha"/>
<feOffset dy="2.45"/>
<feGaussianBlur stdDeviation="1.225"/>
<feComposite in2="hardAlpha" operator="out"/>
<feColorMatrix type="matrix" values="0 0 0 0 0 0 0 0 0 0 0 0 0 0 0 0 0 0 0.35 0"/>
<feBlend mode="normal" in2="BackgroundImageFix" result="effect1_dropShadow_1531_9895"/>
<feBlend mode="normal" in="SourceGraphic" in2="effect1_dropShadow_1531_9895" result="shape"/>
</filter>
<linearGradient id="paint0_linear_1531_9895" x1="8.84843" y1="6.39843" x2="64.3562" y2="61.9059" gradientUnits="userSpaceOnUse">
<stop stop-color="white"/>
<stop offset="1" stop-color="#6B6B6B"/>
</linearGradient>
</defs>
</svg>
