<svg width="65" height="65" viewBox="0 0 65 65" fill="none" xmlns="http://www.w3.org/2000/svg">
<mask id="path-1-outside-1_1531_9895" maskUnits="userSpaceOnUse" x="0" y="0" width="65" height="65" fill="black">
<rect fill="white" width="65" height="65"/>
<path d="M32.4531 3C48.7196 3.00003 61.9062 16.1867 61.9062 32.4531C61.9062 48.7196 48.7196 61.9062 32.4531 61.9062C16.1866 61.9062 3 48.7196 3 32.4531C3.00003 16.1866 16.1866 3 32.4531 3Z"/>
</mask>
<path d="M32.4531 3C48.7196 3.00003 61.9062 16.1867 61.9062 32.4531C61.9062 48.7196 48.7196 61.9062 32.4531 61.9062C16.1866 61.9062 3 48.7196 3 32.4531C3.00003 16.1866 16.1866 3 32.4531 3Z" fill="#D9D9D9"/>
<path d="M32.4531 3C48.7196 3.00003 61.9062 16.1867 61.9062 32.4531C61.9062 48.7196 48.7196 61.9062 32.4531 61.9062C16.1866 61.9062 3 48.7196 3 32.4531C3.00003 16.1866 16.1866 3 32.4531 3Z" fill="url(#paint0_linear_1531_9895)"/>
<path d="M32.4531 3L32.4531 0H32.4531V3ZM61.9062 32.4531H64.9062V32.4531L61.9062 32.4531ZM32.4531 61.9062V64.9062H32.4531L32.4531 61.9062ZM3 32.4531L0 32.4531V32.4531H3ZM32.4531 3L32.4531 6C47.0627 6.00003 58.9062 17.8435 58.9062 32.4531L61.9062 32.4531L64.9062 32.4531C64.9062 14.5298 50.3764 3.62396e-05 32.4531 0L32.4531 3ZM61.9062 32.4531H58.9062C58.9062 47.0628 47.0628 58.9062 32.4531 58.9062L32.4531 61.9062L32.4531 64.9062C50.3765 64.9062 64.9062 50.3765 64.9062 32.4531H61.9062ZM32.4531 61.9062V58.9062C17.8435 58.9062 6 47.0628 6 32.4531H3H0C0 50.3765 14.5298 64.9062 32.4531 64.9062V61.9062ZM3 32.4531L6 32.4531C6.00003 17.8435 17.8435 6 32.4531 6V3V0C14.5298 0 3.19481e-05 14.5298 0 32.4531L3 32.4531Z" fill="white" mask="url(#path-1-outside-1_1531_9895)"/>
<path d="M31.2008 31.1004C31.2008 32.8127 29.8127 34.2008 28.1004 34.2008C26.3881 34.2008 25 32.8127 25 31.1004C25 29.3881 26.3881 28 28.1004 28C29.8127 28 31.2008 29.3881 31.2008 31.1004Z" fill="#252525"/>
<path d="M38.4016 31.1004C38.4016 32.8127 37.0135 34.2008 35.3012 34.2008C33.5889 34.2008 32.2008 32.8127 32.2008 31.1004C32.2008 29.3881 33.5889 28 35.3012 28C37.0135 28 38.4016 29.3881 38.4016 31.1004Z" fill="#252525"/>
<path d="M26.2453 37.2008C26.2453 37.2008 26.2453 42.5559 31.6004 42.5559C36.9555 42.5559 36.9555 37.2008 36.9555 37.2008" stroke="#252525" stroke-width="2.2313" stroke-linecap="round"/>
<defs>
<linearGradient id="paint0_linear_1531_9895" x1="6.39842" y1="6.39843" x2="61.9062" y2="61.9059" gradientUnits="userSpaceOnUse">
<stop stop-color="white"/>
<stop offset="1" stop-color="#6B6B6B"/>
</linearGradient>
</defs>
</svg>
