<svg width="30" height="33" viewBox="0 0 30 33" fill="none" xmlns="http://www.w3.org/2000/svg">
<path fill-rule="evenodd" clip-rule="evenodd" d="M30 24.4775C29.9979 24.5587 29.9899 24.6395 29.976 24.7195C30.0121 24.9033 30.0067 25.0926 29.96 25.274C29.9133 25.4554 29.8266 25.6244 29.706 25.7688C29.5855 25.9132 29.434 26.0295 29.2626 26.1094C29.0911 26.1893 28.9039 26.2307 28.7143 26.2308H4.71429C4.43288 26.2308 4.15423 26.2855 3.89425 26.3918C3.63427 26.4981 3.39804 26.6539 3.19906 26.8503C3.00007 27.0468 2.84223 27.28 2.73454 27.5366C2.62686 27.7933 2.57143 28.0684 2.57143 28.3462C2.57143 28.6239 2.62686 28.899 2.73454 29.1557C2.84223 29.4123 3.00007 29.6455 3.19906 29.842C3.39804 30.0384 3.63427 30.1942 3.89425 30.3005C4.15423 30.4068 4.43288 30.4615 4.71429 30.4615H28.7143C29.0553 30.4615 29.3823 30.5953 29.6234 30.8333C29.8645 31.0713 30 31.3941 30 31.7308C30 32.0674 29.8645 32.3902 29.6234 32.6283C29.3823 32.8663 29.0553 33 28.7143 33H4.71429C3.46398 33 2.26488 32.5097 1.38078 31.6369C0.496682 30.7642 0 29.5804 0 28.3462V4.65385C0 3.41957 0.496682 2.23585 1.38078 1.36308C2.26488 0.490315 3.46398 0 4.71429 0H27.6857C28.9646 0 30 1.02215 30 2.28462V24.4775ZM9.85714 6.76923C9.51615 6.76923 9.18913 6.90295 8.94801 7.14098C8.70689 7.37901 8.57143 7.70184 8.57143 8.03846C8.57143 8.37508 8.70689 8.69792 8.94801 8.93594C9.18913 9.17397 9.51615 9.30769 9.85714 9.30769H20.1429C20.4838 9.30769 20.8109 9.17397 21.052 8.93594C21.2931 8.69792 21.4286 8.37508 21.4286 8.03846C21.4286 7.70184 21.2931 7.37901 21.052 7.14098C20.8109 6.90295 20.4838 6.76923 20.1429 6.76923H9.85714Z" fill="#355619"/>
</svg>
