<svg width="72" height="82" viewBox="0 0 72 82" fill="none" xmlns="http://www.w3.org/2000/svg">
<path d="M14.5963 80.5155L54.3566 81.4382C55.3134 81.4605 56.2463 81.1328 56.984 80.5151C57.7218 79.8974 58.2149 79.0312 58.3731 78.0754L67.0638 25.3424L71.5686 25.447L71.7554 17.3955L66.2606 17.268L59.7279 3.23225C59.4134 2.55599 58.9192 1.98184 58.3005 1.57408C57.6819 1.16632 56.9632 0.941062 56.225 0.923533L16.4647 0.000892231C14.9578 -0.0340758 13.5621 0.795507 12.8545 2.14455L5.68175 15.8623L0.186877 15.7348L4.26184e-05 23.7862L4.50489 23.8908L10.7402 76.9701C10.8538 77.9322 11.3063 78.8203 12.0146 79.4716C12.7229 80.1228 13.6395 80.4935 14.5963 80.5155ZM57.0462 37.1937L13.9619 36.1939L12.5365 24.0771L59.0282 25.156L57.0462 37.1937ZM18.2304 72.5441L16.8049 60.4273L53.0783 61.269L51.0923 73.3066L18.2304 72.5441ZM18.735 8.10938L53.581 8.91798L57.3702 17.0617L14.5722 16.0686L18.735 8.10938Z" fill="#426B1F"/>
</svg>
