<svg width="18" height="14" viewBox="0 0 18 14" fill="none" xmlns="http://www.w3.org/2000/svg">
<path fill-rule="evenodd" clip-rule="evenodd" d="M16.7645 0.280419C16.8814 0.380618 16.9774 0.502874 17.0471 0.640199C17.1167 0.777525 17.1586 0.927228 17.1704 1.08075C17.1821 1.23428 17.1635 1.38861 17.1156 1.53494C17.0677 1.68126 16.9914 1.81671 16.8911 1.93354L7.51608 12.871C7.41097 12.9936 7.28165 13.0932 7.13623 13.1635C6.99081 13.2338 6.83244 13.2732 6.67104 13.2794C6.50965 13.2855 6.34873 13.2583 6.19838 13.1993C6.04802 13.1403 5.91148 13.0509 5.79733 12.9366L0.328581 7.4679C0.115216 7.24678 -0.00276471 6.95071 4.9203e-05 6.64344C0.00286312 6.33618 0.126246 6.04232 0.343625 5.82515C0.561003 5.60797 0.854984 5.48487 1.16225 5.48234C1.46951 5.47982 1.76548 5.59808 1.98639 5.81165L6.56139 10.3851L15.113 0.408544C15.3153 0.172896 15.6029 0.027201 15.9125 0.00346983C16.2222 -0.0202613 16.5287 0.0783499 16.7645 0.280419Z" fill="#426B1F"/>
</svg>
