<svg width="98" height="78" viewBox="0 0 98 78" fill="none" xmlns="http://www.w3.org/2000/svg">
<path d="M48.0128 19.8788L16.1175 45.1352L15.435 73.2143C15.4173 73.9414 15.6862 74.6456 16.1825 75.172C16.6788 75.6985 17.3619 76.0041 18.0814 76.0215L37.0843 76.4337C37.8015 76.4475 38.4952 76.1738 39.0135 75.6724C39.5319 75.171 39.8328 74.4827 39.8504 73.7581L40.249 57.3602C40.2666 56.6331 40.5694 55.9428 41.0907 55.4411C41.612 54.9394 42.3091 54.6674 43.0287 54.6848L53.8809 54.9486C54.6005 54.9661 55.2835 55.2717 55.7798 55.7981C56.2761 56.3246 56.545 57.0288 56.5273 57.7558L56.1291 74.1418C56.1192 74.5024 56.1798 74.8615 56.3076 75.1984C56.4353 75.5353 56.6276 75.8433 56.8734 76.1049C57.1193 76.3665 57.4138 76.5765 57.7402 76.7228C58.0665 76.8691 58.4183 76.9488 58.7753 76.9575L77.7688 77.4723C78.4884 77.4898 79.1855 77.2178 79.7068 76.7161C80.2281 76.2144 80.5309 75.524 80.5485 74.797L81.2315 46.699L50.6072 19.9418C50.247 19.6336 49.7932 19.4593 49.3213 19.4478C48.8493 19.4364 48.3876 19.5884 48.0128 19.8788ZM96.9659 38.762L83.0771 26.6111L83.6539 2.88033C83.6672 2.33506 83.4655 1.80691 83.0933 1.41207C82.721 1.01723 82.2087 0.788038 81.6691 0.774921L72.1734 0.544112C71.6337 0.530995 71.1109 0.735023 70.7199 1.11131C70.3289 1.4876 70.1018 2.00533 70.0886 2.5506L69.7862 14.9908L54.9117 2.0017C53.4842 0.754958 51.6722 0.0482224 49.7854 0.00236201C47.8987 -0.0434982 46.0544 0.574366 44.5681 1.75029L0.777584 36.424C0.567357 36.591 0.391749 36.7983 0.260795 37.0339C0.12984 37.2695 0.0461046 37.5289 0.0143736 37.7972C-0.0173574 38.0655 0.00353753 38.3374 0.0758646 38.5975C0.148192 38.8575 0.270533 39.1006 0.435899 39.3128L4.63075 44.7291C4.79563 44.9421 5.00048 45.1201 5.23357 45.2529C5.46665 45.3857 5.7234 45.4707 5.9891 45.5031C6.25481 45.5356 6.52427 45.5147 6.78204 45.4418C7.03981 45.3688 7.28084 45.2453 7.49133 45.0781L48.1836 12.8543C48.5583 12.5639 49.02 12.4119 49.492 12.4233C49.964 12.4348 50.4178 12.6091 50.7779 12.9173L89.8583 47.0802C90.06 47.2574 90.2944 47.3926 90.548 47.4783C90.8015 47.5639 91.0693 47.5982 91.3361 47.5792C91.6028 47.5602 91.8633 47.4883 92.1025 47.3676C92.3418 47.2469 92.5552 47.0797 92.7306 46.8757L97.1836 41.6696C97.359 41.4644 97.4925 41.2263 97.5764 40.9689C97.6604 40.7115 97.6932 40.4399 97.673 40.1697C97.6528 39.8995 97.5799 39.6361 97.4585 39.3945C97.3372 39.1529 97.1698 38.9379 96.9659 38.762Z" fill="#426B1F"/>
</svg>
