<svg width="62" height="15" viewBox="0 0 62 15" fill="none" xmlns="http://www.w3.org/2000/svg">
<path d="M15.94 14.0196C15.94 14.1396 15.84 14.1863 15.64 14.1596H15.28L14.7 14.1396C14.3134 14.1263 13.8467 14.1196 13.3 14.1196H12.18C12.14 14.1196 12.04 14.1263 11.88 14.1396C11.72 14.1396 11.5734 14.1396 11.44 14.1396H11.18C10.9934 14.1396 10.9 14.0996 10.9 14.0196C10.9 13.9529 11.0534 13.9129 11.36 13.8996C11.7467 13.8863 11.94 13.7663 11.94 13.5396V9.07961C11.94 7.70628 11.8934 6.87961 11.8 6.59961C11.6667 6.21294 11.3334 6.01961 10.8 6.01961C10.3067 6.01961 9.92002 6.23294 9.64002 6.65961C9.52002 6.83294 9.45336 7.02628 9.44002 7.23961C9.41336 7.49294 9.40002 8.17961 9.40002 9.29961V13.0996C9.40002 13.4996 9.43336 13.7329 9.50002 13.7996C9.58002 13.8663 9.83336 13.8996 10.26 13.8996C10.38 13.8996 10.44 13.9329 10.44 13.9996C10.44 14.1063 10.3667 14.1596 10.22 14.1596C10.0867 14.1596 9.98002 14.1529 9.90002 14.1396L6.02002 14.0996C5.90002 14.0996 5.84002 14.0596 5.84002 13.9796C5.84002 13.8996 6.00002 13.8596 6.32002 13.8596C6.56002 13.8596 6.70002 13.8263 6.74002 13.7596L6.78002 13.5596V8.65961C6.78002 7.40628 6.70669 6.65294 6.56002 6.39961C6.41336 6.13294 6.11336 5.99961 5.66002 5.99961C5.11336 5.99961 4.70669 6.22628 4.44002 6.67961C4.34669 6.85294 4.28669 7.03294 4.26002 7.21961C4.24669 7.39294 4.24002 7.91294 4.24002 8.77961V12.7396C4.24002 13.3529 4.27336 13.6929 4.34002 13.7596C4.42002 13.8129 4.60669 13.8396 4.90002 13.8396H5.20002C5.33336 13.8396 5.40002 13.8796 5.40002 13.9596C5.40002 14.0529 5.34002 14.0996 5.22002 14.0996C5.04669 14.0996 4.88669 14.0929 4.74002 14.0796H3.90002C2.83336 14.1063 2.26669 14.1263 2.20002 14.1396C1.56002 14.1663 1.08669 14.1796 0.780024 14.1796H0.500024C0.326691 14.1796 0.240024 14.1263 0.240024 14.0196C0.240024 13.9263 0.300024 13.8796 0.420024 13.8796L0.880024 13.8996C1.10669 13.9129 1.29336 13.8596 1.44002 13.7396C1.54669 13.6463 1.60002 13.3663 1.60002 12.8996V9.59961C1.60002 7.74628 1.57336 6.75294 1.52002 6.61961C1.41336 6.49961 1.00002 6.43961 0.280024 6.43961C0.0933578 6.43961 2.44211e-05 6.39294 2.44211e-05 6.29961C2.44211e-05 6.19294 0.0866911 6.13961 0.260024 6.13961C1.59336 6.11294 2.78002 5.81961 3.82002 5.25961C3.94002 5.19294 4.02669 5.15961 4.08002 5.15961C4.14669 5.15961 4.18002 5.21294 4.18002 5.31961C4.18002 5.51961 4.17336 5.68628 4.16002 5.81961V6.65961C4.77336 5.67294 5.68002 5.17961 6.88002 5.17961C8.22669 5.17961 9.02002 5.71961 9.26002 6.79961C9.56669 6.22628 9.94003 5.81961 10.38 5.57961C10.82 5.32628 11.4 5.19961 12.12 5.19961C13.8134 5.19961 14.66 6.13294 14.66 7.99961C14.66 8.03961 14.66 8.13961 14.66 8.29961C14.6467 8.45961 14.64 8.59294 14.64 8.69961V12.9196C14.64 13.3463 14.6534 13.6063 14.68 13.6996C14.72 13.7929 14.8334 13.8463 15.02 13.8596C15.2867 13.8863 15.5267 13.8996 15.74 13.8996C15.8734 13.8996 15.94 13.9396 15.94 14.0196ZM25.5956 9.85961C25.5956 11.2863 25.0356 12.4396 23.9156 13.3196C23.0356 14.0129 22.069 14.3596 21.0156 14.3596C19.7623 14.3596 18.6756 13.9129 17.7556 13.0196C16.849 12.1129 16.3956 11.0463 16.3956 9.81961C16.3956 8.53961 16.849 7.45294 17.7556 6.55961C18.6756 5.65294 19.7823 5.19961 21.0756 5.19961C22.3156 5.19961 23.3756 5.65961 24.2556 6.57961C25.149 7.48628 25.5956 8.57961 25.5956 9.85961ZM22.5756 9.87961C22.5756 8.22628 22.4623 7.09294 22.2356 6.47961C21.9823 5.79961 21.5756 5.45961 21.0156 5.45961C20.4956 5.45961 20.089 5.81961 19.7956 6.53961C19.5023 7.24628 19.3556 8.22628 19.3556 9.47961C19.3556 11.2263 19.529 12.4663 19.8756 13.1996C20.1556 13.7863 20.549 14.0796 21.0556 14.0796C21.6823 14.0796 22.0956 13.7063 22.2956 12.9596C22.4823 12.2529 22.5756 11.2263 22.5756 9.87961ZM36.4719 13.7196C36.4719 13.8129 36.3386 13.8596 36.0719 13.8596L35.1719 13.8396C34.5186 13.8263 33.8319 13.9863 33.1119 14.3196C33.0319 14.3463 32.9852 14.3596 32.9719 14.3596C32.8519 14.3596 32.7852 14.2396 32.7719 13.9996C32.7719 13.8796 32.7519 13.7129 32.7119 13.4996C32.1786 14.0729 31.4719 14.3596 30.5919 14.3596C29.4186 14.3596 28.4519 13.9263 27.6919 13.0596C26.9319 12.1929 26.5519 11.0929 26.5519 9.75961C26.5519 8.39961 26.9386 7.30628 27.7119 6.47961C28.4852 5.63961 29.5052 5.21961 30.7719 5.21961C31.5986 5.21961 32.2719 5.52628 32.7919 6.13961V3.33961C32.7919 2.13961 32.7386 1.43294 32.6319 1.21961C32.5252 0.992942 32.1719 0.886276 31.5719 0.899609C31.2252 0.899609 31.0519 0.852942 31.0519 0.759608C31.0519 0.666275 31.1319 0.619609 31.2919 0.619609C32.5052 0.619609 33.6652 0.439609 34.7719 0.0796087C34.9319 0.0262752 35.0452 -0.000391483 35.1119 -0.000391483C35.2586 -0.000391483 35.3319 0.159608 35.3319 0.479608L35.3519 1.47961L35.3719 3.39961V12.9396C35.3719 13.1663 35.4052 13.3196 35.4719 13.3996C35.5652 13.5196 35.7986 13.5729 36.1719 13.5596C36.3719 13.5463 36.4719 13.5996 36.4719 13.7196ZM32.7719 11.9196V7.55961C32.7719 6.95961 32.6719 6.51294 32.4719 6.21961C32.2186 5.84628 31.8652 5.65961 31.4119 5.65961C30.1319 5.65961 29.4919 7.07961 29.4919 9.91961C29.4919 11.1863 29.6519 12.1663 29.9719 12.8596C30.3052 13.5529 30.7652 13.8996 31.3519 13.8996C31.6986 13.8996 32.0186 13.7463 32.3119 13.4396C32.6186 13.1196 32.7719 12.6129 32.7719 11.9196ZM45.8206 13.0396C45.8206 13.1463 45.714 13.2929 45.5006 13.4796C44.9273 13.9996 44.2206 14.2596 43.3806 14.2596C42.834 14.2596 42.434 14.1463 42.1806 13.9196C41.9406 13.6929 41.7806 13.2863 41.7006 12.6996C41.1006 13.7929 40.2806 14.3396 39.2406 14.3396C38.6673 14.3396 38.2006 14.1596 37.8406 13.7996C37.494 13.4396 37.3206 12.9729 37.3206 12.3996C37.3206 10.7196 38.7606 9.72628 41.6406 9.41961V8.99961C41.6406 7.66628 41.594 6.84628 41.5006 6.53961L41.4806 6.43961C41.294 5.77294 40.8206 5.43961 40.0606 5.43961C39.6206 5.43961 39.2673 5.56628 39.0006 5.81961C38.734 6.07294 38.6006 6.31961 38.6006 6.55961C38.6006 6.69294 38.7606 6.77294 39.0806 6.79961C39.5606 6.83961 39.8006 7.13294 39.8006 7.67961C39.8006 7.97294 39.7006 8.21961 39.5006 8.41961C39.314 8.60628 39.0673 8.69961 38.7606 8.69961C38.374 8.69961 38.054 8.58628 37.8006 8.35961C37.5606 8.11961 37.4406 7.81961 37.4406 7.45961C37.4406 6.88628 37.7273 6.36628 38.3006 5.89961C38.874 5.43294 39.6273 5.19961 40.5606 5.19961C41.9473 5.19961 42.914 5.44628 43.4606 5.93961C43.9006 6.35294 44.1206 7.07294 44.1206 8.09961V11.5196C44.1206 12.1863 44.1273 12.5729 44.1406 12.6796C44.2073 13.2396 44.4006 13.5196 44.7206 13.5196C44.9473 13.5196 45.2273 13.3596 45.5607 13.0396C45.6273 12.9729 45.6806 12.9396 45.7206 12.9396C45.7873 12.9396 45.8206 12.9729 45.8206 13.0396ZM41.6406 10.6596V9.67961C40.3473 9.93294 39.7006 10.6663 39.7006 11.8796C39.7006 12.8129 40.0206 13.2796 40.6606 13.2796C41.0206 13.2796 41.274 13.0796 41.4206 12.6796C41.5673 12.2796 41.6406 11.6063 41.6406 10.6596ZM61.4869 14.0196C61.4869 14.1396 61.3869 14.1863 61.1869 14.1596H60.8269L60.2469 14.1396C59.8602 14.1263 59.3936 14.1196 58.8469 14.1196H57.7269C57.6869 14.1196 57.5869 14.1263 57.4269 14.1396C57.2669 14.1396 57.1202 14.1396 56.9869 14.1396H56.7269C56.5402 14.1396 56.4469 14.0996 56.4469 14.0196C56.4469 13.9529 56.6002 13.9129 56.9069 13.8996C57.2936 13.8863 57.4869 13.7663 57.4869 13.5396V9.07961C57.4869 7.70628 57.4402 6.87961 57.3469 6.59961C57.2136 6.21294 56.8802 6.01961 56.3469 6.01961C55.8536 6.01961 55.4669 6.23294 55.1869 6.65961C55.0669 6.83294 55.0002 7.02628 54.9869 7.23961C54.9602 7.49294 54.9469 8.17961 54.9469 9.29961V13.0996C54.9469 13.4996 54.9802 13.7329 55.0469 13.7996C55.1269 13.8663 55.3802 13.8996 55.8069 13.8996C55.9269 13.8996 55.9869 13.9329 55.9869 13.9996C55.9869 14.1063 55.9136 14.1596 55.7669 14.1596C55.6336 14.1596 55.5269 14.1529 55.4469 14.1396L51.5669 14.0996C51.4469 14.0996 51.3869 14.0596 51.3869 13.9796C51.3869 13.8996 51.5469 13.8596 51.8669 13.8596C52.1069 13.8596 52.2469 13.8263 52.2869 13.7596L52.3269 13.5596V8.65961C52.3269 7.40628 52.2536 6.65294 52.1069 6.39961C51.9602 6.13294 51.6602 5.99961 51.2069 5.99961C50.6602 5.99961 50.2536 6.22628 49.9869 6.67961C49.8936 6.85294 49.8336 7.03294 49.8069 7.21961C49.7936 7.39294 49.7869 7.91294 49.7869 8.77961V12.7396C49.7869 13.3529 49.8202 13.6929 49.8869 13.7596C49.9669 13.8129 50.1536 13.8396 50.4469 13.8396H50.7469C50.8802 13.8396 50.9469 13.8796 50.9469 13.9596C50.9469 14.0529 50.8869 14.0996 50.7669 14.0996C50.5936 14.0996 50.4336 14.0929 50.2869 14.0796H49.4469C48.3802 14.1063 47.8136 14.1263 47.7469 14.1396C47.1069 14.1663 46.6336 14.1796 46.3269 14.1796H46.0469C45.8736 14.1796 45.7869 14.1263 45.7869 14.0196C45.7869 13.9263 45.8469 13.8796 45.9669 13.8796L46.4269 13.8996C46.6536 13.9129 46.8402 13.8596 46.9869 13.7396C47.0936 13.6463 47.1469 13.3663 47.1469 12.8996V9.59961C47.1469 7.74628 47.1202 6.75294 47.0669 6.61961C46.9602 6.49961 46.5469 6.43961 45.8269 6.43961C45.6402 6.43961 45.5469 6.39294 45.5469 6.29961C45.5469 6.19294 45.6336 6.13961 45.8069 6.13961C47.1402 6.11294 48.3269 5.81961 49.3669 5.25961C49.4869 5.19294 49.5736 5.15961 49.6269 5.15961C49.6936 5.15961 49.7269 5.21294 49.7269 5.31961C49.7269 5.51961 49.7202 5.68628 49.7069 5.81961V6.65961C50.3202 5.67294 51.2269 5.17961 52.4269 5.17961C53.7736 5.17961 54.5669 5.71961 54.8069 6.79961C55.1136 6.22628 55.4869 5.81961 55.9269 5.57961C56.3669 5.32628 56.9469 5.19961 57.6669 5.19961C59.3602 5.19961 60.2069 6.13294 60.2069 7.99961C60.2069 8.03961 60.2069 8.13961 60.2069 8.29961C60.1936 8.45961 60.1869 8.59294 60.1869 8.69961V12.9196C60.1869 13.3463 60.2002 13.6063 60.2269 13.6996C60.2669 13.7929 60.3802 13.8463 60.5669 13.8596C60.8336 13.8863 61.0736 13.8996 61.2869 13.8996C61.4202 13.8996 61.4869 13.9396 61.4869 14.0196Z" fill="white"/>
</svg>
