<svg width="83" height="83" viewBox="0 0 83 83" fill="none" xmlns="http://www.w3.org/2000/svg">
<path d="M78.85 16.6872C78.8624 16.0812 78.821 10.6074 73.455 5.3369C68.1721 0.1494 62.8435 0 62.25 0H20.7334C19.7416 0 14.5375 0.26145 9.4952 5.4033C4.2994 10.6987 4.15 16.0149 4.15 16.6V29.05H0V41.5H4.15V66.4C4.15 69.4461 5.8349 72.098 8.3 73.5422V78.85C8.3 79.9507 8.73723 81.0062 9.51551 81.7845C10.2938 82.5628 11.3494 83 12.45 83H16.6C17.7006 83 18.7562 82.5628 19.5345 81.7845C20.3128 81.0062 20.75 79.9507 20.75 78.85V74.7H62.25V78.85C62.25 79.9507 62.6872 81.0062 63.4655 81.7845C64.2438 82.5628 65.2994 83 66.4 83H70.55C71.6507 83 72.7062 82.5628 73.4845 81.7845C74.2628 81.0062 74.7 79.9507 74.7 78.85V73.5505C75.9591 72.8284 77.0056 71.7872 77.7342 70.5319C78.4628 69.2766 78.8476 67.8514 78.85 66.4V41.5H83V29.05H78.85V16.6872ZM29.05 8.3H53.95V16.6H29.05V8.3ZM18.675 66.4C17.0235 66.3995 15.4398 65.7429 14.2724 64.5747C13.105 63.4065 12.4494 61.8224 12.45 60.1709C12.4506 58.5193 13.1071 56.9357 14.2753 55.7682C15.4435 54.6008 17.0276 53.9453 18.6791 53.9459C20.3307 53.9464 21.9143 54.603 23.0817 55.7712C24.2492 56.9394 24.9047 58.5235 24.9042 60.175C24.9036 61.8265 24.247 63.4102 23.0788 64.5776C21.9106 65.745 20.3265 66.4006 18.675 66.4ZM37.35 45.65H12.45V24.9H37.35V45.65ZM64.325 66.4C62.6735 66.3995 61.0898 65.7429 59.9224 64.5747C58.755 63.4065 58.0994 61.8224 58.1 60.1709C58.1006 58.5193 58.7571 56.9357 59.9253 55.7682C61.0935 54.6008 62.6776 53.9453 64.3291 53.9459C65.9807 53.9464 67.5643 54.603 68.7318 55.7712C69.8992 56.9394 70.5547 58.5235 70.5541 60.175C70.5536 61.8265 69.897 63.4102 68.7288 64.5776C67.5606 65.745 65.9765 66.4006 64.325 66.4ZM70.55 45.65H45.65V24.9H70.55V45.65Z" fill="#426B1F"/>
</svg>
