<svg
  width="11"
  height="12"
  viewBox="0 0 11 12"
  fill="none"
  xmlns="http://www.w3.org/2000/svg"
  preserveAspectRatio="none"
>
  <path
    d="M10.5018 4.5C10.5021 4.03451 10.3579 3.5804 10.0893 3.20026C9.82065 2.82012 9.44071 2.53266 9.00184 2.3775V-6.55671e-08L7.50184 -1.31134e-07V2.3775C7.06269 2.53245 6.68241 2.8198 6.41343 3.19995C6.14445 3.5801 6 4.03432 6 4.5C6 4.96569 6.14445 5.4199 6.41343 5.80005C6.68241 6.1802 7.06269 6.46755 7.50184 6.6225L7.50184 12L9.00184 12V6.6225C9.44071 6.46734 9.82065 6.17988 10.0893 5.79974C10.3579 5.4196 10.5021 4.96549 10.5018 4.5ZM8.25184 3.75C8.45075 3.75 8.64152 3.82902 8.78217 3.96967C8.92282 4.11032 9.00184 4.30109 9.00184 4.5C9.00184 4.69891 8.92282 4.88968 8.78217 5.03033C8.64152 5.17098 8.45075 5.25 8.25184 5.25C8.05293 5.25 7.86216 5.17098 7.72151 5.03033C7.58086 4.88968 7.50184 4.69891 7.50184 4.5C7.50184 4.30109 7.58086 4.11032 7.72151 3.96967C7.86216 3.82902 8.05293 3.75 8.25184 3.75ZM4.50184 7.5C4.50208 7.03451 4.35795 6.5804 4.0893 6.20026C3.82065 5.82012 3.44071 5.53266 3.00184 5.3775V-3.27835e-07L1.50184 -3.93403e-07V5.3775C1.06269 5.53245 0.682413 5.8198 0.413429 6.19995C0.144446 6.5801 0 7.03432 0 7.5C0 7.96568 0.144446 8.41991 0.413429 8.80005C0.682413 9.1802 1.06269 9.46755 1.50184 9.6225V12L3.00184 12V9.6225C3.44071 9.46734 3.82065 9.17988 4.0893 8.79974C4.35795 8.4196 4.50208 7.96549 4.50184 7.5ZM2.25184 6.75C2.45075 6.75 2.64152 6.82902 2.78217 6.96967C2.92282 7.11032 3.00184 7.30109 3.00184 7.5C3.00184 7.69891 2.92282 7.88968 2.78217 8.03033C2.64152 8.17098 2.45075 8.25 2.25184 8.25C2.05293 8.25 1.86216 8.17098 1.72151 8.03033C1.58086 7.88968 1.50184 7.69891 1.50184 7.5C1.50184 7.30109 1.58086 7.11032 1.72151 6.96967C1.86216 6.82902 2.05293 6.75 2.25184 6.75Z"
    fill="black"
  ></path>
</svg>
