<svg width="16" height="16" viewBox="0 0 16 16" fill="none" xmlns="http://www.w3.org/2000/svg">
<path d="M7.99984 2.66666C5.05384 2.66666 2.6665 5.05466 2.6665 7.99999C2.6665 10.9453 5.05384 13.3333 7.99984 13.3333C10.9458 13.3333 13.3332 10.9453 13.3332 7.99999C13.3332 5.05466 10.9458 2.66666 7.99984 2.66666ZM10.4712 9.52866C10.5962 9.65366 10.6664 9.82321 10.6664 9.99999C10.6664 10.1768 10.5962 10.3463 10.4712 10.4713C10.3462 10.5963 10.1766 10.6666 9.99984 10.6666C9.82305 10.6666 9.65351 10.5963 9.5285 10.4713L7.99984 8.94266L6.47117 10.4713C6.4094 10.5334 6.33596 10.5827 6.25507 10.6164C6.17418 10.65 6.08744 10.6673 5.99984 10.6673C5.91223 10.6673 5.82549 10.65 5.7446 10.6164C5.66371 10.5827 5.59027 10.5334 5.5285 10.4713C5.40352 10.3463 5.33331 10.1768 5.33331 9.99999C5.33331 9.82321 5.40352 9.65368 5.5285 9.52866L7.05717 7.99999L5.5285 6.47132C5.4035 6.34632 5.33327 6.17677 5.33327 5.99999C5.33327 5.82321 5.4035 5.65366 5.5285 5.52866C5.65351 5.40365 5.82305 5.33342 5.99984 5.33342C6.17662 5.33342 6.34617 5.40365 6.47117 5.52866L7.99984 7.05732L9.5285 5.52866C9.65351 5.40365 9.82305 5.33342 9.99984 5.33342C10.1766 5.33342 10.3462 5.40365 10.4712 5.52866C10.5962 5.65366 10.6664 5.82321 10.6664 5.99999C10.6664 6.17677 10.5962 6.34632 10.4712 6.47132L8.9425 7.99999L10.4712 9.52866Z" fill="#B1B1B1"/>
</svg>
